#
#
#

mtllib bench-03.mtl


#
# 
#
g 


#
# _4
#
usemtl _4

v 0.193406 0.528581 1.001084
v 0.193406 0.528581 -1.001084
v -0.195375 0.528581 -1.001084
v -0.195375 0.528581 1.001084
v -0.195375 0.449792 -1.001084
v -0.195375 0.449792 1.001084
v 0.193406 0.447611 1.001084
v 0.195377 0.449792 -1.001084
v 0.149954 0.457630 0.890812
v -0.107965 0.457630 0.890812
v -0.107965 0.059693 0.890812
v 0.149954 0.059693 0.890812
v 0.149954 0.457630 0.632888
v 0.149954 0.059693 0.632888
v -0.107965 0.457630 0.632888
v -0.107965 0.059693 0.632888
v 0.149954 0.457630 -0.647462
v -0.107965 0.457630 -0.647462
v -0.107965 0.059693 -0.647462
v 0.149954 0.059693 -0.647462
v 0.149954 0.457630 -0.905386
v 0.149954 0.059693 -0.905386
v -0.107965 0.457630 -0.905386
v -0.107965 0.059693 -0.905386
vn 0.574853 0.581986 0.575184
vn 0.575043 0.582178 -0.574800
vn -0.577350 0.577350 -0.577350
vn -0.577350 0.577350 0.577350
vn -0.578322 -0.576705 -0.577023
vn -0.578532 -0.576915 0.576602
vn 0.578626 -0.573135 0.580266
vn -0.578532 -0.576915 0.576602
vn 0.578607 -0.573117 -0.580302
vn 0.577350 0.577350 0.577350
vn -0.577350 0.577350 0.577350
vn -0.577350 -0.577350 0.577350
vn 0.577350 -0.577350 0.577350
vn 0.577350 0.577350 -0.577350
vn 0.577350 -0.577350 -0.577350
vn -0.577350 0.577350 -0.577350
vn -0.577350 -0.577350 -0.577350
vt 0.434545 0.941531
vt 0.434545 0.639874
vt 0.498432 0.639874
vt 0.498432 0.941531
vt 0.371544 0.938579
vt 0.371543 0.650760
vt 0.438160 0.650760
vt 0.438160 0.938579
vt 0.685107 0.596254
vt 0.624862 0.596254
vt 0.625046 0.517956
vt 0.685309 0.517956
vt 0.499445 0.596254
vt 0.437261 0.596254
vt 0.437390 0.516634
vt 0.499592 0.516634
vt 0.561507 0.596254
vt 0.499323 0.596254
vt 0.499470 0.517515
vt 0.561672 0.517515
vt 0.623570 0.597547
vt 0.562032 0.597547
vt 0.562197 0.517075
vt 0.623753 0.517075
f 1/1/1 2/2/2 3/3/3 4/4/4
f 4/5/4 3/6/3 5/7/5 6/8/6
f 1/5/1 4/6/4 6/7/6 7/8/7
f 6/1/8 5/2/5 8/3/9 7/4/7
f 7/7/7 8/8/9 2/5/2 1/6/1
f 8/7/9 5/7/5 3/7/3 2/7/2
f 9/9/10 10/10/11 11/11/12 12/12/13
f 13/13/14 9/14/10 12/15/13 14/16/15
f 15/17/16 13/18/14 14/19/15 16/20/17
f 10/21/11 15/22/16 16/23/17 11/24/12
f 11/24/12 16/23/17 14/23/15 12/24/13
f 10/10/11 9/9/10 13/9/14 15/10/16
f 17/9/10 18/10/11 19/11/12 20/12/13
f 21/13/14 17/14/10 20/15/13 22/16/15
f 23/17/16 21/18/14 22/19/15 24/20/17
f 18/21/11 23/22/16 24/23/17 19/24/12
f 19/24/12 24/23/17 22/23/15 20/24/13
f 18/10/11 17/9/10 21/9/14 23/10/16
