#
#
#

mtllib house3-04.mtl


#
# 
#
g 


#
# __4
#
usemtl __4

v -1.495274 2.464918 -1.603244
v -1.495274 2.403883 -1.462079
v -1.495274 1.356074 -2.163866
v -1.495274 1.459410 -2.305027
v -1.598673 2.464918 -1.603244
v -1.598673 1.459410 -2.305027
v -1.598673 1.356074 -2.163865
v -1.598673 2.403883 -1.462079
v -0.846258 2.464918 -2.360626
v -0.705095 2.403883 -2.360626
v -1.406881 1.356073 -2.360626
v -1.548044 1.459410 -2.360626
v -0.846258 2.464918 -2.257229
v -1.548044 1.459409 -2.257229
v -1.406881 1.356073 -2.257229
v -0.705095 2.403883 -2.257229
v -1.727128 -0.164547 -2.491807
v -1.727127 2.373187 -2.491807
v -1.391851 2.373187 -2.491807
v -1.391851 -0.164547 -2.491807
v -1.391851 2.373187 -2.156526
v -1.391851 -0.164547 -2.156526
v -1.727127 2.373187 -2.156526
v -1.727128 -0.164547 -2.156526
v -1.495274 1.356074 2.372276
v -1.495274 2.403883 1.670488
v -1.495274 2.464918 1.811653
v -1.495274 1.459410 2.513435
v -1.598673 1.356074 2.372274
v -1.598673 1.459410 2.513435
v -1.598673 2.464918 1.811653
v -1.598673 2.403883 1.670488
v -1.406881 1.356073 2.569034
v -0.705096 2.403883 2.569034
v -0.846259 2.464918 2.569034
v -1.548044 1.459410 2.569034
v -1.406881 1.356073 2.465637
v -1.548044 1.459409 2.465637
v -0.846259 2.464918 2.465637
v -0.705096 2.403883 2.465637
v -1.391851 2.373187 2.700215
v -1.727128 2.373187 2.700215
v -1.727128 -0.164547 2.700215
v -1.391851 -0.164547 2.700215
v -1.391851 2.373187 2.364934
v -1.391851 -0.164547 2.364934
v -1.727128 2.373187 2.364934
v -1.727128 -0.164547 2.364934
v 1.545861 1.356074 -2.163866
v 1.545861 2.403883 -1.462079
v 1.545861 2.464918 -1.603243
v 1.545861 1.459410 -2.305027
v 1.649259 1.356074 -2.163865
v 1.649259 1.459410 -2.305027
v 1.649259 2.464918 -1.603243
v 1.649259 2.403883 -1.462079
v 1.457467 1.356073 -2.360626
v 0.755682 2.403883 -2.360626
v 0.896845 2.464918 -2.360626
v 1.598630 1.459410 -2.360626
v 1.457467 1.356073 -2.257229
v 1.598630 1.459408 -2.257229
v 0.896845 2.464918 -2.257229
v 0.755682 2.403883 -2.257229
v 1.442440 2.373187 -2.491807
v 1.777717 2.373187 -2.491807
v 1.777717 -0.164547 -2.491807
v 1.442440 -0.164547 -2.491807
v 1.442440 2.373187 -2.156526
v 1.442440 -0.164547 -2.156526
v 1.777717 2.373187 -2.156526
v 1.777717 -0.164547 -2.156526
v 1.545861 2.464918 1.811653
v 1.545861 2.403883 1.670489
v 1.545861 1.356074 2.372276
v 1.545861 1.459410 2.513435
v 1.649259 2.464918 1.811653
v 1.649259 1.459410 2.513435
v 1.649258 1.356074 2.372274
v 1.649259 2.403883 1.670489
v 0.896844 2.464918 2.569034
v 0.755681 2.403883 2.569034
v 1.457467 1.356073 2.569034
v 1.598630 1.459410 2.569034
v 0.896844 2.464918 2.465637
v 1.598630 1.459408 2.465637
v 1.457467 1.356073 2.465637
v 0.755681 2.403883 2.465637
v 1.777717 -0.164547 2.700215
v 1.777717 2.373187 2.700215
v 1.442440 2.373187 2.700215
v 1.442440 -0.164547 2.700215
v 1.442440 2.373187 2.364934
v 1.442440 -0.164547 2.364934
v 1.777717 2.373187 2.364934
v 1.777717 -0.164547 2.364934
v -2.231062 2.377357 -3.051832
v -2.231062 2.377357 3.051830
v 0.013960 3.551512 1.184103
v 0.013960 3.551512 -1.179116
v 2.231059 2.377357 3.051830
v 2.231060 2.377357 -3.051832
v -0.457221 0.934998 2.482973
v -1.816906 0.934998 2.482973
v -1.816906 0.804770 2.482973
v -0.457221 0.804770 2.482973
v -0.457220 0.934998 -2.230072
v -1.816906 0.934998 -2.230072
v -1.816906 0.804770 -2.229406
v -0.451699 0.804770 -2.229406
v -0.665562 0.824924 1.536646
v -0.907143 0.824924 1.536646
v -0.907143 -0.164547 1.536646
v -0.665558 -0.164547 1.536646
v -0.665562 0.824924 1.295062
v -0.665558 -0.164547 1.295062
v -0.907143 0.824924 1.295062
v -0.907143 -0.164547 1.295062
v -0.695541 0.824924 -1.189613
v -0.937123 0.824924 -1.189613
v -0.937123 -0.164547 -1.189613
v -0.695541 -0.164547 -1.189613
v -0.695541 0.824924 -1.431196
v -0.695541 -0.164547 -1.431196
v -0.937123 0.824924 -1.431196
v -0.937123 -0.164547 -1.431196
v 0.013960 2.377357 -0.004338
vn 0.536680 0.812277 -0.228432
vn 0.624265 0.218811 0.749943
vn 0.577351 -0.804092 0.141782
vn 0.581137 -0.133497 -0.802782
vn -0.536679 0.812277 -0.228432
vn -0.581140 -0.133497 -0.802780
vn -0.577350 -0.804093 0.141782
vn -0.624261 0.218812 0.749946
vn -0.228431 0.812278 -0.536678
vn 0.749946 0.218811 -0.624262
vn 0.141783 -0.804091 -0.577352
vn -0.802781 -0.133497 -0.581138
vn -0.228430 0.812276 0.536682
vn -0.802780 -0.133497 0.581139
vn 0.141783 -0.804093 0.577349
vn 0.749946 0.218811 0.624262
vn -0.577350 -0.577350 -0.577350
vn -0.577350 0.577350 -0.577350
vn 0.577350 0.577350 -0.577350
vn 0.577350 -0.577350 -0.577350
vn 0.577350 0.577350 0.577350
vn 0.577350 -0.577350 0.577350
vn -0.577350 0.577350 0.577350
vn -0.577350 -0.577350 0.577350
vn 0.577352 -0.804092 -0.141780
vn 0.624265 0.218811 -0.749943
vn 0.536680 0.812277 0.228433
vn 0.581136 -0.133496 0.802783
vn -0.577351 -0.804093 -0.141780
vn -0.581138 -0.133495 0.802781
vn -0.536680 0.812277 0.228432
vn -0.624261 0.218812 -0.749946
vn 0.141783 -0.804091 0.577352
vn -0.228430 0.812278 0.536678
vn -0.802780 -0.133498 0.581139
vn 0.141783 -0.804094 -0.577348
vn -0.802780 -0.133498 -0.581139
vn -0.228430 0.812276 -0.536682
vn -0.577351 -0.804092 0.141781
vn -0.624265 0.218811 0.749943
vn -0.536680 0.812277 -0.228432
vn -0.581136 -0.133497 -0.802782
vn 0.577350 -0.804093 0.141782
vn 0.581140 -0.133497 -0.802780
vn 0.536680 0.812277 -0.228431
vn 0.624261 0.218812 0.749947
vn -0.141783 -0.804091 -0.577352
vn -0.749946 0.218811 -0.624262
vn 0.228431 0.812278 -0.536678
vn 0.802781 -0.133497 -0.581138
vn -0.141783 -0.804093 0.577349
vn 0.802780 -0.133497 0.581139
vn 0.228430 0.812276 0.536682
vn -0.749946 0.218811 0.624262
vn -0.624264 0.218811 -0.749944
vn -0.577352 -0.804092 -0.141780
vn -0.581136 -0.133496 0.802783
vn 0.536680 0.812277 0.228432
vn 0.581138 -0.133496 0.802781
vn 0.577351 -0.804092 -0.141780
vn 0.624261 0.218811 -0.749946
vn 0.228430 0.812279 0.536678
vn -0.141784 -0.804091 0.577351
vn 0.802780 -0.133498 0.581139
vn 0.228430 0.812276 -0.536682
vn 0.802780 -0.133498 -0.581139
vn -0.141784 -0.804093 -0.577348
vn -0.616752 -0.341966 -0.708997
vn -0.615968 -0.342366 0.709485
vn 0.001667 0.981521 0.191347
vn 0.001667 0.981600 -0.190943
vn 0.619125 -0.343798 0.706036
vn 0.619907 -0.343401 -0.705543
vn 0.572882 0.585719 0.573358
vn 0.581404 -0.568662 0.581887
vn 0.574134 0.583930 -0.573930
vn -0.578381 0.575291 -0.578373
vn -0.576325 -0.579404 -0.576316
vn 0.580609 -0.570987 -0.580403
vn 0.577350 0.577352 0.577350
vn 0.577351 -0.577349 0.577351
vn 0.577350 0.577352 -0.577350
vn 0.577351 -0.577349 -0.577351
vn 0.000000 -1.000000 0.000000
vt 0.946903 0.896500
vt 0.984858 0.896500
vt 0.984858 0.637823
vt 0.946903 0.637823
vt 0.625046 0.517956
vt 0.624862 0.988308
vt 0.685107 0.988308
vt 0.685309 0.517956
vt 0.437390 0.516634
vt 0.437261 0.988308
vt 0.499445 0.988308
vt 0.499592 0.516634
vt 0.499470 0.517515
vt 0.499323 0.988308
vt 0.561507 0.988308
vt 0.561672 0.517515
vt 0.562197 0.517075
vt 0.562032 0.989600
vt 0.623570 0.989600
vt 0.623753 0.517075
vt 0.414053 0.171877
vt 0.882584 0.171877
vt 0.732861 0.409725
vt 0.553105 0.409725
vt 0.882584 0.171117
vt 0.414053 0.171117
vt 0.593725 0.989600
vt 0.593900 0.517075
vt 0.375027 1.004874
vt 0.186324 1.004874
vt 0.186327 0.512423
vt 0.375029 0.512424
vt 0.384559 0.512610
vt 0.384556 1.003919
vt 0.195854 1.003918
vt 0.195857 0.512609
vt 0.685107 0.656029
vt 0.624862 0.656029
vt 0.499445 0.656029
vt 0.437261 0.656029
vt 0.561507 0.656029
vt 0.499323 0.656029
vt 0.623570 0.657322
vt 0.562032 0.657322
vt 0.670495 0.526132
vt 0.024350 0.522724
vt 0.347087 0.966380
vt 0.027711 0.526125
vt 0.669220 0.530460
vt 0.559350 0.168170
vt 0.856404 0.168170
vt 0.707060 0.404366
vt 0.559678 0.165094
vt 0.856731 0.165094
vt 0.708290 0.408559
f 1/1/1 2/2/2 3/3/3 4/4/4
f 5/2/5 6/3/6 7/4/7 8/1/8
f 5/1/5 1/2/1 4/3/4 6/4/6
f 7/1/7 3/2/3 2/3/2 8/4/8
f 9/1/9 10/2/10 11/3/11 12/4/12
f 13/2/13 14/3/14 15/4/15 16/1/16
f 13/1/13 9/2/9 12/3/12 14/4/14
f 15/1/15 11/2/11 10/3/10 16/4/16
f 17/5/17 18/6/18 19/7/19 20/8/20
f 20/9/20 19/10/19 21/11/21 22/12/22
f 22/13/22 21/14/21 23/15/23 24/16/24
f 24/17/24 23/18/23 18/19/18 17/20/17
f 22/17/22 24/17/24 17/20/17 20/20/20
f 21/7/21 19/7/19 18/6/18 23/6/23
f 1/2/1 5/2/5 8/1/8 2/1/2
f 16/2/16 10/2/10 9/1/9 13/1/13
f 11/4/11 15/4/15 14/3/14 12/3/12
f 6/4/6 4/4/4 3/3/3 7/3/7
f 25/3/25 26/2/26 27/1/27 28/4/28
f 29/4/29 30/3/30 31/2/31 32/1/32
f 28/3/28 27/2/27 31/1/31 30/4/30
f 26/3/26 25/2/25 29/1/29 32/4/32
f 33/3/33 34/2/16 35/1/34 36/4/35
f 37/4/36 38/3/37 39/2/38 40/1/10
f 36/3/35 35/2/34 39/1/38 38/4/37
f 34/3/16 33/2/33 37/1/36 40/4/10
f 41/7/21 42/6/23 43/5/24 44/8/22
f 45/11/19 41/10/21 44/9/22 46/12/20
f 47/15/18 45/14/19 46/13/20 48/16/17
f 42/19/23 47/18/18 48/17/17 43/20/24
f 43/20/24 48/17/17 46/17/20 44/20/22
f 42/6/23 41/7/21 45/7/19 47/6/18
f 32/1/32 31/2/31 27/2/27 26/1/26
f 35/1/34 34/2/16 40/2/10 39/1/38
f 38/3/37 37/4/36 33/4/33 36/3/35
f 25/3/25 28/4/28 30/4/30 29/3/29
f 49/3/39 50/2/40 51/1/41 52/4/42
f 53/4/43 54/3/44 55/2/45 56/1/46
f 52/3/42 51/2/41 55/1/45 54/4/44
f 50/3/40 49/2/39 53/1/43 56/4/46
f 57/3/47 58/2/48 59/1/49 60/4/50
f 61/4/51 62/3/52 63/2/53 64/1/54
f 60/3/50 59/2/49 63/1/53 62/4/52
f 58/3/48 57/2/47 61/1/51 64/4/54
f 65/7/18 66/6/19 67/5/20 68/8/17
f 69/11/23 65/10/18 68/9/17 70/12/24
f 71/15/21 69/14/23 70/13/24 72/16/22
f 66/19/19 71/18/21 72/17/22 67/20/20
f 67/20/20 72/17/22 70/17/24 68/20/17
f 66/6/19 65/7/18 69/7/23 71/6/21
f 56/1/46 55/2/45 51/2/41 50/1/40
f 59/1/49 58/2/48 64/2/54 63/1/53
f 62/3/52 61/4/51 57/4/47 60/3/50
f 49/3/39 52/4/42 54/4/44 53/3/43
f 73/1/31 74/2/55 75/3/56 76/4/57
f 77/2/58 78/3/59 79/4/60 80/1/61
f 77/1/58 73/2/31 76/3/57 78/4/59
f 79/1/60 75/2/56 74/3/55 80/4/61
f 81/1/62 82/2/54 83/3/63 84/4/64
f 85/2/65 86/3/66 87/4/67 88/1/48
f 85/1/65 81/2/62 84/3/64 86/4/66
f 87/1/67 83/2/63 82/3/54 88/4/48
f 89/5/22 90/6/21 91/7/23 92/8/24
f 92/9/24 91/10/23 93/11/18 94/12/17
f 94/13/17 93/14/18 95/15/19 96/16/20
f 96/17/20 95/18/19 90/19/21 89/20/22
f 94/17/17 96/17/20 89/20/22 92/20/24
f 93/7/18 91/7/23 90/6/21 95/6/19
f 73/2/31 77/2/58 80/1/61 74/1/55
f 88/2/48 82/2/54 81/1/62 85/1/65
f 83/4/63 87/4/67 86/3/66 84/3/64
f 78/4/59 76/4/57 75/3/56 79/3/60
f 97/21/68 98/22/69 99/23/70 100/24/71
f 101/25/72 102/26/73 100/24/71 99/23/70
f 103/20/74 104/19/23 105/27/24 106/28/75
f 104/29/23 103/30/74 107/31/76 108/32/77
f 105/19/24 104/27/23 108/28/77 109/20/78
f 105/33/24 109/34/78 110/35/79 106/36/75
f 106/20/75 110/19/79 107/27/76 103/28/74
f 111/37/80 112/38/23 113/5/24 114/8/81
f 115/39/82 111/40/80 114/9/81 116/12/83
f 117/41/18 115/42/82 116/13/83 118/16/17
f 112/43/23 117/44/18 118/17/17 113/20/24
f 113/20/24 118/17/17 116/17/83 114/20/81
f 112/38/23 111/37/80 115/37/82 117/38/18
f 119/37/21 120/38/23 121/5/24 122/8/22
f 123/39/19 119/40/21 122/9/22 124/12/20
f 125/41/18 123/42/19 124/13/20 126/16/17
f 120/43/23 125/44/18 126/17/17 121/20/24
f 121/20/24 126/17/17 124/17/20 122/20/22
f 120/38/23 119/37/21 123/37/19 125/38/18
f 108/20/77 107/19/76 110/27/79 109/28/78
f 98/45/69 97/46/68 127/47/84
f 101/48/72 98/45/69 127/47/84
f 102/49/73 101/48/72 127/47/84
f 97/46/68 102/49/73 127/47/84
f 98/50/69 101/51/72 99/52/70
f 102/53/73 97/54/68 100/55/71
