#
#
#

mtllib house5-05.mtl


#
# Malla de house5-05
#
g Malla de house5-05


#
# Malla de house5-05_08_-_Default
#
usemtl Malla de house5-05_08_-_Default

v 1.844801 -0.104130 -2.533960
v 1.912167 1.664198 -2.658545
v 1.912167 1.664198 -2.844950
v 1.844801 -0.104130 -2.924202
v 2.098572 1.664198 -2.844950
v 2.235044 -0.104130 -2.924202
v 2.098572 1.664198 -2.658545
v 2.235043 -0.104130 -2.533959
v 1.889765 3.432527 -2.950132
v 1.894605 3.393715 -3.105778
v 2.050250 3.432527 -3.110616
v 2.045410 3.471340 -2.954971
v -2.453318 -0.104130 0.027542
v -2.311936 1.664199 0.035944
v -2.142996 1.664199 -0.042834
v -2.099639 -0.104130 -0.137381
v -2.064217 1.664199 0.126107
v -1.934716 -0.104130 0.216299
v -2.233158 1.664199 0.204884
v -2.288395 -0.104130 0.381222
v -2.057135 3.432527 -0.107588
v -1.914028 3.393714 -0.168980
v -1.843864 3.432527 -0.029964
v -1.986971 3.471340 0.031428
v 1.375727 -0.104130 -0.043672
v 1.510116 1.664198 0.001037
v 1.693690 1.664198 -0.031333
v 1.760040 -0.104130 -0.111437
v 1.726059 1.664198 0.152240
v 1.827805 -0.104130 0.272877
v 1.542486 1.664198 0.184609
v 1.443491 -0.104130 0.340642
v 1.793385 3.432527 -0.071658
v 1.947505 3.393715 -0.093920
v 1.979298 3.432527 0.058520
v 1.825177 3.471340 0.080782
v -2.163930 -0.104130 -2.533960
v -2.096565 1.664199 -2.658545
v -2.096564 1.664199 -2.844950
v -2.163930 -0.104130 -2.924202
v -1.910159 1.664199 -2.844950
v -1.773688 -0.104130 -2.924202
v -1.910159 1.664199 -2.658545
v -1.773688 -0.104130 -2.533960
v -2.118966 3.432527 -2.950133
v -2.114126 3.393715 -3.105778
v -1.958483 3.432527 -3.110616
v -1.963321 3.471340 -2.954971
v -2.716490 1.986949 -2.856891
v -2.716491 2.127162 -2.656645
v 2.716491 2.127162 -2.656644
v 2.716492 1.986949 -2.856888
v -2.716491 1.926917 -2.516433
v 2.716491 1.926918 -2.516431
v -2.716491 1.786705 -2.716678
v 2.716491 1.786705 -2.716675
v 1.866907 2.659751 -2.928574
v -2.031758 2.651408 -2.931874
v -2.031760 3.076488 0.001074
v 1.872929 3.076488 0.000992
v 2.162531 2.077347 -3.111754
v -2.357707 2.086356 -3.108311
v 2.136245 2.336880 0.000958
v -2.384400 2.347746 0.000973
v -1.582256 2.155769 0.001146
v -1.637220 1.869695 -2.278543
v 1.451557 1.878037 -2.275243
v 1.561931 2.155769 0.001118
v -2.031760 2.651408 2.931871
v 1.866907 2.659751 2.928574
v 2.162529 2.077348 3.111754
v -2.357708 2.086356 3.108310
v 1.451556 1.878037 2.275243
v -1.637220 1.869695 2.278542
v 1.912165 1.664198 2.755173
v 1.912165 1.664198 2.568768
v 1.844800 -0.104130 2.444183
v 1.844800 -0.104130 2.834425
v 2.098571 1.664198 2.755173
v 2.235042 -0.104130 2.834425
v 2.098571 1.664198 2.568768
v 2.235042 -0.104130 2.444183
v 1.894603 3.393715 3.016000
v 1.889764 3.432527 2.860355
v 2.050248 3.432527 3.020839
v 2.045408 3.471340 2.865193
v -2.096566 1.664199 2.755173
v -2.096566 1.664199 2.568767
v -2.163931 -0.104130 2.444182
v -2.163931 -0.104130 2.834424
v -1.910160 1.664199 2.755173
v -1.773689 -0.104130 2.834424
v -1.910160 1.664199 2.568767
v -1.773689 -0.104130 2.444182
v -2.114128 3.393715 3.016000
v -2.118967 3.432527 2.860353
v -1.958483 3.432527 3.020838
v -1.963322 3.471340 2.865193
v -2.716492 1.986949 2.533175
v -2.716492 2.127162 2.733420
v 2.716490 2.127162 2.733421
v 2.716491 1.986949 2.533177
v -2.716492 1.926918 2.873633
v 2.716490 1.926918 2.873634
v -2.716492 1.786705 2.673388
v 2.716491 1.786705 2.673390
vn -0.598395 -0.533947 0.597347
vn -0.709794 0.091088 0.698495
vn -0.706071 -0.028072 -0.707584
vn -0.593198 -0.544452 -0.593033
vn 0.711059 0.001062 -0.703131
vn 0.599770 -0.528333 -0.600950
vn 0.701520 0.119545 0.702551
vn 0.604945 -0.517417 0.605245
vn -0.688705 0.601572 0.404718
vn -0.645325 0.405021 -0.647698
vn -0.706071 -0.028072 -0.707584
vn 0.459398 0.495893 -0.736915
vn 0.711059 0.001062 -0.703131
vn 0.484220 0.727698 0.485784
vn -0.709794 0.091088 0.698495
vn -0.688705 0.601572 0.404718
vn 0.459398 0.495892 -0.736915
vn -0.794273 -0.533947 -0.289881
vn -0.933023 0.091088 -0.348097
vn 0.342890 -0.028072 -0.938956
vn 0.286774 -0.544452 -0.788247
vn 0.937760 0.001062 0.347282
vn 0.798119 -0.528333 0.289604
vn -0.340254 0.119545 0.932704
vn -0.292878 -0.517416 0.804054
vn -0.657857 0.601569 -0.453143
vn 0.314287 0.405018 -0.858594
vn 0.342890 -0.028072 -0.938956
vn 0.342890 -0.028072 -0.938956
vn 0.862023 0.495892 0.104916
vn 0.937760 0.001062 0.347282
vn 0.937760 0.001062 0.347282
vn -0.235632 0.727700 0.644151
vn -0.340254 0.119545 0.932704
vn -0.933023 0.091088 -0.348097
vn -0.235632 0.727700 0.644151
vn -0.692184 -0.533947 -0.485574
vn -0.811139 0.091088 -0.577716
vn 0.574224 -0.028072 -0.818217
vn 0.481015 -0.544452 -0.687166
vn 0.815924 0.001062 0.578158
vn 0.695969 -0.528333 0.486304
vn -0.570059 0.119545 0.812860
vn -0.491001 -0.517416 0.700855
vn -0.518165 0.601572 -0.607961
vn 0.525796 0.405023 -0.747994
vn 0.574224 -0.028072 -0.818217
vn 0.805494 0.495893 0.324454
vn 0.815924 0.001062 0.578158
vn -0.394320 0.727698 0.561220
vn 0.525796 0.405022 -0.747994
vn -0.394320 0.727697 0.561220
vn 0.805494 0.495893 0.324454
vn -0.598395 -0.533947 0.597348
vn -0.709795 0.091088 0.698494
vn -0.706071 -0.028072 -0.707584
vn 0.711058 0.001062 -0.703132
vn 0.599770 -0.528333 -0.600950
vn 0.701521 0.119545 0.702551
vn 0.604946 -0.517416 0.605245
vn -0.688706 0.601571 0.404718
vn -0.645325 0.405022 -0.647698
vn -0.706071 -0.028072 -0.707584
vn 0.459397 0.495892 -0.736916
vn 0.711058 0.001062 -0.703132
vn 0.484219 0.727700 0.485783
vn 0.701521 0.119545 0.702551
vn -0.645325 0.405022 -0.647698
vn -0.688706 0.601571 0.404718
vn 0.484219 0.727700 0.485783
vn -0.577350 0.141783 -0.804092
vn -0.577350 0.804092 0.141783
vn 0.577350 0.804092 0.141785
vn 0.577352 0.141782 -0.804091
vn -0.577351 -0.141784 0.804092
vn 0.577349 -0.141784 0.804093
vn -0.577350 -0.804093 -0.141783
vn 0.577350 -0.804093 -0.141781
vn 0.577350 0.804092 0.141785
vn 0.577349 -0.141784 0.804093
vn 0.411571 0.755087 -0.510346
vn -0.386665 0.771128 -0.505817
vn -0.517117 0.855915 0.000040
vn 0.552504 0.833511 0.000038
vn 0.599643 -0.581474 -0.549833
vn -0.589316 -0.569275 -0.573265
vn 0.695969 -0.528333 0.486304
vn -0.692184 -0.533947 -0.485574
vn 0.481015 -0.544452 -0.687166
vn 0.286774 -0.544452 -0.788247
vn -0.292878 -0.517416 0.804054
vn -0.593198 -0.544452 -0.593033
vn 0.411571 0.755087 -0.510346
vn 0.917289 -0.398222 -0.000014
vn -0.386665 0.771128 -0.505817
vn -0.928091 -0.372355 -0.000015
vn -0.155922 -0.987769 -0.000050
vn -0.104655 -0.994481 -0.007406
vn 0.115155 -0.993290 -0.010667
vn 0.171665 -0.985155 -0.000048
vn -0.589316 -0.569275 -0.573265
vn 0.115155 -0.993290 -0.010667
vn -0.386655 0.771102 0.505865
vn 0.411561 0.755063 0.510390
vn 0.599657 -0.581472 0.549820
vn -0.589329 -0.569275 0.573251
vn 0.552504 0.833511 0.000038
vn 0.411561 0.755063 0.510390
vn -0.517117 0.855915 0.000040
vn 0.115162 -0.993290 0.010604
vn -0.104662 -0.994481 0.007340
vn 0.171665 -0.985155 -0.000048
vn 0.599657 -0.581472 0.549820
vn -0.589329 -0.569275 0.573251
vn 0.115162 -0.993290 0.010604
vn 0.171665 -0.985155 -0.000048
vn 0.917289 -0.398222 -0.000014
vn -0.155922 -0.987769 -0.000050
vn -0.928091 -0.372355 -0.000015
vn -0.706072 -0.028072 0.707583
vn -0.709795 0.091088 -0.698495
vn -0.598395 -0.533947 -0.597348
vn -0.593198 -0.544452 0.593033
vn 0.711058 0.001062 0.703132
vn 0.599770 -0.528333 0.600950
vn 0.701520 0.119545 -0.702551
vn 0.604946 -0.517416 -0.605244
vn -0.645327 0.405021 0.647697
vn -0.688706 0.601571 -0.404718
vn 0.459396 0.495893 0.736916
vn -0.706072 -0.028072 0.707583
vn 0.711058 0.001062 0.703132
vn 0.484219 0.727699 -0.485785
vn 0.711058 0.001062 0.703132
vn 0.701520 0.119545 -0.702551
vn -0.709795 0.091088 -0.698495
vn -0.706072 -0.028072 0.707584
vn -0.709794 0.091088 -0.698495
vn -0.598395 -0.533947 -0.597348
vn -0.593198 -0.544452 0.593033
vn 0.711058 0.001062 0.703132
vn 0.599770 -0.528333 0.600950
vn 0.701521 0.119545 -0.702551
vn 0.604946 -0.517416 -0.605244
vn -0.645326 0.405022 0.647697
vn -0.688705 0.601572 -0.404718
vn 0.459397 0.495893 0.736916
vn -0.706072 -0.028072 0.707584
vn 0.484220 0.727698 -0.485784
vn 0.711058 0.001062 0.703132
vn 0.701521 0.119545 -0.702551
vn -0.709794 0.091088 -0.698495
vn -0.593198 -0.544452 0.593033
vn -0.577350 0.141783 -0.804092
vn -0.577350 0.804093 0.141783
vn 0.577350 0.804092 0.141783
vn 0.577351 0.141782 -0.804092
vn -0.577351 -0.141782 0.804092
vn 0.577350 -0.141783 0.804092
vn -0.577350 -0.804092 -0.141783
vn 0.577350 -0.804093 -0.141783
vn -0.577350 0.141783 -0.804092
vn 0.577351 0.141782 -0.804092
vn 0.577350 -0.141783 0.804092
vt 0.890625 0.058594
vt 0.714844 0.058594
vt 0.714844 0.078125
vt 0.890625 0.078125
vt 0.890625 0.007813
vt 0.714844 0.011719
vt 0.714844 0.031250
vt 0.890625 0.031250
vt 0.714844 0.042969
vt 0.890625 0.042969
vt 0.554688 0.058594
vt 0.554688 0.078125
vt 0.554688 0.011719
vt 0.554688 0.031250
vt 0.554688 0.042969
vt 0.949219 0.015625
vt 0.921875 0.046875
vt 0.949219 0.078125
vt 0.980469 0.046875
vt 0.301320 0.032786
vt 0.307691 0.057522
vt 0.615996 0.070011
vt 0.615996 0.032786
vt 0.621412 0.060705
vt 0.616951 0.029603
vt 0.306736 0.023480
vt 0.306736 0.060705
vt 0.619181 0.063767
vt 0.619181 0.026542
vt 0.304505 0.026541
vt 0.304505 0.063767
vt 0.302275 0.029603
vt 0.616951 0.066828
vt 0.955096 0.068521
vt 0.975978 0.067600
vt 0.975235 0.041759
vt 0.954353 0.042679
vt 0.980496 0.028391
vt 0.951982 0.025747
vt 0.949845 0.061032
vt 0.978359 0.063677
vt 0.222325 0.705966
vt 0.720385 0.705102
vt 0.720209 0.940406
vt 0.222500 0.940406
vt 0.222500 0.560634
vt 0.720209 0.560634
vt 0.001477 0.733851
vt 0.557260 0.733850
vt 0.557893 0.562114
vt 0.002311 0.562114
f 1/1/1 2/2/2 3/3/3 4/4/4
f 4/5/4 3/6/3 5/7/5 6/8/6
f 6/8/6 5/7/5 7/9/7 8/10/8
f 8/10/8 7/9/7 2/2/2 1/1/1
f 2/2/2 9/11/9 10/12/10 3/3/11
f 3/6/3 10/13/10 11/14/12 5/7/5
f 5/7/13 11/14/12 12/15/14 7/9/7
f 7/9/7 12/15/14 9/11/9 2/2/15
f 10/16/10 9/17/16 12/18/14 11/19/17
f 13/1/18 14/2/19 15/3/20 16/4/21
f 16/5/21 15/6/20 17/7/22 18/8/23
f 18/8/23 17/7/22 19/9/24 20/10/25
f 20/10/25 19/9/24 14/2/19 13/1/18
f 14/2/19 21/11/26 22/12/27 15/3/28
f 15/6/29 22/13/27 23/14/30 17/7/31
f 17/7/32 23/14/30 24/15/33 19/9/34
f 19/9/24 24/15/33 21/11/26 14/2/35
f 22/16/27 21/17/26 24/18/36 23/19/30
f 25/1/37 26/2/38 27/3/39 28/4/40
f 28/5/40 27/6/39 29/7/41 30/8/42
f 30/8/42 29/7/41 31/9/43 32/10/44
f 32/10/44 31/9/43 26/2/38 25/1/37
f 26/2/38 33/11/45 34/12/46 27/3/47
f 27/6/39 34/13/46 35/14/48 29/7/41
f 29/7/49 35/14/48 36/15/50 31/9/43
f 31/9/43 36/15/50 33/11/45 26/2/38
f 34/16/51 33/17/45 36/18/52 35/19/53
f 37/1/54 38/2/55 39/3/56 40/4/4
f 40/5/4 39/6/56 41/7/57 42/8/58
f 42/8/58 41/7/57 43/9/59 44/10/60
f 44/10/60 43/9/59 38/2/55 37/1/54
f 38/2/55 45/11/61 46/12/62 39/3/56
f 39/6/63 46/13/62 47/14/64 41/7/57
f 41/7/65 47/14/64 48/15/66 43/9/59
f 43/9/67 48/15/66 45/11/61 38/2/55
f 46/16/68 45/17/69 48/18/70 47/19/64
f 49/20/71 50/21/72 51/22/73 52/23/74
f 50/24/72 53/25/75 54/26/76 51/27/73
f 53/28/75 55/29/77 56/30/78 54/31/76
f 55/32/77 49/27/71 52/33/74 56/25/78
f 53/34/75 50/35/72 49/36/71 55/37/77
f 52/38/74 51/39/79 54/40/80 56/41/78
f 57/42/81 58/43/82 59/44/83 60/45/84
f 58/43/82 57/42/81 61/46/85 62/47/86
f 30/8/87 32/10/44 25/10/88 28/8/89
f 6/8/6 8/10/8 1/10/1 4/8/4
f 16/5/90 18/8/23 20/8/91 13/5/18
f 42/8/58 44/10/60 37/10/54 40/8/92
f 57/48/93 60/49/84 63/50/94 61/51/85
f 59/48/83 58/49/95 62/50/86 64/51/96
f 65/44/97 66/43/98 67/42/99 68/45/100
f 61/46/85 67/42/99 66/43/98 62/47/101
f 63/50/94 68/49/100 67/48/102 61/51/85
f 62/50/86 66/49/98 65/48/97 64/51/96
f 59/44/83 69/43/103 70/42/104 60/45/84
f 71/46/105 70/42/104 69/43/103 72/47/106
f 63/50/94 60/49/107 70/48/108 71/51/105
f 72/50/106 69/49/103 59/48/109 64/51/96
f 73/42/110 74/43/111 65/44/97 68/45/112
f 74/43/111 73/42/110 71/46/113 72/47/114
f 73/48/115 68/49/116 63/50/117 71/51/113
f 65/48/118 74/49/111 72/50/106 64/51/119
f 75/3/120 76/2/121 77/1/122 78/4/123
f 79/7/124 75/6/120 78/5/123 80/8/125
f 81/9/126 79/7/124 80/8/125 82/10/127
f 76/2/121 81/9/126 82/10/127 77/1/122
f 83/12/128 84/11/129 76/2/121 75/3/120
f 85/14/130 83/13/128 75/6/131 79/7/132
f 86/15/133 85/14/130 79/7/134 81/9/135
f 84/11/129 86/15/133 81/9/135 76/2/136
f 86/18/133 84/17/129 83/16/128 85/19/130
f 87/3/137 88/2/138 89/1/139 90/4/140
f 91/7/141 87/6/137 90/5/140 92/8/142
f 93/9/143 91/7/141 92/8/142 94/10/144
f 88/2/138 93/9/143 94/10/144 89/1/139
f 95/12/145 96/11/146 88/2/138 87/3/137
f 97/14/147 95/13/145 87/6/148 91/7/141
f 98/15/149 97/14/147 91/7/150 93/9/143
f 96/11/146 98/15/149 93/9/151 88/2/152
f 98/18/149 96/17/146 95/16/145 97/19/147
f 77/10/122 82/10/127 80/8/125 78/8/123
f 89/10/139 94/10/144 92/8/142 90/8/153
f 99/20/154 100/21/155 101/22/156 102/23/157
f 100/24/155 103/25/158 104/26/159 101/27/156
f 103/28/158 105/29/160 106/30/161 104/31/159
f 105/32/160 99/27/154 102/33/157 106/25/161
f 103/34/158 100/35/155 99/36/162 105/37/160
f 102/38/163 101/39/156 104/40/164 106/41/161
