{
    "accessors" : [
        {
            "bufferView" : 0,
            "componentType" : 5123,
            "count" : 2844,
            "max" : [
                1078
            ],
            "min" : [
                0
            ],
            "type" : "SCALAR"
        },
        {
            "bufferView" : 1,
            "componentType" : 5126,
            "count" : 1079,
            "max" : [
                2.959327220916748,
                1.1433169841766357,
                2.960960865020752
            ],
            "min" : [
                -2.961258888244629,
                -1.050970196723938,
                -2.959625482559204
            ],
            "type" : "VEC3"
        },
        {
            "bufferView" : 2,
            "componentType" : 5126,
            "count" : 1079,
            "max" : [
                0.9407025575637817,
                0.999969482421875,
                0.9405194520950317
            ],
            "min" : [
                -0.9405194520950317,
                -0.9999999403953552,
                -0.9405804872512817
            ],
            "type" : "VEC3"
        },
        {
            "bufferView" : 3,
            "componentType" : 5126,
            "count" : 1079,
            "max" : [
                0.0,
                1.0
            ],
            "min" : [
                0.0,
                1.0
            ],
            "type" : "VEC2"
        },
        {
            "bufferView" : 4,
            "componentType" : 5123,
            "count" : 480,
            "max" : [
                183
            ],
            "min" : [
                0
            ],
            "type" : "SCALAR"
        },
        {
            "bufferView" : 5,
            "componentType" : 5126,
            "count" : 184,
            "max" : [
                1.0000003576278687,
                0.5555701851844788,
                0.9999998211860657
            ],
            "min" : [
                -1.0,
                -0.38268327713012695,
                -1.000000238418579
            ],
            "type" : "VEC3"
        },
        {
            "bufferView" : 6,
            "componentType" : 5126,
            "count" : 184,
            "max" : [
                1.0,
                0.5527512431144714,
                1.0
            ],
            "min" : [
                -1.0,
                -0.3805353045463562,
                -1.0
            ],
            "type" : "VEC3"
        },
        {
            "bufferView" : 7,
            "componentType" : 5126,
            "count" : 184,
            "max" : [
                0.543521523475647,
                1.0
            ],
            "min" : [
                0.024323787540197372,
                0.5985186100006104
            ],
            "type" : "VEC2"
        },
        {
            "bufferView" : 8,
            "componentType" : 5123,
            "count" : 16302,
            "max" : [
                9814
            ],
            "min" : [
                0
            ],
            "type" : "SCALAR"
        },
        {
            "bufferView" : 9,
            "componentType" : 5126,
            "count" : 9815,
            "max" : [
                3.004411220550537,
                1.2410686016082764,
                3.006044864654541
            ],
            "min" : [
                -3.006342887878418,
                -1.050970196723938,
                -3.004709243774414
            ],
            "type" : "VEC3"
        },
        {
            "bufferView" : 10,
            "componentType" : 5126,
            "count" : 9815,
            "max" : [
                1.0,
                1.0,
                1.0
            ],
            "min" : [
                -1.0,
                -1.0,
                -1.0
            ],
            "type" : "VEC3"
        },
        {
            "bufferView" : 11,
            "componentType" : 5126,
            "count" : 9815,
            "max" : [
                1.0,
                1.0
            ],
            "min" : [
                0.0,
                0.0
            ],
            "type" : "VEC2"
        },
        {
            "bufferView" : 12,
            "componentType" : 5123,
            "count" : 204,
            "max" : [
                78
            ],
            "min" : [
                0
            ],
            "type" : "SCALAR"
        },
        {
            "bufferView" : 13,
            "componentType" : 5126,
            "count" : 79,
            "max" : [
                0.8018122315406799,
                -0.5555701851844788,
                0.8018117547035217
            ],
            "min" : [
                -0.8018121719360352,
                -0.5707131028175354,
                -0.8018122911453247
            ],
            "type" : "VEC3"
        },
        {
            "bufferView" : 14,
            "componentType" : 5126,
            "count" : 79,
            "max" : [
                0.8947721719741821,
                0.9904782176017761,
                0.8947721719741821
            ],
            "min" : [
                -0.8947721719741821,
                -0.9121982455253601,
                -0.8947721719741821
            ],
            "type" : "VEC3"
        },
        {
            "bufferView" : 15,
            "componentType" : 5126,
            "count" : 79,
            "max" : [
                0.20275530219078064,
                1.0
            ],
            "min" : [
                0.0,
                0.537895530462265
            ],
            "type" : "VEC2"
        }
    ],
    "asset" : {
        "generator" : "Khronos Blender glTF 2.0 exporter",
        "version" : "2.0"
    },
    "bufferViews" : [
        {
            "buffer" : 0,
            "byteLength" : 5688,
            "byteOffset" : 0,
            "target" : 34963
        },
        {
            "buffer" : 0,
            "byteLength" : 12948,
            "byteOffset" : 5688,
            "target" : 34962
        },
        {
            "buffer" : 0,
            "byteLength" : 12948,
            "byteOffset" : 18636,
            "target" : 34962
        },
        {
            "buffer" : 0,
            "byteLength" : 8632,
            "byteOffset" : 31584,
            "target" : 34962
        },
        {
            "buffer" : 0,
            "byteLength" : 960,
            "byteOffset" : 40216,
            "target" : 34963
        },
        {
            "buffer" : 0,
            "byteLength" : 2208,
            "byteOffset" : 41176,
            "target" : 34962
        },
        {
            "buffer" : 0,
            "byteLength" : 2208,
            "byteOffset" : 43384,
            "target" : 34962
        },
        {
            "buffer" : 0,
            "byteLength" : 1472,
            "byteOffset" : 45592,
            "target" : 34962
        },
        {
            "buffer" : 0,
            "byteLength" : 32604,
            "byteOffset" : 47064,
            "target" : 34963
        },
        {
            "buffer" : 0,
            "byteLength" : 117780,
            "byteOffset" : 79668,
            "target" : 34962
        },
        {
            "buffer" : 0,
            "byteLength" : 117780,
            "byteOffset" : 197448,
            "target" : 34962
        },
        {
            "buffer" : 0,
            "byteLength" : 78520,
            "byteOffset" : 315228,
            "target" : 34962
        },
        {
            "buffer" : 0,
            "byteLength" : 408,
            "byteOffset" : 393748,
            "target" : 34963
        },
        {
            "buffer" : 0,
            "byteLength" : 948,
            "byteOffset" : 394156,
            "target" : 34962
        },
        {
            "buffer" : 0,
            "byteLength" : 948,
            "byteOffset" : 395104,
            "target" : 34962
        },
        {
            "buffer" : 0,
            "byteLength" : 632,
            "byteOffset" : 396052,
            "target" : 34962
        }
    ],
    "buffers" : [
        {
            "byteLength" : 396684,
            "uri" : "cohete.bin"
        }
    ],
    "materials" : [
        {
            "name" : "Material.003",
            "pbrMetallicRoughness" : {
                "baseColorFactor" : [
                    0.6950997933015195,
                    0.005241207111495838,
                    0.00786711510817878,
                    1.0
                ],
                "metallicFactor" : 0.0
            }
        },
        {
            "name" : "Blanco",
            "pbrMetallicRoughness" : {
                "baseColorFactor" : [
                    0.7523044698283741,
                    0.7523044698283741,
                    0.7523044698283741,
                    1.0
                ],
                "metallicFactor" : 0.0
            }
        },
        {
            "name" : "Negro.002",
            "pbrMetallicRoughness" : {
                "baseColorFactor" : [
                    0.0,
                    0.0,
                    0.0,
                    1.0
                ],
                "metallicFactor" : 0.0
            }
        }
    ],
    "meshes" : [
        {
            "name" : "Sphere",
            "primitives" : [
                {
                    "attributes" : {
                        "NORMAL" : 2,
                        "POSITION" : 1,
                        "TEXCOORD_0" : 3
                    },
                    "indices" : 0
                },
                {
                    "attributes" : {
                        "NORMAL" : 6,
                        "POSITION" : 5,
                        "TEXCOORD_0" : 7
                    },
                    "indices" : 4,
                    "material" : 1
                },
                {
                    "attributes" : {
                        "NORMAL" : 10,
                        "POSITION" : 9,
                        "TEXCOORD_0" : 11
                    },
                    "indices" : 8,
                    "material" : 0
                },
                {
                    "attributes" : {
                        "NORMAL" : 14,
                        "POSITION" : 13,
                        "TEXCOORD_0" : 15
                    },
                    "indices" : 12,
                    "material" : 2
                }
            ]
        }
    ],
    "nodes" : [
        {
            "name" : "Camera",
            "rotation" : [
                0.48170700669288635,
                0.3342514932155609,
                -0.21292175352573395,
                0.7816000580787659
            ],
            "scale" : [
                1.0,
                1.0,
                0.9999999403953552
            ],
            "translation" : [
                13.747323036193848,
                3.390946388244629,
                10.39626693725586
            ]
        },
        {
            "mesh" : 0,
            "name" : "Cohete",
            "rotation" : [
                -0.0,
                1.0,
                0.0,
                0.0
            ],
            "scale" : [
                -1.0,
                -5.768732070922852,
                -1.0
            ],
            "translation" : [
                3.857966899871826,
                7.075228691101074,
                2.8468337059020996
            ]
        },
        {
            "name" : "Punto",
            "translation" : [
                7.576693534851074,
                6.822551727294922,
                15.90501880645752
            ]
        }
    ],
    "scene" : 0,
    "scenes" : [
        {
            "name" : "Scene",
            "nodes" : [
                2,
                1,
                0
            ]
        }
    ]
}
