#
#
#

mtllib house7-03.mtl


#
# 
#
g 


#
# __7
#
usemtl __7

v -1.565059 0.000575 -3.711928
v -1.565059 0.000575 3.672360
v -1.565059 3.198092 3.672360
v -1.565059 3.198092 -3.711928
v 2.431405 0.000575 3.672360
v 2.431403 3.198092 3.672360
v 2.431403 0.000575 -3.711928
v 2.431403 3.198092 -3.711928
v -1.811851 3.198092 4.015087
v -1.811851 3.198092 -4.045979
v 2.650273 3.198092 4.015087
v 2.650273 3.198092 -4.045979
v 0.433172 5.066569 2.147360
v 0.433172 5.066569 -2.173263
v -1.697827 1.221853 -1.603625
v -1.697827 2.492971 -1.603625
v -1.697826 2.492971 -2.608200
v -1.697827 1.221853 -2.608200
v -1.548921 1.178808 -1.547570
v -1.548920 2.536014 -1.547570
v -1.548920 2.536014 -2.652133
v -1.548920 1.178808 -2.652133
v -0.106582 1.218429 -3.831920
v -0.106582 2.489546 -3.831920
v 0.897992 2.489546 -3.831919
v 0.897992 1.218429 -3.831920
v -0.162636 1.175385 -3.683017
v -0.162636 2.532590 -3.683016
v 0.941925 2.532590 -3.683016
v 0.941925 1.175385 -3.683016
v 2.562552 1.218429 1.242813
v 2.562552 2.489546 1.242813
v 2.562551 2.489546 2.247387
v 2.562552 1.218429 2.247387
v 2.413649 1.175385 1.186758
v 2.413649 2.532590 1.186758
v 2.413649 2.532590 2.291320
v 2.413649 1.175385 2.291320
v 1.080790 1.218429 3.780473
v 1.080790 2.489546 3.780473
v 0.076217 2.489546 3.780473
v 0.076217 1.218429 3.780473
v 1.136845 1.175385 3.631571
v 1.136845 2.532590 3.631570
v 0.032284 2.532590 3.631570
v 0.032284 1.175385 3.631570
v -1.743576 0.660968 -0.706848
v -1.743576 0.660968 0.662126
v -1.743577 2.782855 0.662126
v -1.743577 2.782855 -0.706848
v -1.519687 0.660968 0.730575
v -1.519687 2.822954 0.730575
v -1.519687 2.822954 -0.775295
v -1.519687 0.660968 -0.775295
v 2.562552 1.218429 -2.274677
v 2.562552 2.489546 -2.274677
v 2.562551 2.489546 -1.270102
v 2.562552 1.218429 -1.270102
v 2.413649 1.175385 -2.330731
v 2.413649 2.532590 -2.330731
v 2.413649 2.532590 -1.226170
v 2.413649 1.175385 -1.226170
v -1.697827 1.221853 2.635009
v -1.697827 2.492971 2.635009
v -1.697826 2.492971 1.630434
v -1.697827 1.221853 1.630434
v -1.548921 1.178808 2.691064
v -1.548920 2.536014 2.691065
v -1.548920 2.536014 1.586501
v -1.548920 1.178808 1.586501
v -2.144753 0.703790 -0.102851
v 3.001530 0.703790 -0.102851
v 3.001530 0.703790 -4.102060
v -2.144753 0.703790 -4.102060
v -2.144753 0.526063 -0.102186
v -2.144753 0.526063 -4.102060
v 3.001530 0.703790 4.102058
v -2.144753 0.703790 4.102058
v -2.144753 0.526063 4.102058
v 3.001530 0.526063 4.102058
v 3.001530 0.526063 -4.102060
v 3.022427 0.526063 -0.102186
v -3.022425 -0.100737 -0.649521
v -2.590230 -0.099877 -0.649521
v -2.130989 0.503454 -0.649521
v -2.130989 0.784354 -0.649521
v -3.022425 -0.100737 -0.935218
v -2.130989 0.784354 -0.935218
v -2.130989 0.503454 -0.935218
v -2.590230 -0.099877 -0.935218
v -3.022425 -0.100737 0.797675
v -2.590230 -0.099877 0.797675
v -2.130989 0.503454 0.797675
v -2.130989 0.784354 0.797675
v -3.022425 -0.100737 0.531084
v -2.130989 0.784354 0.531086
v -2.130989 0.503454 0.531086
v -2.590230 -0.099877 0.531086
v -2.223724 0.422854 0.545056
v -2.223724 0.422854 -0.654062
v -2.510666 0.422854 -0.654062
v -2.510666 0.422854 0.545056
v -2.510666 0.344066 -0.654062
v -2.510666 0.344066 0.545056
v -2.223724 0.341884 0.545056
v -2.221750 0.344066 -0.654062
v -2.512650 0.186508 0.545056
v -2.512650 0.186508 -0.654062
v -2.799592 0.186508 -0.654062
v -2.799592 0.186508 0.545056
v -2.799592 0.107720 -0.654062
v -2.799592 0.107720 0.545056
v -2.512650 0.105537 0.545056
v -2.510681 0.107720 -0.654062
v -1.713924 0.549608 4.000017
v -2.049201 0.549609 4.000017
v -2.049201 -0.074948 4.000017
v -1.713924 -0.074948 4.000017
v -1.713924 0.549608 3.664735
v -1.713924 -0.074948 3.664735
v -2.049201 0.549609 3.664735
v -2.049201 -0.074948 3.664735
v 2.911804 0.549608 4.000017
v 2.576528 0.549608 4.000017
v 2.576528 -0.074949 4.000017
v 2.911804 -0.074949 4.000017
v 2.911804 0.549608 3.664735
v 2.911804 -0.074949 3.664735
v 2.576528 0.549608 3.664735
v 2.576528 -0.074949 3.664735
v -1.713924 0.549608 1.282654
v -2.049201 0.549609 1.282654
v -2.049201 -0.074948 1.282654
v -1.713924 -0.074948 1.282654
v -1.713924 0.549608 0.947374
v -1.713924 -0.074948 0.947374
v -2.049201 0.549609 0.947374
v -2.049201 -0.074948 0.947374
v 2.911804 0.549608 1.282654
v 2.576528 0.549608 1.282654
v 2.576528 -0.074949 1.282654
v 2.911804 -0.074949 1.282654
v 2.911804 0.549608 0.947374
v 2.911804 -0.074949 0.947374
v 2.576528 0.549608 0.947374
v 2.576528 -0.074949 0.947374
v -1.713924 0.549608 -1.107600
v -2.049201 0.549609 -1.107600
v -2.049201 -0.074948 -1.107600
v -1.713924 -0.074948 -1.107600
v -1.713924 0.549608 -1.442880
v -1.713924 -0.074948 -1.442880
v -2.049201 0.549609 -1.442880
v -2.049201 -0.074948 -1.442880
v 2.911804 0.549608 -1.107600
v 2.576528 0.549608 -1.107600
v 2.576528 -0.074949 -1.107600
v 2.911804 -0.074949 -1.107600
v 2.911804 0.549608 -1.442880
v 2.911804 -0.074949 -1.442880
v 2.576528 0.549608 -1.442880
v 2.576528 -0.074949 -1.442880
v -1.713924 0.549608 -3.677365
v -2.049201 0.549609 -3.677365
v -2.049201 -0.074948 -3.677365
v -1.713924 -0.074948 -3.677365
v -1.713924 0.549608 -4.012646
v -1.713924 -0.074948 -4.012646
v -2.049201 0.549609 -4.012646
v -2.049201 -0.074948 -4.012646
v 2.911804 0.549608 -3.677365
v 2.576528 0.549608 -3.677365
v 2.576528 -0.074949 -3.677365
v 2.911804 -0.074949 -3.677365
v 2.911804 0.549608 -4.012646
v 2.911804 -0.074949 -4.012646
v 2.576528 0.549608 -4.012646
v 2.576528 -0.074949 -4.012646
vn -0.577350 -0.577350 -0.577350
vn -0.577350 -0.577350 0.577350
vn -0.408248 -0.816497 0.408248
vn -0.408248 -0.816497 -0.408248
vn 0.577350 -0.577350 0.577350
vn 0.408248 -0.816497 0.408248
vn 0.577350 -0.577350 -0.577350
vn 0.408248 -0.816497 -0.408248
vn -0.587793 -0.481858 0.649856
vn -0.588369 -0.481464 -0.649626
vn 0.589592 -0.483410 0.647068
vn 0.590167 -0.483018 -0.646835
vn 0.002011 0.953605 0.301054
vn 0.002010 0.953757 -0.300573
vn -0.772204 -0.455110 0.443368
vn -0.772203 0.455112 0.443369
vn -0.754510 0.464439 -0.463693
vn -0.754512 -0.464437 -0.463692
vn 0.265937 -0.690493 0.672679
vn 0.265942 0.690492 0.672678
vn 0.307908 0.673294 -0.672211
vn 0.307904 -0.673294 -0.672213
vn -0.772205 -0.455110 0.443368
vn -0.443368 -0.455109 -0.772205
vn -0.443369 0.455111 -0.772204
vn 0.463691 0.464437 -0.754513
vn 0.463690 -0.464435 -0.754514
vn -0.672680 -0.690493 0.265936
vn -0.672679 0.690492 0.265939
vn 0.672213 0.673295 0.307902
vn 0.672214 -0.673295 0.307899
vn 0.772207 -0.455108 -0.443366
vn 0.772206 0.455109 -0.443366
vn 0.754514 0.464436 0.463690
vn 0.754515 -0.464434 0.463689
vn -0.265931 -0.690494 -0.672680
vn -0.265934 0.690494 -0.672679
vn -0.307900 0.673295 0.672214
vn -0.307897 -0.673296 0.672215
vn 0.443366 -0.455107 0.772207
vn 0.443366 0.455109 0.772206
vn -0.463690 0.464436 0.754514
vn -0.463690 -0.464434 0.754515
vn 0.672680 -0.690494 -0.265930
vn 0.672679 0.690494 -0.265933
vn -0.672213 0.673295 -0.307901
vn -0.672214 -0.673295 -0.307898
vn -0.682585 -0.528168 -0.505091
vn -0.682586 -0.528167 0.505089
vn -0.730651 0.489700 0.475755
vn -0.730650 0.489701 -0.475757
vn 0.455329 -0.643454 0.615339
vn 0.361046 0.668866 0.649819
vn 0.361048 0.668865 -0.649819
vn 0.455331 -0.643453 -0.615339
vn -0.682586 -0.528168 0.505089
vn 0.772205 -0.455109 -0.443368
vn 0.772204 0.455110 -0.443368
vn 0.754512 0.464437 0.463692
vn 0.754513 -0.464435 0.463691
vn -0.265935 -0.690493 -0.672680
vn -0.265938 0.690493 -0.672679
vn -0.307904 0.673294 0.672213
vn -0.307902 -0.673294 0.672214
vn -0.772206 -0.455109 0.443367
vn -0.772204 0.455111 0.443368
vn 0.265934 -0.690494 0.672679
vn 0.265939 0.690493 0.672678
vn -0.707107 0.707107 -0.000000
vn 0.686042 0.727562 -0.000044
vn 0.564927 0.599114 -0.567380
vn -0.577350 0.577351 -0.577350
vn -0.707107 -0.707107 -0.000000
vn 0.564948 0.599142 0.567330
vn -0.577350 0.577350 0.577350
vn -0.577350 -0.577351 0.577350
vn 0.587466 -0.553942 0.589942
vn 0.587438 -0.553921 -0.589989
vn 0.727559 -0.686045 -0.000046
vn -0.559312 -0.231157 0.796076
vn 0.388568 -0.782138 0.487109
vn 0.838036 -0.282662 0.466688
vn 0.234223 0.562622 0.792841
vn -0.559312 -0.231157 -0.796076
vn 0.234224 0.562622 -0.792841
vn 0.838036 -0.282662 -0.466688
vn 0.388568 -0.782138 -0.487109
vn -0.559311 -0.231158 -0.796076
vn 0.234225 0.562621 -0.792841
vn 0.838036 -0.282662 -0.466687
vn 0.574785 0.581930 0.575308
vn 0.575102 0.582251 -0.574666
vn -0.577350 0.577350 -0.577350
vn -0.578631 -0.576443 -0.576974
vn -0.578983 -0.576793 0.576271
vn 0.578254 -0.573322 0.580452
vn 0.578223 -0.573291 -0.580512
vn 0.574791 0.581920 0.575313
vn 0.575107 0.582240 -0.574672
vn -0.578632 -0.576443 -0.576974
vn 0.578249 -0.573333 0.580446
vn 0.578217 -0.573302 -0.580508
vn 0.577350 0.577350 0.577350
vn 0.577350 0.577350 -0.577350
vn 0.589592 -0.483410 0.647067
vt 0.045248 0.506182
vt 0.973937 0.506182
vt 0.973937 0.987183
vt 0.045248 0.987183
vt 0.045825 0.501378
vt 0.903870 0.501378
vt 0.903870 0.989917
vt 0.045825 0.989917
vt 0.903870 0.989024
vt 0.045825 0.989024
vt 1.217833 0.690526
vt -0.095311 0.690260
vt -0.177985 0.518483
vt 1.292462 0.517459
vt 0.937413 0.639206
vt -0.029982 0.633530
vt -0.077128 0.517348
vt 1.160884 0.518096
vt 1.598460 0.597035
vt -0.600769 0.597035
vt -0.718857 0.515370
vt 1.741143 0.515370
vt 1.235817 0.630566
vt 0.020128 0.630566
vt -0.267605 0.534294
vt 1.302395 0.534294
vt 0.414053 0.171877
vt 0.882584 0.171877
vt 0.776636 0.409725
vt 0.540976 0.409725
vt 0.882584 0.171117
vt 0.414053 0.171117
vt 0.307181 0.007331
vt 0.565781 0.007331
vt 0.565781 0.163266
vt 0.307181 0.163266
vt 0.565781 0.029651
vt 0.307181 0.029651
vt 0.013236 0.041373
vt 0.275130 0.041373
vt 0.275130 0.480534
vt 0.013236 0.480534
vt 0.013236 0.452405
vt 0.053611 0.452405
vt 0.053611 0.041373
vt 0.873446 0.587544
vt 0.873446 0.996008
vt 0.250280 0.996008
vt 0.250280 0.587544
vt 0.623753 0.517075
vt 0.593900 0.517075
vt 0.593725 0.989600
vt 0.623570 0.989600
vt 0.874401 1.005537
vt 0.002171 1.005537
vt 0.002171 0.592944
vt 0.874401 0.592944
vt 0.874401 0.597073
vt 0.250094 1.005537
vt 0.250094 0.597073
vt 0.002390 0.587544
vt 0.002390 0.996008
vt 0.749802 0.993535
vt 0.686319 0.902071
vt 0.688794 0.762053
vt 0.750006 0.723306
vt 0.751647 0.711449
vt 0.750870 0.969907
vt 0.690807 0.931694
vt 0.691179 0.797750
vt 0.497624 0.939349
vt 0.497624 0.554469
vt 0.561736 0.554469
vt 0.561736 0.939349
vt 0.686036 0.848218
vt 0.625994 0.762105
vt 0.623978 0.627342
vt 0.679869 0.588207
vt 0.687665 0.572472
vt 0.681498 0.832483
vt 0.625607 0.793348
vt 0.627623 0.658585
vt 0.434545 0.941531
vt 0.434545 0.639874
vt 0.498432 0.639874
vt 0.498432 0.941531
vt 0.371544 0.938579
vt 0.371543 0.650760
vt 0.438160 0.650760
vt 0.438160 0.938579
vt 0.685107 0.656029
vt 0.624862 0.656029
vt 0.625046 0.517956
vt 0.685309 0.517956
vt 0.499445 0.656029
vt 0.437261 0.656029
vt 0.437390 0.516634
vt 0.499592 0.516634
vt 0.561507 0.656029
vt 0.499323 0.656029
vt 0.499470 0.517515
vt 0.561672 0.517515
vt 0.623570 0.657322
vt 0.562032 0.657322
vt 0.562197 0.517075
vt 0.971455 0.507749
vt 0.971455 0.988031
vt 0.032061 0.988031
vt 0.032061 0.507749
vt 0.434563 0.173444
vt 0.886084 0.173444
vt 0.666624 0.360414
vt 0.435061 0.170368
vt 0.886582 0.170368
vt 0.660821 0.396253
f 1/1/1 2/2/2 3/3/3 4/4/4
f 2/5/2 5/6/5 6/7/6 3/8/3
f 5/5/5 7/6/7 8/9/8 6/10/6
f 7/5/7 1/6/1 4/7/4 8/8/8
f 4/11/4 3/12/3 9/13/9 10/14/10
f 3/15/3 6/16/6 11/17/11 9/18/9
f 6/19/6 8/20/8 12/21/12 11/22/11
f 8/23/8 4/24/4 10/25/10 12/26/12
f 10/27/10 9/28/9 13/29/13 14/30/14
f 11/31/11 12/32/12 14/30/14 13/29/13
f 15/33/15 16/34/16 17/35/17 18/36/18
f 19/33/19 20/34/20 16/37/16 15/38/15
f 20/33/20 21/34/21 17/37/17 16/38/16
f 21/33/21 22/34/22 18/37/18 17/38/17
f 22/33/22 19/34/19 15/37/23 18/38/18
f 20/33/20 19/34/19 22/35/22 21/36/21
f 23/33/24 24/34/25 25/35/26 26/36/27
f 27/33/28 28/34/29 24/37/25 23/38/24
f 28/33/29 29/34/30 25/37/26 24/38/25
f 29/33/30 30/34/31 26/37/27 25/38/26
f 30/33/31 27/34/28 23/37/24 26/38/27
f 28/33/29 27/34/28 30/35/31 29/36/30
f 31/33/32 32/34/33 33/35/34 34/36/35
f 35/33/36 36/34/37 32/37/33 31/38/32
f 36/33/37 37/34/38 33/37/34 32/38/33
f 37/33/38 38/34/39 34/37/35 33/38/34
f 38/33/39 35/34/36 31/37/32 34/38/35
f 36/33/37 35/34/36 38/35/39 37/36/38
f 39/33/40 40/34/41 41/35/42 42/36/43
f 43/33/44 44/34/45 40/37/41 39/38/40
f 44/33/45 45/34/46 41/37/42 40/38/41
f 45/33/46 46/34/47 42/37/43 41/38/42
f 46/33/47 43/34/44 39/37/40 42/38/43
f 44/33/45 43/34/44 46/35/47 45/36/46
f 47/39/48 48/40/49 49/41/50 50/42/51
f 51/39/52 52/43/53 49/44/50 48/45/49
f 52/43/53 53/39/54 50/45/51 49/44/50
f 53/43/54 54/39/55 47/45/48 50/44/51
f 53/42/54 52/41/53 51/40/52 54/39/55
f 48/43/56 47/39/48 54/45/55 51/44/52
f 55/33/57 56/34/58 57/35/59 58/36/60
f 59/33/61 60/34/62 56/37/58 55/38/57
f 60/33/62 61/34/63 57/37/59 56/38/58
f 61/33/63 62/34/64 58/37/60 57/38/59
f 62/33/64 59/34/61 55/37/57 58/38/60
f 60/33/62 59/34/61 62/35/64 61/36/63
f 63/33/65 64/34/66 65/35/17 66/36/18
f 67/33/67 68/34/68 64/37/66 63/38/65
f 68/33/68 69/34/21 65/37/17 64/38/66
f 69/33/21 70/34/22 66/37/18 65/38/17
f 70/33/22 67/34/67 63/37/65 66/38/18
f 68/33/68 67/34/67 70/35/22 69/36/21
f 71/46/69 72/47/70 73/48/71 74/49/72
f 75/50/73 71/51/69 74/52/72 76/53/1
f 77/54/74 78/55/75 79/56/76 80/57/77
f 74/54/72 73/55/71 81/56/78 76/57/1
f 78/58/75 77/54/74 72/59/70 71/60/69
f 79/53/76 78/52/75 71/51/69 75/50/73
f 75/61/73 76/46/1 81/47/78 82/62/79
f 79/61/76 75/46/73 82/47/79 80/62/77
f 82/50/79 81/53/78 73/53/71 72/50/70
f 80/53/77 82/50/79 72/50/70 77/53/74
f 83/63/80 84/64/81 85/65/82 86/66/83
f 87/67/84 88/68/85 89/69/86 90/70/87
f 90/71/87 89/72/86 85/73/82 84/74/81
f 88/71/85 87/72/84 83/73/80 86/74/83
f 91/75/80 92/76/81 93/77/82 94/78/83
f 95/79/88 96/80/89 97/81/90 98/82/87
f 98/71/87 97/72/90 93/73/82 92/74/81
f 96/71/89 95/72/88 91/73/80 94/74/83
f 99/83/91 100/84/92 101/85/93 102/86/75
f 102/87/75 101/88/93 103/89/94 104/90/95
f 87/71/84 90/72/87 84/73/81 83/74/80
f 95/71/88 98/72/87 92/73/81 91/74/80
f 94/72/83 93/73/82 97/74/90 96/71/89
f 86/74/83 85/71/82 89/72/86 88/73/85
f 99/83/91 102/86/75 104/86/95 105/83/96
f 104/90/95 103/89/94 106/89/97 105/90/96
f 105/90/96 106/89/97 100/89/92 99/90/91
f 106/89/97 103/89/94 101/89/93 100/89/92
f 107/83/98 108/84/99 109/85/93 110/86/75
f 110/87/75 109/88/93 111/89/100 112/90/95
f 107/83/98 110/86/75 112/86/95 113/83/101
f 112/90/95 111/89/100 114/89/102 113/90/101
f 113/90/101 114/89/102 108/89/99 107/90/98
f 114/89/102 111/89/100 109/89/93 108/89/99
f 115/91/103 116/92/75 117/93/2 118/94/5
f 119/95/104 115/96/103 118/97/5 120/98/7
f 121/99/93 119/100/104 120/101/7 122/102/1
f 116/103/75 121/104/93 122/105/1 117/50/2
f 117/50/2 122/105/1 120/105/7 118/50/5
f 116/92/75 115/91/103 119/91/104 121/92/93
f 123/91/103 124/92/75 125/93/2 126/94/5
f 127/95/104 123/96/103 126/97/5 128/98/7
f 129/99/93 127/100/104 128/101/7 130/102/1
f 124/103/75 129/104/93 130/105/1 125/50/2
f 125/50/2 130/105/1 128/105/7 126/50/5
f 124/92/75 123/91/103 127/91/104 129/92/93
f 131/91/103 132/92/75 133/93/2 134/94/5
f 135/95/104 131/96/103 134/97/5 136/98/7
f 137/99/93 135/100/104 136/101/7 138/102/1
f 132/103/75 137/104/93 138/105/1 133/50/2
f 133/50/2 138/105/1 136/105/7 134/50/5
f 132/92/75 131/91/103 135/91/104 137/92/93
f 139/91/103 140/92/75 141/93/2 142/94/5
f 143/95/104 139/96/103 142/97/5 144/98/7
f 145/99/93 143/100/104 144/101/7 146/102/1
f 140/103/75 145/104/93 146/105/1 141/50/2
f 141/50/2 146/105/1 144/105/7 142/50/5
f 140/92/75 139/91/103 143/91/104 145/92/93
f 147/91/103 148/92/75 149/93/2 150/94/5
f 151/95/104 147/96/103 150/97/5 152/98/7
f 153/99/93 151/100/104 152/101/7 154/102/1
f 148/103/75 153/104/93 154/105/1 149/50/2
f 149/50/2 154/105/1 152/105/7 150/50/5
f 148/92/75 147/91/103 151/91/104 153/92/93
f 155/91/103 156/92/75 157/93/2 158/94/5
f 159/95/104 155/96/103 158/97/5 160/98/7
f 161/99/93 159/100/104 160/101/7 162/102/1
f 156/103/75 161/104/93 162/105/1 157/50/2
f 157/50/2 162/105/1 160/105/7 158/50/5
f 156/92/75 155/91/103 159/91/104 161/92/93
f 163/91/103 164/92/75 165/93/2 166/94/5
f 167/95/104 163/96/103 166/97/5 168/98/7
f 169/99/93 167/100/104 168/101/7 170/102/1
f 164/103/75 169/104/93 170/105/1 165/50/2
f 165/50/2 170/105/1 168/105/7 166/50/5
f 164/92/75 163/91/103 167/91/104 169/92/93
f 171/91/103 172/92/75 173/93/2 174/94/5
f 175/95/104 171/96/103 174/97/5 176/98/7
f 177/99/93 175/100/104 176/101/7 178/102/1
f 172/103/75 177/104/93 178/105/1 173/50/2
f 173/50/2 178/105/1 176/105/7 174/50/5
f 172/92/75 171/91/103 175/91/104 177/92/93
f 5/106/5 2/107/2 1/108/1 7/109/7
f 9/110/9 11/111/105 13/112/13
f 12/113/12 10/114/10 14/115/14
