#
#
#

mtllib house7-02.mtl


#
# 
#
g 


#
# __7
#
usemtl __7

v -2.502259 -0.029341 -5.159361
v -2.502259 -0.029341 5.045243
v -2.502259 3.168176 5.045243
v -2.502259 3.168176 -5.159361
v 4.416961 -0.029342 5.045243
v 4.416959 3.168176 5.045243
v 4.416958 -0.029342 -5.159361
v 4.416959 3.168176 -5.159361
v -4.139922 3.168176 5.707303
v -4.139921 3.168176 -5.707303
v 4.795896 3.168176 5.707303
v 4.795897 3.168176 -5.707303
v 0.957350 5.036653 2.937792
v 0.957350 5.036653 -3.033028
v -2.632165 1.191937 -2.918547
v -2.632165 2.463055 -2.918547
v -2.632164 2.463055 -3.923122
v -2.632165 1.191937 -3.923122
v -2.483260 1.148893 -2.862494
v -2.483259 2.506098 -2.862493
v -2.483259 2.506098 -3.967057
v -2.483259 1.148893 -3.967057
v -2.632165 1.191937 3.639639
v -2.632165 2.463055 3.639639
v -2.632164 2.463055 2.635064
v -2.632165 1.191937 2.635064
v -2.483260 1.148893 3.695694
v -2.483259 2.506098 3.695694
v -2.483259 2.506098 2.591131
v -2.483259 1.148893 2.591131
v 1.807650 1.188514 -5.293353
v 1.807650 2.459631 -5.293353
v 2.812225 2.459630 -5.293352
v 2.812225 1.188514 -5.293353
v 1.751597 1.145470 -5.144449
v 1.751597 2.502674 -5.144447
v 2.856158 2.502674 -5.144447
v 2.856158 1.145470 -5.144447
v -0.751457 1.188514 -5.293352
v -0.751457 2.459631 -5.293352
v 0.253118 2.459631 -5.293350
v 0.253118 1.188514 -5.293352
v -0.807510 1.145470 -5.144448
v -0.807510 2.502674 -5.144447
v 0.297051 2.502674 -5.144447
v 0.297051 1.145470 -5.144447
v 4.548550 1.188514 -0.836444
v 4.548550 2.459630 -0.836444
v 4.548550 2.459630 0.168130
v 4.548550 1.188514 0.168130
v 4.399646 1.145469 -0.892499
v 4.399646 2.502674 -0.892499
v 4.399646 2.502674 0.212062
v 4.399646 1.145469 0.212062
v 4.548551 1.188514 -3.815257
v 4.548551 2.459630 -3.815257
v 4.548548 2.459630 -2.810683
v 4.548551 1.188514 -2.810683
v 4.399647 1.145469 -3.871311
v 4.399644 2.502674 -3.871311
v 4.399644 2.502674 -2.766750
v 4.399644 1.145469 -2.766750
v 4.548550 1.188514 2.810999
v 4.548550 2.459630 2.810999
v 4.548550 2.459630 3.815573
v 4.548550 1.188514 3.815573
v 4.399646 1.145469 2.754945
v 4.399646 2.502674 2.754945
v 4.399646 2.502674 3.859505
v 4.399646 1.145469 3.859505
v 2.681988 1.188514 5.187541
v 2.681988 2.459631 5.187541
v 1.677414 2.459631 5.187538
v 1.677414 1.188514 5.187541
v 2.738045 1.145470 5.038637
v 2.738045 2.502674 5.038636
v 1.633485 2.502674 5.038636
v 1.633485 1.145470 5.038636
v 0.122151 1.188514 5.187541
v 0.122151 2.459631 5.187541
v -0.882422 2.459631 5.187538
v -0.882422 1.188514 5.187541
v 0.178206 1.145470 5.038637
v 0.178206 2.502674 5.038636
v -0.926355 2.502674 5.038636
v -0.926355 1.145470 5.038636
v -3.963647 0.356861 -0.139259
v -2.319786 0.356861 -0.139259
v -2.319786 0.356861 -4.898662
v -3.963647 0.356861 -4.898662
v -3.963647 0.258112 -0.138593
v -3.963647 0.258112 -4.898662
v -2.319786 0.356861 4.693048
v -3.963647 0.356861 4.693048
v -3.963647 0.258112 4.693048
v -2.319786 0.258112 4.693048
v -2.319786 0.258112 -4.898662
v -2.298892 0.258112 -0.138593
v -4.795892 -0.130653 -1.046745
v -4.363697 -0.129792 -1.046745
v -3.904457 0.181640 -1.046745
v -3.904457 0.462541 -1.046745
v -4.795892 -0.130653 -1.332441
v -3.904457 0.462541 -1.332441
v -3.904457 0.181640 -1.332441
v -4.363697 -0.129792 -1.332441
v -4.795892 -0.130653 1.126422
v -4.363697 -0.129792 1.126422
v -3.904457 0.181640 1.126422
v -3.904457 0.462541 1.126422
v -4.795892 -0.130653 0.859833
v -3.904457 0.462541 0.859833
v -3.904457 0.181640 0.859833
v -4.363697 -0.129792 0.859833
v -3.997192 0.232624 0.873803
v -3.997192 0.232624 -1.051285
v -4.284134 0.232624 -1.051285
v -4.284134 0.232624 0.873803
v -4.284134 0.153835 -1.051285
v -4.284134 0.153835 0.873803
v -3.594821 3.251930 -3.914186
v -3.594821 3.193549 -3.773023
v -3.594821 2.191297 -4.474810
v -3.594821 2.290140 -4.615970
v -3.698216 3.251930 -3.914186
v -3.698217 2.290140 -4.615970
v -3.698217 2.191297 -4.474808
v -3.698216 3.193549 -3.773023
v -2.945805 3.251930 -4.671568
v -2.804643 3.193549 -4.671568
v -3.506429 2.191297 -4.671568
v -3.647591 2.290140 -4.671568
v -2.945805 3.251930 -4.568172
v -3.647591 2.290139 -4.568172
v -3.506429 2.191297 -4.568172
v -2.804643 3.193549 -4.568172
v -3.826680 -0.104864 -4.802751
v -3.826680 3.164188 -4.802751
v -3.491401 3.164188 -4.802751
v -3.491401 -0.104864 -4.802751
v -3.491401 3.164188 -4.467470
v -3.491401 -0.104864 -4.467470
v -3.826680 3.164188 -4.467470
v -3.826680 -0.104864 -4.467470
v -3.749872 0.343227 -1.087904
v -3.512261 0.343227 -1.087904
v -3.512260 3.174762 -1.087904
v -3.749872 3.174762 -1.087904
v -3.512261 0.343227 -1.328461
v -3.512260 3.174762 -1.328461
v -3.749872 0.343227 -1.328461
v -3.749872 3.174762 -1.328461
v -3.609442 1.341623 -4.587644
v -3.615622 1.341623 -1.235615
v -3.615622 1.257088 -1.235615
v -3.609442 1.257088 -4.587644
v -3.721976 1.341623 -4.587643
v -3.721976 1.257088 -4.587643
v -3.728154 1.257088 -1.235612
v -3.728154 1.341623 -1.235612
v -3.511741 1.325824 -4.740998
v -1.729058 1.325824 -4.740998
v -1.729058 1.257088 -4.740998
v -3.511741 1.257088 -4.740998
v -3.511741 1.325824 -4.645237
v -3.511741 1.257088 -4.645237
v -1.729058 1.257088 -4.645236
v -1.729058 1.325824 -4.645236
v -2.697875 0.312542 -0.743254
v -2.697875 0.312542 0.625720
v -2.697877 2.434429 0.625720
v -2.697877 2.434429 -0.743254
v -2.473987 0.312542 0.694169
v -2.473987 2.474528 0.694169
v -2.473987 2.474528 -0.811702
v -2.473987 0.312542 -0.811702
v -3.594821 2.191297 4.257625
v -3.594821 3.193549 3.555838
v -3.594821 3.251930 3.697001
v -3.594821 2.290140 4.398785
v -3.698217 2.191297 4.257623
v -3.698217 2.290140 4.398785
v -3.698216 3.251930 3.697001
v -3.698216 3.193549 3.555838
v -3.506429 2.191297 4.454382
v -2.804643 3.193549 4.454382
v -2.945805 3.251930 4.454382
v -3.647591 2.290140 4.454382
v -3.506429 2.191297 4.350986
v -3.647591 2.290139 4.350986
v -2.945805 3.251930 4.350986
v -2.804643 3.193549 4.350986
v -3.491401 3.164188 4.585565
v -3.826680 3.164188 4.585565
v -3.826680 -0.104864 4.585565
v -3.491401 -0.104864 4.585565
v -3.491401 3.164188 4.250283
v -3.491401 -0.104864 4.250283
v -3.826680 3.164188 4.250283
v -3.826680 -0.104864 4.250283
v -3.512260 3.174762 0.870719
v -3.512261 0.343227 0.870719
v -3.749872 0.343227 0.870719
v -3.749872 3.174762 0.870719
v -3.512260 3.174762 1.111275
v -3.512261 0.343227 1.111275
v -3.749872 3.174762 1.111276
v -3.749872 0.343227 1.111276
v -3.615622 1.257088 1.018430
v -3.615622 1.341622 1.018430
v -3.609442 1.341622 4.370459
v -3.609442 1.257088 4.370459
v -3.728154 1.257088 1.018427
v -3.721976 1.257088 4.370458
v -3.721976 1.341622 4.370458
v -3.728154 1.341622 1.018427
v -1.729058 1.257088 4.523812
v -1.729058 1.325824 4.523812
v -3.511741 1.325824 4.523812
v -3.511741 1.257088 4.523812
v -1.729058 1.257088 4.428051
v -3.511741 1.257088 4.428052
v -3.511741 1.325824 4.428052
v -1.729058 1.325824 4.428051
v -3.997192 0.151654 0.873803
v -3.995221 0.153835 -1.051285
v -4.286119 0.047940 0.873803
v -4.286119 0.047940 -1.051285
v -4.573062 0.047940 -1.051285
v -4.573062 0.047940 0.873803
v -4.573062 -0.030848 -1.051285
v -4.573062 -0.030848 0.873803
v -4.286119 -0.033030 0.873803
v -4.284148 -0.030848 -1.051285
vn -0.707107 0.000000 -0.707107
vn -0.707107 0.000000 0.707107
vn -0.408248 -0.816497 0.408248
vn -0.408248 -0.816497 -0.408248
vn 0.707107 0.000000 0.707107
vn 0.408248 -0.816497 0.408248
vn 0.707107 0.000000 -0.707107
vn 0.408248 -0.816497 -0.408248
vn -0.494137 -0.333253 0.802976
vn -0.484442 -0.339723 -0.806167
vn 0.575548 -0.357536 0.735467
vn 0.565682 -0.363352 -0.740256
vn 0.034291 0.978137 0.205117
vn 0.034370 0.976982 -0.210535
vn -0.772204 -0.455110 0.443369
vn -0.772203 0.455111 0.443369
vn -0.754513 0.464437 -0.463690
vn -0.754515 -0.464435 -0.463689
vn 0.265937 -0.690493 0.672679
vn 0.265941 0.690492 0.672678
vn 0.307902 0.673296 -0.672212
vn 0.307898 -0.673296 -0.672214
vn -0.772205 -0.455109 0.443368
vn -0.772203 0.455112 0.443369
vn -0.754511 0.464438 -0.463692
vn -0.754513 -0.464436 -0.463691
vn 0.307905 0.673294 -0.672212
vn 0.307902 -0.673295 -0.672213
vn -0.443370 -0.455110 -0.772203
vn -0.443371 0.455112 -0.772201
vn 0.463692 0.464438 -0.754511
vn 0.463691 -0.464436 -0.754513
vn -0.672680 -0.690491 0.265941
vn -0.672678 0.690490 0.265945
vn 0.672212 0.673294 0.307906
vn 0.672213 -0.673295 0.307901
vn -0.443371 0.455112 -0.772202
vn 0.463691 0.464437 -0.754512
vn 0.463690 -0.464435 -0.754514
vn -0.672679 0.690491 0.265944
vn 0.672213 0.673295 0.307903
vn 0.672214 -0.673295 0.307900
vn 0.772206 -0.455108 -0.443367
vn 0.772205 0.455110 -0.443367
vn 0.754513 0.464437 0.463691
vn 0.754514 -0.464435 0.463690
vn -0.265932 -0.690494 -0.672680
vn -0.265936 0.690494 -0.672678
vn -0.307903 0.673295 0.672213
vn -0.307900 -0.673295 0.672214
vn 0.772205 -0.455109 -0.443367
vn 0.772203 0.455112 -0.443368
vn 0.754510 0.464439 0.463693
vn 0.754512 -0.464436 0.463692
vn -0.265936 -0.690493 -0.672679
vn -0.265940 0.690492 -0.672679
vn -0.307907 0.673294 0.672212
vn -0.307903 -0.673294 0.672213
vn -0.307903 -0.673295 0.672213
vn 0.772207 -0.455108 -0.443366
vn 0.754511 0.464438 0.463693
vn -0.265935 0.690494 -0.672678
vn -0.307907 0.673293 0.672212
vn -0.307904 -0.673293 0.672214
vn 0.443363 -0.455107 0.772209
vn 0.443364 0.455109 0.772207
vn -0.463697 0.464440 0.754507
vn -0.463696 -0.464438 0.754509
vn 0.672679 -0.690497 -0.265927
vn 0.672678 0.690497 -0.265930
vn -0.672212 0.673290 -0.307915
vn -0.672213 -0.673290 -0.307912
vn 0.443367 -0.455109 0.772206
vn 0.443367 0.455110 0.772205
vn -0.463691 0.464437 0.754512
vn -0.463691 -0.464435 0.754514
vn 0.672679 -0.690494 -0.265934
vn 0.672679 0.690493 -0.265936
vn -0.672213 0.673295 -0.307903
vn -0.672214 -0.673295 -0.307901
vn -0.707107 0.707107 -0.000000
vn 0.668878 0.743372 -0.000011
vn 0.554636 0.616404 -0.558949
vn -0.577351 0.577349 -0.577351
vn -0.707107 -0.707107 -0.000000
vn -0.577350 -0.577351 -0.577350
vn 0.554639 0.616414 0.558935
vn -0.577350 0.577351 0.577350
vn -0.577351 -0.577349 0.577351
vn 0.594946 -0.535326 0.599554
vn 0.594938 -0.535323 -0.599565
vn 0.743371 -0.668880 -0.000012
vn -0.478149 -0.145070 0.866215
vn 0.260992 -0.846863 0.463365
vn 0.768943 -0.407624 0.492514
vn 0.324250 0.605248 0.727005
vn -0.478149 -0.145070 -0.866215
vn 0.324251 0.605248 -0.727005
vn 0.768943 -0.407624 -0.492514
vn 0.260992 -0.846863 -0.463365
vn 0.324251 0.605248 0.727005
vn -0.478150 -0.145070 -0.866214
vn 0.324250 0.605248 -0.727005
vn 0.574848 0.581984 0.575190
vn 0.575046 0.582184 -0.574791
vn -0.577350 0.577350 -0.577350
vn -0.577350 0.577350 0.577350
vn -0.578698 -0.576509 -0.576841
vn -0.578916 -0.576727 0.576404
vn 0.536680 0.812277 -0.228430
vn 0.624266 0.218810 0.749943
vn 0.577352 -0.804091 0.141781
vn 0.581136 -0.133496 -0.802783
vn -0.536680 0.812277 -0.228430
vn -0.581140 -0.133497 -0.802779
vn -0.577349 -0.804093 0.141782
vn -0.624259 0.218811 0.749949
vn -0.228429 0.812278 -0.536679
vn 0.749946 0.218810 -0.624261
vn 0.141784 -0.804092 -0.577351
vn -0.802780 -0.133498 -0.581139
vn -0.228429 0.812277 0.536681
vn -0.802780 -0.133498 0.581139
vn 0.141783 -0.804094 0.577348
vn 0.749946 0.218810 0.624262
vn -0.577350 -0.577350 -0.577350
vn 0.577350 0.577350 -0.577350
vn 0.577350 -0.577350 -0.577350
vn 0.577350 0.577350 0.577350
vn 0.577350 -0.577350 0.577350
vn -0.577350 -0.577350 0.577350
vn 0.577702 0.577707 -0.576642
vn 0.577003 0.576992 0.578056
vn 0.577003 -0.576992 0.578056
vn 0.577702 -0.577707 -0.576642
vn -0.576998 0.576994 -0.578058
vn -0.576998 -0.576994 -0.578058
vn -0.577697 -0.577709 0.576644
vn -0.577697 0.577709 0.576644
vn -0.577351 0.577350 0.577350
vn -0.577351 -0.577350 0.577350
vn -0.682586 -0.528167 -0.505090
vn -0.682587 -0.528167 0.505088
vn -0.730652 0.489699 0.475754
vn -0.730651 0.489700 -0.475755
vn 0.455327 -0.643455 0.615339
vn 0.361044 0.668867 0.649819
vn 0.361046 0.668866 -0.649819
vn -0.730652 0.489700 0.475754
vn 0.455329 -0.643454 -0.615339
vn 0.577353 -0.804091 -0.141781
vn 0.624266 0.218810 -0.749942
vn 0.536680 0.812277 0.228431
vn 0.581135 -0.133497 0.802783
vn -0.577349 -0.804094 -0.141782
vn -0.581140 -0.133497 0.802779
vn -0.536680 0.812277 0.228431
vn -0.624258 0.218812 -0.749949
vn 0.141784 -0.804091 0.577352
vn 0.749947 0.218810 0.624261
vn -0.228429 0.812278 0.536679
vn 0.141783 -0.804093 -0.577349
vn -0.802781 -0.133498 -0.581138
vn -0.228430 0.812276 -0.536681
vn 0.749946 0.218811 -0.624262
vn 0.577352 0.577349 0.577349
vn 0.577352 -0.577349 0.577349
vn -0.577348 0.577351 0.577351
vn -0.577348 -0.577351 0.577351
vn 0.577002 -0.576992 -0.578056
vn 0.577002 0.576992 -0.578056
vn 0.577700 0.577708 0.576643
vn 0.577700 -0.577708 0.576643
vn -0.577697 -0.577709 -0.576644
vn -0.576999 -0.576994 0.578057
vn -0.576999 0.576994 0.578057
vn -0.577697 0.577709 -0.576644
vn -0.577351 -0.577350 -0.577350
vn -0.577351 0.577350 -0.577350
vn 0.578245 -0.573323 0.580459
vn 0.578226 -0.573304 -0.580498
vn -0.484442 -0.339722 -0.806167
vt 0.045248 0.506182
vt 0.973937 0.506182
vt 0.973937 0.987183
vt 0.045248 0.987183
vt 0.045825 0.501378
vt 0.903870 0.501378
vt 0.903870 0.989917
vt 0.045825 0.989917
vt 0.903870 0.989024
vt 0.045825 0.989024
vt 1.217833 0.690526
vt -0.095311 0.690260
vt -0.177985 0.518483
vt 1.292462 0.517459
vt 0.937413 0.639206
vt -0.029982 0.633530
vt -0.077128 0.517348
vt 1.160884 0.518096
vt 1.598460 0.597035
vt -0.600769 0.597035
vt -0.718857 0.515370
vt 1.741143 0.515370
vt 1.235817 0.630566
vt 0.020128 0.630566
vt -0.267605 0.534294
vt 1.302395 0.534294
vt 0.318162 0.169032
vt 0.971837 0.169032
vt 0.824023 0.500869
vt 0.495238 0.500869
vt 0.971837 0.167973
vt 0.318162 0.167973
vt 0.307181 0.007331
vt 0.565781 0.007331
vt 0.565781 0.163266
vt 0.307181 0.163266
vt 0.565781 0.029651
vt 0.307181 0.029651
vt 0.873446 0.587544
vt 0.873446 0.996008
vt 0.002390 0.996008
vt 0.002390 0.587544
vt 0.623753 0.517075
vt 0.593900 0.517075
vt 0.593725 0.989600
vt 0.623570 0.989600
vt 0.874401 1.005537
vt 0.002171 1.005537
vt 0.002171 0.592944
vt 0.874401 0.592944
vt 0.874401 0.597073
vt 0.002204 1.005537
vt 0.002204 0.597073
vt 0.749802 0.993535
vt 0.686319 0.902071
vt 0.688794 0.762053
vt 0.750006 0.723306
vt 0.751647 0.711449
vt 0.750870 0.969907
vt 0.690807 0.931694
vt 0.691179 0.797750
vt 0.497624 0.939349
vt 0.497624 0.554469
vt 0.561736 0.554469
vt 0.561736 0.939349
vt 0.686036 0.848218
vt 0.625994 0.762105
vt 0.623978 0.627342
vt 0.679869 0.588207
vt 0.687665 0.572472
vt 0.681498 0.832483
vt 0.625607 0.793348
vt 0.627623 0.658585
vt 0.434545 0.941531
vt 0.434545 0.639874
vt 0.498432 0.639874
vt 0.498432 0.941531
vt 0.371544 0.938579
vt 0.371543 0.650760
vt 0.438160 0.650760
vt 0.438160 0.938579
vt 0.946903 0.896500
vt 0.984858 0.896500
vt 0.984858 0.637823
vt 0.946903 0.637823
vt 0.625046 0.517956
vt 0.624862 0.988308
vt 0.685107 0.988308
vt 0.685309 0.517956
vt 0.437390 0.516634
vt 0.437261 0.988308
vt 0.499445 0.988308
vt 0.499592 0.516634
vt 0.499470 0.517515
vt 0.499323 0.988308
vt 0.561507 0.988308
vt 0.561672 0.517515
vt 0.562197 0.517075
vt 0.562032 0.989600
vt 0.639962 0.517956
vt 0.667257 0.517956
vt 0.667061 0.988308
vt 0.639774 0.988308
vt 0.467556 0.516634
vt 0.467419 0.988308
vt 0.518103 0.517515
vt 0.546277 0.517515
vt 0.546116 0.988308
vt 0.517950 0.988308
vt 0.261319 0.657998
vt 0.261319 0.975840
vt 0.291719 0.975840
vt 0.291719 0.657998
vt 0.013236 0.041373
vt 0.275130 0.041373
vt 0.275130 0.480534
vt 0.013236 0.480534
vt 0.013236 0.452405
vt 0.053611 0.452405
vt 0.053611 0.041373
vt 0.346776 0.171219
vt 0.976721 0.171218
vt 0.670539 0.432072
vt 0.347470 0.166928
vt 0.977415 0.166928
vt 0.662443 0.482073
f 1/1/1 2/2/2 3/3/3 4/4/4
f 2/5/2 5/6/5 6/7/6 3/8/3
f 5/5/5 7/6/7 8/9/8 6/10/6
f 7/5/7 1/6/1 4/7/4 8/8/8
f 4/11/4 3/12/3 9/13/9 10/14/10
f 3/15/3 6/16/6 11/17/11 9/18/9
f 6/19/6 8/20/8 12/21/12 11/22/11
f 8/23/8 4/24/4 10/25/10 12/26/12
f 10/27/10 9/28/9 13/29/13 14/30/14
f 11/31/11 12/32/12 14/30/14 13/29/13
f 15/33/15 16/34/16 17/35/17 18/36/18
f 19/33/19 20/34/20 16/37/16 15/38/15
f 20/33/20 21/34/21 17/37/17 16/38/16
f 21/33/21 22/34/22 18/37/18 17/38/17
f 22/33/22 19/34/19 15/37/15 18/38/18
f 20/33/20 19/34/19 22/35/22 21/36/21
f 23/33/23 24/34/24 25/35/25 26/36/26
f 27/33/19 28/34/20 24/37/24 23/38/23
f 28/33/20 29/34/27 25/37/25 24/38/24
f 29/33/27 30/34/28 26/37/26 25/38/25
f 30/33/28 27/34/19 23/37/23 26/38/26
f 28/33/20 27/34/19 30/35/28 29/36/27
f 31/33/29 32/34/30 33/35/31 34/36/32
f 35/33/33 36/34/34 32/37/30 31/38/29
f 36/33/34 37/34/35 33/37/31 32/38/30
f 37/33/35 38/34/36 34/37/32 33/38/31
f 38/33/36 35/34/33 31/37/29 34/38/32
f 36/33/34 35/34/33 38/35/36 37/36/35
f 39/33/29 40/34/37 41/35/38 42/36/39
f 43/33/33 44/34/40 40/37/37 39/38/29
f 44/33/40 45/34/41 41/37/38 40/38/37
f 45/33/41 46/34/42 42/37/39 41/38/38
f 46/33/42 43/34/33 39/37/29 42/38/39
f 44/33/40 43/34/33 46/35/42 45/36/41
f 47/33/43 48/34/44 49/35/45 50/36/46
f 51/33/47 52/34/48 48/37/44 47/38/43
f 52/33/48 53/34/49 49/37/45 48/38/44
f 53/33/49 54/34/50 50/37/46 49/38/45
f 54/33/50 51/34/47 47/37/43 50/38/46
f 52/33/48 51/34/47 54/35/50 53/36/49
f 55/33/51 56/34/52 57/35/53 58/36/54
f 59/33/55 60/34/56 56/37/52 55/38/51
f 60/33/56 61/34/57 57/37/53 56/38/52
f 61/33/57 62/34/58 58/37/54 57/38/53
f 62/33/58 59/34/55 55/37/51 58/38/54
f 60/33/56 59/34/55 62/35/59 61/36/57
f 63/33/60 64/34/44 65/35/61 66/36/54
f 67/33/47 68/34/62 64/37/44 63/38/60
f 68/33/62 69/34/63 65/37/61 64/38/44
f 69/33/63 70/34/64 66/37/54 65/38/61
f 70/33/64 67/34/47 63/37/60 66/38/54
f 68/33/62 67/34/47 70/35/64 69/36/63
f 71/33/65 72/34/66 73/35/67 74/36/68
f 75/33/69 76/34/70 72/37/66 71/38/65
f 76/33/70 77/34/71 73/37/67 72/38/66
f 77/33/71 78/34/72 74/37/68 73/38/67
f 78/33/72 75/34/69 71/37/65 74/38/68
f 76/33/70 75/34/69 78/35/72 77/36/71
f 79/33/73 80/34/74 81/35/75 82/36/76
f 83/33/77 84/34/78 80/37/74 79/38/73
f 84/33/78 85/34/79 81/37/75 80/38/74
f 85/33/79 86/34/80 82/37/76 81/38/75
f 86/33/80 83/34/77 79/37/73 82/38/76
f 84/33/78 83/34/77 86/35/80 85/36/79
f 87/39/81 88/40/82 89/41/83 90/42/84
f 91/43/85 87/44/81 90/45/84 92/46/86
f 93/47/87 94/48/88 95/49/89 96/50/90
f 90/47/84 89/48/83 97/49/91 92/50/86
f 94/51/88 93/47/87 88/52/82 87/53/81
f 95/46/89 94/45/88 87/44/81 91/43/85
f 91/42/85 92/39/86 97/40/91 98/41/92
f 95/42/89 91/39/85 98/40/92 96/41/90
f 98/43/92 97/46/91 89/46/83 88/43/82
f 96/46/90 98/43/92 88/43/82 93/46/87
f 99/54/93 100/55/94 101/56/95 102/57/96
f 103/58/97 104/59/98 105/60/99 106/61/100
f 106/62/100 105/63/99 101/64/95 100/65/94
f 104/62/98 103/63/97 99/64/93 102/65/96
f 107/66/93 108/67/94 109/68/95 110/69/101
f 111/70/102 112/71/103 113/72/99 114/73/100
f 114/62/100 113/63/99 109/64/95 108/65/94
f 112/62/103 111/63/102 107/64/93 110/65/101
f 115/74/104 116/75/105 117/76/106 118/77/107
f 118/78/107 117/79/106 119/80/108 120/81/109
f 103/62/97 106/63/100 100/64/94 99/65/93
f 111/62/102 114/63/100 108/64/94 107/65/93
f 110/63/101 109/64/95 113/65/99 112/62/103
f 102/65/96 101/62/95 105/63/99 104/64/98
f 121/82/110 122/83/111 123/84/112 124/85/113
f 125/83/114 126/84/115 127/85/116 128/82/117
f 125/82/114 121/83/110 124/84/113 126/85/115
f 127/82/116 123/83/112 122/84/111 128/85/117
f 129/82/118 130/83/119 131/84/120 132/85/121
f 133/83/122 134/84/123 135/85/124 136/82/125
f 133/82/122 129/83/118 132/84/121 134/85/123
f 135/82/124 131/83/120 130/84/119 136/85/125
f 137/86/126 138/87/106 139/88/127 140/89/128
f 140/90/128 139/91/127 141/92/129 142/93/130
f 142/94/130 141/95/129 143/96/107 144/97/131
f 144/98/131 143/99/107 138/46/106 137/43/126
f 142/98/130 144/98/131 137/43/126 140/43/128
f 141/88/129 139/88/127 138/87/106 143/87/107
f 121/83/110 125/83/114 128/82/117 122/82/111
f 136/83/125 130/83/119 129/82/118 133/82/122
f 131/85/120 135/85/124 134/84/123 132/84/121
f 126/85/115 124/85/113 123/84/112 127/84/116
f 145/100/131 146/101/130 147/102/129 148/103/107
f 146/90/130 149/104/128 150/105/127 147/91/129
f 149/106/128 151/107/126 152/108/106 150/109/127
f 151/44/126 145/43/131 148/46/107 152/45/106
f 152/45/106 148/46/107 147/46/129 150/45/127
f 149/104/128 146/90/130 145/90/131 151/104/126
f 153/110/132 154/111/133 155/112/134 156/113/135
f 157/111/136 158/112/137 159/113/138 160/110/139
f 158/111/137 156/112/135 155/113/134 159/110/138
f 160/111/139 154/112/133 153/113/132 157/110/136
f 161/110/106 162/111/127 163/112/128 164/113/126
f 165/111/140 166/112/141 167/113/130 168/110/129
f 166/111/141 164/112/126 163/113/128 167/110/130
f 168/111/129 162/112/127 161/113/106 165/110/140
f 155/112/134 154/112/133 160/111/139 159/111/138
f 158/110/137 157/110/136 153/113/132 156/113/135
f 161/112/106 164/112/126 166/111/141 165/111/140
f 168/110/129 167/110/130 163/113/128 162/113/127
f 169/114/142 170/115/143 171/116/144 172/117/145
f 173/114/146 174/118/147 171/119/144 170/120/143
f 174/118/147 175/114/148 172/120/145 171/119/149
f 175/118/148 176/114/150 169/120/142 172/119/145
f 175/117/148 174/116/147 173/115/146 176/114/150
f 170/118/143 169/114/142 176/120/150 173/119/146
f 177/84/151 178/83/152 179/82/153 180/85/154
f 181/85/155 182/84/156 183/83/157 184/82/158
f 180/84/154 179/83/153 183/82/157 182/85/156
f 178/84/152 177/83/151 181/82/155 184/85/158
f 185/84/159 186/83/160 187/82/161 188/85/123
f 189/85/162 190/84/163 191/83/164 192/82/165
f 188/84/123 187/83/161 191/82/164 190/85/163
f 186/84/160 185/83/159 189/82/162 192/85/165
f 193/88/129 194/87/107 195/86/131 196/89/130
f 197/92/127 193/91/129 196/90/130 198/93/128
f 199/96/106 197/95/127 198/94/128 200/97/126
f 194/46/107 199/99/106 200/98/126 195/43/131
f 195/43/131 200/98/126 198/98/128 196/43/130
f 194/87/107 193/88/129 197/88/127 199/87/106
f 184/82/158 183/83/157 179/83/153 178/82/152
f 187/82/161 186/83/160 192/83/165 191/82/164
f 190/84/163 189/85/162 185/85/159 188/84/123
f 177/84/151 180/85/154 182/85/156 181/84/155
f 201/102/127 202/101/128 203/100/126 204/103/106
f 205/105/166 206/104/167 202/90/128 201/91/127
f 207/108/168 208/107/169 206/106/167 205/109/166
f 204/46/106 203/43/126 208/44/169 207/45/168
f 201/46/127 204/46/106 207/45/168 205/45/166
f 203/90/126 202/90/128 206/104/167 208/104/169
f 209/112/170 210/111/171 211/110/172 212/113/173
f 213/113/174 214/112/175 215/111/176 216/110/177
f 209/113/170 212/112/173 214/111/175 213/110/174
f 211/113/172 210/112/171 216/111/177 215/110/176
f 217/112/130 218/111/129 219/110/107 220/113/131
f 221/113/128 222/112/178 223/111/179 224/110/127
f 217/113/130 220/112/131 222/111/178 221/110/128
f 219/113/107 218/112/129 224/111/127 223/110/179
f 216/111/177 210/112/171 209/112/170 213/111/174
f 211/113/172 215/110/176 214/110/175 212/113/173
f 222/111/178 220/112/131 219/112/107 223/111/179
f 217/113/130 221/110/128 224/110/127 218/113/129
f 115/74/104 118/77/107 120/77/109 225/74/180
f 120/81/109 119/80/108 226/80/181 225/81/180
f 225/81/180 226/80/181 116/80/105 115/81/104
f 226/80/181 119/80/108 117/80/106 116/80/105
f 227/74/104 228/75/105 229/76/106 230/77/107
f 230/78/107 229/79/106 231/80/108 232/81/109
f 227/74/104 230/77/107 232/77/109 233/74/180
f 232/81/109 231/80/108 234/80/181 233/81/180
f 233/81/180 234/80/181 228/80/105 227/81/104
f 234/80/181 231/80/108 229/80/106 228/80/105
f 9/121/9 11/122/11 13/123/13
f 12/124/12 10/125/182 14/126/14
