# Blender v2.77 (sub 0) OBJ File: ''
# www.blender.org
mtllib cross_1.mtl
o croce2_Plane.005
v 0.703792 9.857869 -0.087978
v -0.741242 9.857869 -0.087978
v 0.703792 10.345630 -0.087977
v -0.741242 10.345630 -0.087977
v -1.126078 9.454921 -0.087978
v -1.126079 8.261147 -0.087979
v -1.619822 9.454921 -0.087978
v -1.619822 8.261147 -0.087979
v 1.184838 8.261147 -0.087979
v 1.184838 9.454921 -0.087978
v 1.643173 8.261147 -0.087979
v 1.643172 9.454921 -0.087978
v -0.741242 7.807559 -0.087979
v 0.703792 7.807559 -0.087979
v -0.741242 7.234469 -0.087980
v 0.703792 7.234469 -0.087980
v -1.042567 9.733295 -0.087979
v -1.536311 9.788969 -0.087978
v -1.174422 10.206530 -0.087978
v -1.042567 8.010610 -0.087979
v -1.424962 7.787911 -0.087979
v -1.174424 7.370350 -0.087979
v 1.037841 9.774356 -0.087978
v 1.177027 10.150770 -0.087978
v 1.538913 9.844559 -0.087978
v 1.037841 7.946746 -0.087979
v 1.121352 7.345818 -0.087980
v 1.566750 7.735542 -0.087980
v 0.493537 2.597188 0.225468
v -0.530987 2.597188 0.225468
v 0.861470 11.469660 0.237313
v -0.898920 11.469660 0.237313
v 0.646810 9.454921 0.282923
v -0.684260 9.454921 0.282923
v -0.695697 8.261147 0.282922
v 0.658247 8.261147 0.282922
v -2.665425 9.729161 0.232332
v -2.665425 7.986907 0.232332
v 2.724184 9.722469 0.222172
v 2.724184 7.993597 0.222172
v 1.087956 11.806390 0.282924
v -1.125406 11.806390 0.282924
v -3.002158 10.023270 0.282923
v -3.002158 7.692802 0.282922
v 3.060916 10.063780 0.282923
v 3.060916 7.652285 0.282922
v 0.703792 10.345630 0.282923
v -0.741242 10.345630 0.282923
v 0.744871 10.538950 0.282923
v -0.782321 10.538950 0.282923
v 0.881381 10.770920 0.282923
v -0.918831 10.770920 0.282923
v 1.817155 8.268054 0.282922
v 1.817155 9.459200 0.282923
v 2.010469 8.003059 0.282922
v 2.010469 9.713008 0.282923
v -1.774474 9.533508 0.282923
v -1.774474 8.260866 0.282922
v -1.987118 9.682989 0.282923
v -1.987118 8.033079 0.282922
v -0.741242 9.857869 -0.408758
v -0.741242 10.345630 -0.408757
v -1.126079 8.261147 -0.408759
v -1.619822 8.261147 -0.408759
v 1.184838 8.261147 -0.408759
v 1.184838 9.454920 -0.408758
v -0.741242 7.807559 -0.408759
v 0.714979 7.234468 -0.408760
v -1.042567 9.733295 -0.408759
v -1.174422 10.206530 -0.408758
v -1.424962 7.787911 -0.408759
v -1.174424 7.370350 -0.408759
v 1.177027 10.150770 -0.408757
v 1.037841 7.946746 -0.408759
v 1.566750 7.735541 -0.408760
v 0.703792 9.857869 -0.408758
v 0.703792 10.345630 -0.408757
v -1.126078 9.454920 -0.408758
v -1.619822 9.454920 -0.408758
v 1.643173 8.261147 -0.408759
v 1.643172 9.454920 -0.408758
v 0.703792 7.807559 -0.408759
v -0.741242 7.234468 -0.408760
v -1.536311 9.788969 -0.408758
v -1.042567 8.010611 -0.408759
v 1.037841 9.774356 -0.408758
v 1.538913 9.844560 -0.408758
v 1.121352 7.345818 -0.408760
v 0.493537 2.597187 -0.684020
v -0.530987 2.597187 -0.684020
v 0.861470 11.469660 -0.695854
v -0.898920 11.469660 -0.695854
v 0.646810 9.454921 -0.741467
v -0.684260 9.454921 -0.741467
v -0.695697 8.261147 -0.741468
v 0.658247 8.261147 -0.741468
v -2.665425 9.729161 -0.690877
v -2.665425 7.986907 -0.690877
v 2.724184 9.722471 -0.680717
v 2.724184 7.993597 -0.680717
v 1.087956 11.806390 -0.741465
v -1.125406 11.806390 -0.741465
v -3.002158 10.023260 -0.741467
v -3.002158 7.692801 -0.741467
v 3.060916 10.063780 -0.741467
v 3.060916 7.652285 -0.741467
v 0.703792 10.345630 -0.741466
v -0.741242 10.345630 -0.741466
v 0.744871 10.538950 -0.741466
v -0.782321 10.538950 -0.741466
v 0.881381 10.770920 -0.741465
v -0.918831 10.770920 -0.741465
v 1.817155 8.268054 -0.741468
v 1.817155 9.459200 -0.741466
v 2.010469 8.003059 -0.741467
v 2.010469 9.713007 -0.741467
v -1.774474 9.533508 -0.741467
v -1.774474 8.260867 -0.741468
v -1.987118 9.682990 -0.741467
v -1.987118 8.033079 -0.741467
v 0.656434 2.135849 0.370075
v -0.693883 2.135849 0.370075
v 0.656434 2.135849 -0.828626
v -0.693883 2.135849 -0.828626
v 0.656434 1.270374 0.370075
v -0.693883 1.270374 0.370075
v 0.656434 1.270374 -0.828627
v -0.693883 1.270374 -0.828627
v 1.665928 1.270374 1.145432
v -1.703378 1.270374 1.145432
v 1.665928 1.270374 -1.062476
v -1.703378 1.270374 -1.062476
v 1.665928 -0.000000 2.121234
v -1.703378 -0.000000 2.121234
v 1.665928 -0.000001 -1.062476
v -1.703378 -0.000001 -1.062476
vt 0.6861 0.3004
vt 0.7220 0.3004
vt 0.7220 0.3513
vt 0.7820 0.4343
vt 0.7820 0.4234
vt 0.8395 0.4234
vt 0.7627 0.2358
vt 0.7221 0.2358
vt 0.7627 0.1999
vt 0.0111 0.6453
vt 0.0388 0.6695
vt 0.0111 0.8368
vt 0.1839 0.9556
vt 0.3285 0.9556
vt 0.3471 0.9833
vt 0.5092 0.8401
vt 0.4815 0.8121
vt 0.4815 0.6700
vt 0.1822 0.8982
vt 0.3301 0.8982
vt 0.6860 0.2982
vt 0.6860 0.3555
vt 0.6500 0.3555
vt 0.1222 0.5895
vt 0.1222 0.4097
vt 0.0432 0.5895
vt 0.6114 0.6166
vt 0.6004 0.6002
vt 0.5144 0.6002
vt 0.0388 0.8126
vt 0.0945 0.8088
vt 0.8626 0.8526
vt 0.8626 0.7728
vt 0.8958 0.8526
vt 0.7220 0.2385
vt 0.6861 0.2385
vt 0.6861 0.1999
vt 0.4070 0.6926
vt 0.4229 0.6708
vt 0.4070 0.7904
vt 0.6860 0.2451
vt 0.6500 0.2451
vt 0.7581 0.3423
vt 0.7221 0.3423
vt 0.7221 0.3127
vt 0.1968 0.8633
vt 0.3156 0.8633
vt 0.3189 0.8791
vt 0.6499 0.3053
vt 0.6140 0.3053
vt 0.6499 0.2508
vt 0.8028 0.4440
vt 0.7820 0.4343
vt 0.8028 0.4698
vt 0.3194 0.6038
vt 0.3537 0.6130
vt 0.3468 0.6623
vt 0.3903 0.6450
vt 0.3966 0.6882
vt 0.8677 0.2516
vt 0.8626 0.7586
vt 0.8958 0.6667
vt 0.4282 0.4302
vt 0.4282 0.5152
vt 0.4613 0.4324
vt 0.6202 0.5402
vt 0.6134 0.5218
vt 0.5971 0.5497
vt 0.5205 0.4150
vt 0.5205 0.3871
vt 0.5058 0.4249
vt 0.7221 0.2359
vt 0.7607 0.2359
vt 0.7221 0.2719
vt 0.9245 0.6667
vt 0.8958 0.6667
vt 0.8677 0.2516
vt 0.8395 0.4343
vt 0.8209 0.4698
vt 0.8395 0.4993
vt 0.6152 0.1639
vt 0.6624 0.1639
vt 0.6140 0.1998
vt 0.8209 0.5704
vt 0.8395 0.5791
vt 0.8028 0.5704
vt 0.8028 0.5427
vt 0.7820 0.5791
vt 0.7820 0.5179
vt 0.1222 0.4065
vt 0.1222 0.5926
vt 0.0432 0.5926
vt 0.7820 0.4993
vt 0.8209 0.5427
vt 0.8958 0.7180
vt 0.8626 0.7586
vt 0.7854 0.3834
vt 0.7820 0.3645
vt 0.8361 0.3834
vt 0.7820 0.4234
vt 0.8626 0.8906
vt 0.8626 0.8699
vt 0.9543 0.8906
vt 0.8667 0.9532
vt 0.6860 0.1999
vt 0.1876 0.8755
vt 0.1521 0.8641
vt 0.1629 0.8252
vt 0.8395 0.5179
vt 0.1223 0.8298
vt 0.1155 0.8023
vt 0.6565 0.5144
vt 0.6565 0.4310
vt 0.6470 0.5021
vt 0.8015 0.2358
vt 0.8015 0.1999
vt 0.6140 0.1999
vt 0.6499 0.1999
vt 0.8028 0.4698
vt 0.7820 0.5000
vt 0.7820 0.3645
vt 0.7854 0.3834
vt 0.8395 0.3645
vt 0.7287 0.1639
vt 0.7287 0.1998
vt 0.6913 0.5149
vt 0.6913 0.4305
vt 0.7882 0.1639
vt 0.7882 0.1998
vt 0.8395 0.6480
vt 0.8367 0.6291
vt 0.7820 0.6480
vt 0.4229 0.8113
vt 0.8395 0.5911
vt 0.9543 0.8526
vt 0.9543 0.8699
vt 0.9245 0.8526
vt 0.2015 0.7901
vt 0.4954 0.5098
vt 0.4930 0.5465
vt 0.4994 0.5234
vt 0.6206 0.5062
vt 0.6429 0.5062
vt 0.6171 0.3953
vt 0.5972 0.3899
vt 0.6130 0.4246
vt 0.4872 0.4141
vt 0.4776 0.4372
vt 0.5017 0.4372
vt 0.4994 0.3937
vt 0.5141 0.5533
vt 0.5141 0.5295
vt 0.6202 0.4400
vt 0.6425 0.4400
vt 0.7907 0.3079
vt 0.7907 0.2720
vt 0.8272 0.3079
vt 0.8028 0.4440
vt 0.8395 0.4343
vt 0.8395 0.5000
vt 0.8209 0.4698
vt 0.9245 0.7180
vt 0.9543 0.7586
vt 0.9245 0.8089
vt 0.8958 0.8089
vt 0.9543 0.7728
vt 0.6499 0.3626
vt 0.6140 0.3626
vt 0.3903 0.8259
vt 0.3606 0.8511
vt 0.3989 0.7939
vt 0.3217 0.8671
vt 0.3491 0.8202
vt 0.8209 0.4440
vt 0.7820 0.5186
vt 0.8028 0.5427
vt 0.8209 0.5427
vt 0.8028 0.5704
vt 0.7820 0.5791
vt 0.8395 0.5791
vt 0.8395 0.5911
vt 0.7820 0.5911
vt 0.8209 0.5704
vt 0.7849 0.6291
vt 0.4118 0.4158
vt 0.7582 0.2720
vt 0.7820 0.6480
vt 0.7849 0.6291
vt 0.8367 0.6291
vt 0.8361 0.3834
vt 0.9245 0.8089
vt 0.9245 0.8526
vt 0.9543 0.7728
vt 0.4613 0.5130
vt 0.4717 0.5057
vt 0.7077 0.5316
vt 0.7077 0.4138
vt 0.9502 0.9532
vt 0.9543 0.9833
vt 0.8626 0.9833
vt 0.5462 0.6739
vt 0.8093 0.6739
vt 0.5462 0.7956
vt 0.9245 0.6667
vt 0.9491 0.2516
vt 0.9543 0.7586
vt 0.8667 0.9532
vt 0.8626 0.9833
vt 0.9502 0.9532
vt 0.9245 0.7180
vt 0.8958 0.7180
vt 0.9543 0.8906
vt 0.9543 0.8699
vt 0.8626 0.8906
vt 0.7820 0.5911
vt 0.9543 0.8526
vt 0.8958 0.8526
vt 0.8958 0.8089
vt 0.8626 0.7728
vt 0.6470 0.4439
vt 0.5904 0.4436
vt 0.4717 0.4436
vt 0.5244 0.4436
vt 0.5135 0.5661
vt 0.6013 0.5661
vt 0.5927 0.5453
vt 0.5899 0.5018
vt 0.5221 0.5453
vt 0.5947 0.5548
vt 0.5201 0.5548
vt 0.5249 0.5018
vt 0.5994 0.1671
vt 0.1120 0.6920
vt 0.2006 0.6920
vt 0.1120 0.7965
vt 0.3109 0.7901
vt 0.3118 0.6920
vt 0.1855 0.2267
vt 0.3269 0.2267
vt 0.1899 0.5992
vt 0.1899 0.6463
vt 0.1652 0.6630
vt 0.1178 0.6836
vt 0.1338 0.6447
vt 0.1583 0.6836
vt 0.1653 0.9833
vt 0.5034 0.6166
vt 0.1935 0.8791
vt 0.3589 0.6882
vt 0.8001 0.2359
vt 0.7607 0.2719
vt 0.1560 0.8023
vt 0.7221 0.2720
vt 0.7581 0.2720
vt 0.8209 0.4440
vt 0.9621 0.2103
vt 0.9491 0.2516
vt 0.8548 0.2103
vt 0.3612 0.7939
vt 0.0945 0.6733
vt 0.8395 0.5186
vt 0.8626 0.8699
vt 0.8626 0.8526
vt 0.1544 0.6104
vt 0.8548 0.2103
vt 0.9621 0.2103
vt 0.1630 0.1888
vt 0.5154 0.1671
vt 0.6128 0.1445
vt 0.3494 0.1177
vt 0.3494 0.1888
vt 0.1630 0.1177
vt 0.8548 0.1328
vt 0.9621 0.1328
vt 0.8548 0.1328
vt 0.9621 0.1328
vt 0.5020 0.1023
vt 0.5020 0.1445
vt 0.6128 0.1023
vt 0.7658 0.8782
vt 0.8353 0.8203
vt 0.7658 0.9677
vt 0.5963 0.9677
vt 0.5269 0.9852
vt 0.5269 0.8203
vt 0.5963 0.8782
vt 0.4258 0.0133
vt 0.4258 0.1177
vt 0.0865 0.0133
vt 0.4566 0.0403
vt 0.4566 0.1023
vt 0.6582 0.0403
vt 0.7854 0.1328
vt 0.6980 0.0191
vt 0.9830 0.1328
vt 0.6980 0.0191
vt 0.7854 0.1328
vt 0.9830 0.1328
vt 0.8353 0.9852
vt 0.4753 0.5261
vt 0.4712 0.5098
vt 0.6861 0.3513
vt 0.7221 0.1999
vt 0.5092 0.6420
vt 0.6500 0.2982
vt 0.0432 0.4097
vt 0.7220 0.1999
vt 0.7581 0.3127
vt 0.6140 0.2508
vt 0.3194 0.6509
vt 0.5971 0.5259
vt 0.6624 0.1998
vt 0.0432 0.4065
vt 0.8395 0.3645
vt 0.8395 0.4234
vt 0.6500 0.1999
vt 0.1876 0.8354
vt 0.6378 0.5253
vt 0.5967 0.4178
vt 0.6388 0.4143
vt 0.8272 0.2720
vt 0.3217 0.8270
vt 0.4118 0.5296
vt 0.7582 0.3079
vt 0.8395 0.6480
vt 0.8093 0.7956
vt 0.9543 0.9833
vt 0.8001 0.2719
vt 0.0865 0.1177
vt 0.6582 0.1023
vt 0.9830 0.0191
vt 0.9830 0.0191
vn -0.3057 0.9521 0.0000
vn -0.7955 0.6059 0.0000
vn -0.3846 0.9231 0.0000
vn 0.1486 -0.0000 0.9889
vn 0.0000 -0.1342 0.9910
vn -0.1775 -0.0000 0.9841
vn 0.0000 0.0651 0.9979
vn 0.3807 0.9247 0.0000
vn -1.0000 0.0000 0.0000
vn 0.0000 -0.1342 -0.9910
vn -0.0744 -0.0000 0.9972
vn 0.9980 -0.0638 0.0000
vn -0.9701 0.2425 0.0000
vn -0.0000 -0.0000 1.0000
vn 0.6459 0.7634 0.0000
vn 0.9487 0.3162 0.0000
vn -0.8575 -0.5145 0.0000
vn 0.0000 -0.9998 0.0186
vn -0.9784 -0.0305 0.2046
vn -0.7557 0.6549 0.0000
vn -0.0744 0.0000 -0.9972
vn 0.0000 0.0000 -1.0000
vn -0.2425 -0.9701 0.0000
vn 0.9985 -0.0429 0.0348
vn 0.0060 -0.9999 -0.0094
vn 0.2643 -0.9644 0.0092
vn 0.4530 0.8915 -0.0000
vn 0.0716 0.9938 -0.0853
vn 1.0000 0.0000 0.0000
vn 0.0000 -1.0000 0.0000
vn 0.0000 1.0000 -0.0000
vn 0.9925 -0.0000 0.1219
vn -0.7119 0.7023 0.0000
vn -0.8079 -0.5893 0.0000
vn 0.8618 -0.5072 0.0000
vn 0.9996 0.0285 0.0000
vn 0.9660 0.2585 0.0000
vn -0.0133 0.9999 -0.0000
vn 0.0716 0.9929 0.0951
vn -0.9059 0.4235 0.0000
vn -0.2993 -0.9542 0.0000
vn -0.0037 1.0000 -0.0053
vn -0.7119 -0.7023 0.0000
vn 0.6585 -0.7526 0.0000
vn 0.0848 0.0000 -0.9964
vn 0.9896 -0.1439 0.0000
vn 0.6578 -0.7532 0.0000
vn 0.0848 -0.0000 0.9964
vn 0.5751 0.8181 0.0000
vn 0.9782 -0.2079 0.0000
vn 0.3821 -0.9241 0.0000
vn -0.0246 0.9997 0.0000
vn 0.9938 0.0194 -0.1096
vn 0.0397 -0.9992 0.0000
vn 0.9901 -0.1400 0.0000
vn -0.9247 -0.3807 0.0000
vn 0.9950 0.0999 0.0000
vn -0.0037 1.0000 0.0059
vn 0.0018 -1.0000 -0.0000
vn 0.7310 -0.6824 0.0000
vn 0.0000 -1.0000 -0.0008
vn 0.0000 -1.0000 0.0008
vn 0.0679 -0.9977 0.0000
vn 0.1486 0.0000 -0.9889
vn 0.9578 -0.2873 0.0000
vn 0.6578 0.7532 0.0000
vn -0.0133 -0.9999 0.0000
vn -0.9856 0.0000 -0.1688
vn -0.1775 0.0000 -0.9841
vn 0.8298 -0.5581 0.0000
vn -0.9990 -0.0453 0.0000
vn -0.9733 -0.0306 -0.2277
vn -0.8298 -0.5581 0.0000
vn -0.9950 0.0999 0.0000
vn -0.9996 0.0285 0.0000
vn -0.8618 -0.5072 0.0000
vn 0.0679 0.9977 0.0000
vn -0.9782 -0.2079 0.0000
vn -0.9884 0.0000 0.1518
vn -0.9901 -0.1400 0.0000
vn 0.0000 0.0651 -0.9979
vn 0.0000 -0.0101 -0.9999
vn 0.0000 -0.0101 0.9999
vn 0.0060 -0.9999 0.0085
vn -0.9084 -0.4180 0.0000
vn -0.9908 0.0000 -0.1356
vn 0.0000 -0.9998 -0.0208
vn 0.0000 0.9783 -0.2073
vn -0.9925 -0.0000 0.1219
vn 0.0000 0.9732 0.2299
vn 0.5588 0.8293 0.0000
vn 0.0000 0.9999 -0.0115
vn 0.9784 -0.0305 0.2046
vn 0.9429 0.3330 0.0000
vn 0.0000 0.9999 0.0129
vn 0.0003 -1.0000 -0.0003
vn 0.0003 -1.0000 0.0003
vn -0.9429 0.3329 0.0000
vn 0.9653 -0.0307 -0.2593
vn 0.0000 0.2991 0.9542
vn 0.0000 0.2991 -0.9542
vn 0.0000 0.6092 0.7930
vn 0.9884 -0.0000 0.1518
vn 0.9989 -0.0477 0.0000
vn 0.2577 -0.9662 0.0000
vn -0.9980 -0.0638 0.0000
vn 0.9856 0.0000 -0.1688
vn 0.9429 0.3329 -0.0000
vn -0.9429 0.3330 -0.0000
usemtl croce_1
s off
f 70/1/1 19/2/1 4/3/1
f 54/4/2 56/5/2 116/6/2
f 74/7/3 82/8/3 26/9/3
f 44/10/4 38/11/4 43/12/4
f 32/13/5 31/14/5 41/15/5
f 45/16/6 39/17/6 40/18/6
f 52/19/7 51/20/7 32/13/7
f 73/21/8 77/22/8 3/23/8
f 103/24/9 104/25/9 43/26/9
f 101/27/10 91/28/10 92/29/10
f 37/30/11 38/11/11 59/31/11
f 47/32/12 33/33/12 3/34/12
f 18/35/13 84/36/13 79/37/13
f 53/38/14 55/39/14 54/40/14
f 87/41/15 73/21/15 25/42/15
f 63/43/16 6/44/16 20/45/16
f 48/46/14 47/47/14 49/48/14
f 21/49/17 71/50/17 22/51/17
f 11/52/18 53/53/18 9/54/18
f 16/55/14 27/56/14 26/57/14
f 27/56/14 28/58/14 11/59/14
f 49/48/14 51/20/14 52/19/14
f 30/60/19 35/61/19 15/62/19
f 19/2/20 70/1/20 84/36/20
f 98/63/21 97/64/21 120/65/21
f 73/66/22 86/67/22 77/68/22
f 67/69/22 83/70/22 85/71/22
f 76/72/23 86/73/23 1/74/23
f 68/75/24 16/76/24 29/77/24
f 113/78/25 65/79/25 96/80/25
f 68/81/26 88/82/26 16/83/26
f 79/84/27 117/85/27 7/86/27
f 5/87/28 57/88/28 34/89/28
f 106/90/29 105/91/29 45/92/29
f 96/80/30 65/79/30 36/93/30
f 78/94/31 5/87/31 34/89/31
f 14/95/32 36/96/32 16/76/32
f 39/97/33 45/98/33 99/99/33
f 55/100/34 53/53/34 113/78/34
f 51/101/35 49/102/35 111/103/35
f 31/104/36 51/101/36 111/103/36
f 81/105/37 87/41/37 25/42/37
f 56/5/38 39/97/38 116/6/38
f 4/106/14 19/107/14 17/108/14
f 78/94/39 94/109/39 117/85/39
f 19/107/14 18/110/14 7/111/14
f 116/112/22 115/113/22 114/114/22
f 65/115/40 74/7/40 9/116/40
f 83/117/41 15/118/41 22/51/41
f 10/119/42 33/120/42 54/4/42
f 46/121/43 40/122/43 106/123/43
f 88/82/44 75/124/44 28/125/44
f 99/126/45 100/127/45 115/113/45
f 75/124/46 80/128/46 11/129/46
f 104/130/47 98/131/47 44/132/47
f 56/133/48 55/39/48 40/18/48
f 117/85/49 119/134/49 57/88/49
f 107/135/50 109/136/50 77/137/50
f 48/46/14 34/138/14 47/47/14
f 78/139/22 70/140/22 69/141/22
f 66/142/22 73/66/22 81/143/22
f 88/144/22 68/145/22 74/146/22
f 66/142/22 86/67/22 73/66/22
f 71/147/22 64/148/22 63/149/22
f 72/150/22 71/147/22 63/149/22
f 72/150/22 63/149/22 85/71/22
f 62/151/22 61/152/22 69/141/22
f 88/144/22 65/153/22 80/154/22
f 88/144/22 74/146/22 65/153/22
f 17/155/51 69/156/51 2/157/51
f 12/158/52 54/4/52 114/159/52
f 93/160/31 33/120/31 66/161/31
f 82/162/53 68/75/53 96/163/53
f 11/52/54 113/78/54 53/53/54
f 76/164/55 1/165/55 93/166/55
f 8/167/56 64/168/56 21/49/56
f 25/169/14 24/170/14 12/171/14
f 24/170/14 3/172/14 23/173/14
f 80/174/54 113/78/54 11/52/54
f 14/95/57 96/163/57 36/96/57
f 66/161/58 114/159/58 93/160/58
f 35/175/30 6/176/30 63/177/30
f 8/178/59 58/179/59 118/180/59
f 120/181/60 118/180/60 60/182/60
f 58/179/61 8/178/61 6/176/61
f 63/177/62 64/183/62 118/180/62
f 60/182/63 38/184/63 120/181/63
f 97/64/64 98/63/64 104/185/64
f 69/156/65 17/155/65 78/186/65
f 43/187/66 37/188/66 97/189/66
f 40/122/67 55/100/67 100/190/67
f 61/191/68 62/192/68 94/193/68
f 107/135/12 77/137/12 93/166/12
f 120/65/22 119/194/22 117/195/22
f 105/196/69 106/197/69 99/126/69
f 91/198/70 101/199/70 41/200/70
f 42/201/31 41/202/31 102/203/31
f 15/62/71 83/204/71 30/60/71
f 90/205/72 83/204/72 95/206/72
f 32/207/73 42/208/73 92/209/73
f 95/206/74 67/210/74 13/211/74
f 92/209/75 112/212/75 32/207/75
f 112/212/76 110/213/76 52/214/76
f 37/188/77 59/215/77 97/189/77
f 110/213/78 108/216/78 62/192/78
f 4/217/79 2/218/79 34/219/79
f 113/220/22 96/221/22 114/114/22
f 2/218/80 94/193/80 34/219/80
f 118/222/22 117/195/22 95/223/22
f 112/224/81 92/29/81 111/225/81
f 107/226/22 93/227/22 108/228/22
f 109/229/22 110/230/22 112/224/22
f 107/226/22 108/228/22 110/230/22
f 93/227/22 96/221/22 94/231/22
f 96/221/82 89/232/82 95/223/82
f 58/233/14 35/234/14 57/235/14
f 33/236/14 34/138/14 36/237/14
f 53/38/14 54/40/14 36/237/14
f 30/238/83 29/239/83 35/234/83
f 15/240/14 13/241/14 20/242/14
f 8/243/14 21/244/14 6/245/14
f 42/246/5 32/13/5 41/15/5
f 102/247/10 101/27/10 92/29/10
f 50/248/14 48/46/14 49/48/14
f 9/54/84 53/53/84 36/93/84
f 26/57/14 27/56/14 9/249/14
f 86/73/85 66/250/85 23/251/85
f 50/248/14 49/48/14 52/19/14
f 83/204/86 67/210/86 95/206/86
f 80/174/87 65/79/87 113/78/87
f 117/85/27 57/88/27 7/86/27
f 7/86/88 57/88/88 5/87/88
f 35/61/89 13/211/89 15/62/89
f 79/84/90 78/94/90 117/85/90
f 17/108/14 19/107/14 5/252/14
f 13/253/91 67/254/91 20/45/91
f 12/158/92 10/119/92 54/4/92
f 77/137/50 109/136/50 3/34/50
f 49/102/50 47/32/50 3/34/50
f 110/213/78 62/192/78 4/217/78
f 81/255/52 12/158/52 114/159/52
f 36/96/93 29/77/93 16/76/93
f 1/165/55 33/33/55 93/166/55
f 123/256/94 89/257/94 121/258/94
f 10/259/14 24/170/14 23/173/14
f 60/260/14 58/233/14 57/235/14
f 82/162/57 96/163/57 14/95/57
f 81/255/95 114/159/95 66/161/95
f 64/183/59 8/178/59 118/180/59
f 35/175/96 58/179/96 6/176/96
f 95/261/97 63/177/97 118/180/97
f 109/136/50 49/102/50 3/34/50
f 35/61/74 95/206/74 13/211/74
f 50/262/78 110/213/78 4/217/78
f 48/263/78 50/262/78 4/217/78
f 61/191/80 94/193/80 2/218/80
f 111/225/22 109/229/22 112/224/22
f 109/229/22 107/226/22 110/230/22
f 21/244/14 22/264/14 6/245/14
f 6/245/14 22/264/14 20/242/14
f 122/265/98 30/60/98 124/266/98
f 96/163/99 68/75/99 89/257/99
f 29/239/100 30/238/100 122/267/100
f 90/268/101 89/232/101 123/269/101
f 125/270/14 121/271/14 126/272/14
f 121/258/29 125/273/29 127/274/29
f 126/275/9 122/265/9 128/276/9
f 128/277/22 124/278/22 127/279/22
f 125/280/31 129/281/31 127/282/31
f 128/283/31 127/282/31 132/284/31
f 130/285/31 126/286/31 128/283/31
f 133/287/102 129/288/102 134/289/102
f 125/280/31 126/286/31 129/281/31
f 136/290/22 132/291/22 135/292/22
f 129/293/29 133/294/29 131/295/29
f 134/296/9 130/297/9 132/298/9
f 121/271/100 29/239/100 122/267/100
f 124/278/101 90/268/101 123/269/101
f 127/282/31 131/299/31 132/284/31
f 126/286/31 130/285/31 129/281/31
f 84/300/22 70/140/22 79/301/22
f 62/302/1 70/1/1 4/3/1
f 114/159/2 54/4/2 116/6/2
f 82/8/3 14/303/3 26/9/3
f 38/11/4 37/30/4 43/12/4
f 46/304/6 45/16/6 40/18/6
f 51/20/7 31/14/7 32/13/7
f 24/305/8 73/21/8 3/23/8
f 104/25/9 44/306/9 43/26/9
f 38/11/11 60/260/11 59/31/11
f 33/33/103 1/165/103 3/34/103
f 7/307/13 18/35/13 79/37/13
f 55/39/14 56/133/14 54/40/14
f 73/21/15 24/305/15 25/42/15
f 85/308/16 63/43/16 20/45/16
f 71/50/17 72/309/17 22/51/17
f 14/310/14 16/55/14 26/57/14
f 9/249/14 27/56/14 11/59/14
f 18/35/20 19/2/20 84/36/20
f 97/64/21 119/194/21 120/65/21
f 86/67/22 76/311/22 77/68/22
f 83/70/22 72/150/22 85/71/22
f 86/73/23 23/251/23 1/74/23
f 89/257/104 68/75/104 29/77/104
f 88/82/105 27/312/105 16/83/105
f 46/313/29 106/90/29 45/92/29
f 65/79/30 9/54/30 36/93/30
f 94/109/31 78/94/31 34/89/31
f 45/98/33 105/314/33 99/99/33
f 115/315/34 55/100/34 113/78/34
f 49/102/35 109/136/35 111/103/35
f 91/198/36 31/104/36 111/103/36
f 12/316/37 81/105/37 25/42/37
f 39/97/38 99/99/38 116/6/38
f 2/317/14 4/106/14 17/108/14
f 5/252/14 19/107/14 7/111/14
f 115/113/22 113/220/22 114/114/22
f 74/7/40 26/9/40 9/116/40
f 72/309/41 83/117/41 22/51/41
f 40/122/43 100/190/43 106/123/43
f 27/312/44 88/82/44 28/125/44
f 116/112/45 99/126/45 115/113/45
f 28/125/46 75/124/46 11/129/46
f 98/131/47 38/184/47 44/132/47
f 39/17/48 56/133/48 40/18/48
f 119/134/49 59/215/49 57/88/49
f 34/138/14 33/236/14 47/47/14
f 73/66/22 87/318/22 81/143/22
f 68/145/22 82/319/22 74/146/22
f 70/140/22 62/151/22 69/141/22
f 75/320/22 88/144/22 80/154/22
f 69/156/51 61/321/51 2/157/51
f 33/120/31 10/119/31 66/161/31
f 64/168/56 71/50/56 21/49/56
f 24/170/14 10/259/14 12/171/14
f 3/172/14 1/322/14 23/173/14
f 95/261/30 35/175/30 63/177/30
f 118/180/60 58/179/60 60/182/60
f 38/184/63 98/131/63 120/181/63
f 103/323/64 97/64/64 104/185/64
f 17/155/65 5/324/65 78/186/65
f 103/325/66 43/187/66 97/189/66
f 55/100/67 115/315/67 100/190/67
f 62/192/106 108/216/106 94/193/106
f 77/137/107 76/164/107 93/166/107
f 118/222/22 120/65/22 117/195/22
f 106/197/69 100/127/69 99/126/69
f 31/104/70 91/198/70 41/200/70
f 41/202/31 101/326/31 102/203/31
f 83/204/71 90/205/71 30/60/71
f 42/208/73 102/327/73 92/209/73
f 112/212/75 52/214/75 32/207/75
f 110/213/76 50/262/76 52/214/76
f 59/215/77 119/134/77 97/189/77
f 48/263/106 4/217/106 34/219/106
f 96/221/22 93/227/22 114/114/22
f 117/195/22 94/231/22 95/223/22
f 92/29/81 91/28/81 111/225/81
f 93/227/22 94/231/22 108/228/22
f 96/221/22 95/223/22 94/231/22
f 89/232/82 90/268/82 95/223/82
f 35/234/14 34/138/14 57/235/14
f 34/138/14 35/234/14 36/237/14
f 54/40/14 33/236/14 36/237/14
f 29/239/83 36/237/83 35/234/83
f 22/264/14 15/240/14 20/242/14
f 66/250/85 10/328/85 23/251/85
f 67/254/91 85/308/91 20/45/91
f 89/257/108 29/77/108 121/258/108
f 59/31/14 60/260/14 57/235/14
f 30/60/109 90/205/109 124/266/109
f 121/271/14 122/267/14 126/272/14
f 123/256/29 121/258/29 127/274/29
f 122/265/9 124/266/9 128/276/9
f 124/278/22 123/269/22 127/279/22
f 129/281/31 131/299/31 127/282/31
f 132/284/31 130/285/31 128/283/31
f 129/288/102 130/329/102 134/289/102
f 132/291/22 131/330/22 135/292/22
f 133/294/29 135/331/29 131/295/29
f 136/332/9 134/296/9 132/298/9
f 70/140/22 78/139/22 79/301/22
