# Blender v2.77 (sub 0) OBJ File: ''
# www.blender.org
mtllib gravstone_4.mtl
o lapide2_Cube.001
v 1.334283 0.675793 0.117091
v -1.402125 0.675793 0.117091
v 1.529354 4.217908 0.117092
v -1.597197 3.819254 0.117091
v 1.399662 0.664597 0.258006
v -1.467504 0.664597 0.258006
v 1.604053 4.222384 0.258007
v -1.671897 3.839841 0.258005
v 1.549302 0.674470 0.258006
v -1.617144 0.674470 0.258006
v 1.793792 3.964541 0.258007
v -1.861635 3.964541 0.258005
v -1.206378 3.873503 0.117091
v 1.055838 4.356510 0.117092
v 1.549302 0.674470 -0.151643
v -1.617144 0.674470 -0.151644
v 1.793792 3.964541 -0.258633
v -1.861635 4.065005 -0.258634
v 1.334283 0.641861 0.265280
v -1.402125 0.641861 0.265279
v 1.399662 0.630665 0.406194
v -1.467504 0.630665 0.406194
v 1.680896 0.640539 0.406194
v -1.755287 0.640539 0.406194
v 1.680896 0.643039 -0.151643
v -1.755287 0.643039 -0.151644
v 1.334283 0.477090 0.265280
v -1.402125 0.477090 0.265279
v 1.399662 0.465895 0.406194
v -1.467504 0.465895 0.406194
v 1.680896 0.475768 0.406194
v -1.755287 0.475768 0.406194
v 1.680896 0.017304 -0.151643
v 1.334283 0.458044 0.377198
v -1.402125 0.458044 0.377197
v 1.399662 0.446849 0.518112
v -1.467504 0.446849 0.518112
v 1.680896 0.456722 0.518112
v -1.755287 0.456722 0.518112
v -1.755287 0.017304 -0.151644
v 1.334283 0.016125 0.377198
v -1.402125 0.016125 0.377197
v 1.399662 0.019950 0.518112
v -1.467504 0.019950 0.518112
v 1.680896 0.022313 0.518112
v -1.755287 0.014803 0.518112
v 0.904595 4.327036 0.117092
v 0.977154 4.295127 -0.258633
v 1.793792 4.347084 0.258007
v 1.072900 3.980397 -0.258633
v 1.793792 4.347084 -0.258633
v 0.950193 4.050518 0.117092
v 1.026492 3.548209 0.117092
v 1.190804 3.525622 -0.236019
v 0.913625 3.986880 -0.258633
v 1.176635 4.305841 -0.258633
v 0.796356 4.033389 0.117092
vt 0.6333 0.4168
vt 0.6646 0.9718
vt 0.6092 0.4193
vt 0.0974 0.9317
vt 0.1348 0.4184
vt 0.1581 0.4168
vt 0.6570 0.4184
vt 0.6941 0.9313
vt 0.5223 0.3882
vt 0.2367 0.0788
vt 0.5382 0.0555
vt 0.6397 0.9719
vt 0.5659 0.9935
vt 0.0159 0.9414
vt 0.0711 0.4137
vt 0.8662 0.8158
vt 0.7789 0.8332
vt 0.7747 0.8120
vt 0.7744 0.2744
vt 0.7824 0.3197
vt 0.7585 0.3237
vt 0.8590 0.7715
vt 0.8351 0.7756
vt 0.7623 0.3342
vt 0.7384 0.3382
vt 0.6863 0.2869
vt 0.6895 0.3093
vt 0.8113 0.7685
vt 0.8352 0.7645
vt 0.9524 0.6528
vt 0.9542 0.6280
vt 0.9804 0.6280
vt 0.5460 0.0296
vt 0.9524 0.1668
vt 0.9539 0.1219
vt 0.9802 0.1219
vt 0.9539 0.6987
vt 0.9802 0.6987
vt 0.7289 0.2376
vt 0.8203 0.1776
vt 0.7441 0.2402
vt 0.7441 0.2626
vt 0.9542 0.1916
vt 0.9804 0.1916
vt 0.9338 0.6421
vt 0.9338 0.2057
vt 0.9519 0.6421
vt 0.9519 0.2057
vt 0.9294 0.1951
vt 0.9113 0.1951
vt 0.9116 0.1502
vt 0.9297 0.1502
vt 0.1270 0.9122
vt 0.1823 0.4194
vt 0.9294 0.6527
vt 0.9116 0.6987
vt 0.9113 0.6527
vt 0.9297 0.6987
vt 0.8230 0.1731
vt 0.7316 0.1731
vt 0.7319 0.1128
vt 0.8401 0.6987
vt 0.8410 0.6528
vt 0.9106 0.6987
vt 0.8404 0.1916
vt 0.8410 0.1668
vt 0.9108 0.1916
vt 0.8404 0.6280
vt 0.9108 0.6280
vt 0.8413 0.1219
vt 0.9106 0.1219
vt 0.7215 0.4137
vt 0.7748 0.9276
vt 0.5279 0.4036
vt 0.7472 0.1102
vt 0.2129 0.9182
vt 0.1520 0.9098
vt 0.1533 0.0113
vt 0.1546 0.0764
vt 0.1148 0.0895
vt 0.6951 0.9912
vt 0.7771 0.9885
vt 0.1646 0.3969
vt 0.1130 0.3332
vt 0.1152 0.1061
vt 0.5613 0.8674
vt 0.1547 0.0974
vt 0.1868 0.1057
vt 0.1882 0.0889
vt 0.7758 0.0820
vt 0.7316 0.0819
vt 0.7795 0.0273
vt 0.0993 0.0053
vt 0.1106 0.0377
vt 0.0963 0.0290
vt 0.1935 0.0133
vt 0.7473 0.0877
vt 0.8234 0.0877
vt 0.5960 0.4069
vt 0.7289 0.1783
vt 0.5494 0.9458
vt 0.9579 0.0349
vt 0.9586 0.0873
vt 0.9150 0.0332
vt 0.8430 0.0182
vt 0.8443 0.0714
vt 0.9158 0.0873
vt 0.5423 0.9889
vt 0.5254 0.9431
vt 0.1107 0.4096
vt 0.1029 0.3870
vt 0.1145 0.3747
vt 0.8387 0.7992
vt 0.7542 0.3002
vt 0.9786 0.6528
vt 0.9786 0.1668
vt 0.8203 0.2630
vt 0.9091 0.6528
vt 0.9091 0.1668
vt 0.7329 0.0276
vt 0.6141 0.0329
vn -0.9043 0.0520 0.4237
vn 0.0000 0.0000 1.0000
vn 0.0000 -0.0296 -0.9996
vn -0.9974 -0.0719 0.0000
vn 0.2323 0.9726 0.0044
vn 0.0334 0.9742 0.2231
vn -0.0342 0.9742 0.2231
vn 0.2997 0.9300 0.2129
vn -0.2219 0.9751 0.0044
vn -0.2997 0.9300 0.2129
vn 0.9071 0.0000 0.4209
vn 0.0000 0.0000 -1.0000
vn 1.0000 0.0000 0.0000
vn -0.9071 0.0000 0.4209
vn -0.0000 0.9858 0.1678
vn -0.1893 0.9680 0.1647
vn -0.0346 0.9852 0.1677
vn 0.9038 0.0582 0.4240
vn 0.1893 0.9680 0.1647
vn 0.0338 0.9853 0.1677
vn -1.0000 0.0000 0.0000
vn -0.0000 0.9748 0.2232
vn 0.9973 -0.0741 0.0000
vn -0.0659 0.9859 -0.1541
vn -0.1589 0.7396 0.6541
vn -0.8866 0.3061 -0.3467
vn -0.0804 0.9918 -0.0998
vn -0.5309 0.8079 0.2558
vn -0.4389 0.8985 0.0000
vn 0.2485 0.8488 0.4667
vn -0.0146 -0.0314 -0.9994
vn 0.9592 -0.1977 0.2020
vn -0.9014 -0.1369 -0.4107
vn 0.8360 0.5120 0.1975
vn -0.0014 -0.0498 -0.9988
vn 0.0019 -0.0314 -0.9995
vn -0.0011 -0.0499 -0.9988
vn 0.5415 0.8240 0.1667
vn 0.5397 0.8264 0.1607
vn -0.1103 0.7944 0.5972
vn -0.8831 0.0486 0.4666
vn -0.9971 -0.0741 -0.0144
vn 0.2497 0.9683 0.0000
vn 0.0632 0.9584 0.2784
vn -0.0633 0.9591 0.2758
vn -0.2385 0.9711 0.0000
vn 0.8855 0.0550 0.4614
vn -0.9000 0.2869 -0.3281
vn 0.8895 -0.3279 0.3182
vn -0.9323 -0.2545 -0.2570
vn 0.8409 0.3989 0.3658
usemtl lapide4
s off
f 5/1/1 7/2/1 1/3/1
f 12/4/2 10/5/2 6/6/2
f 9/7/2 11/8/2 7/2/2
f 16/9/3 54/10/3 15/11/3
f 3/12/2 14/13/2 1/3/2
f 18/14/4 16/15/4 10/5/4
f 23/16/5 25/17/5 15/18/5
f 24/19/6 22/20/6 6/21/6
f 21/22/7 23/16/7 5/23/7
f 6/21/8 20/24/8 2/25/8
f 26/26/9 24/19/9 16/27/9
f 1/28/10 19/29/10 5/23/10
f 30/30/11 28/31/11 20/32/11
f 15/11/12 25/33/12 16/9/12
f 29/34/2 31/35/2 23/36/2
f 32/37/2 30/30/2 24/38/2
f 38/39/13 33/40/13 31/41/13
f 31/41/13 33/40/13 23/42/13
f 27/43/14 29/34/14 19/44/14
f 28/31/2 27/43/2 20/32/2
f 35/45/15 34/46/15 28/47/15
f 27/48/16 34/46/16 29/49/16
f 36/50/17 38/51/17 31/52/17
f 8/53/18 6/6/18 2/54/18
f 30/55/19 35/45/19 28/47/19
f 39/56/20 37/57/20 32/58/20
f 40/59/21 46/60/21 39/61/21
f 46/62/2 44/63/2 39/64/2
f 41/65/14 43/66/14 34/67/14
f 42/68/2 41/65/2 35/69/2
f 44/63/11 42/68/11 35/69/11
f 20/24/22 19/29/22 2/25/22
f 43/66/2 45/70/2 38/71/2
f 15/72/23 17/73/23 9/7/23
f 22/20/8 20/24/8 6/21/8
f 5/23/10 19/29/10 21/22/10
f 16/9/12 25/33/12 26/74/12
f 29/49/16 34/46/16 36/50/16
f 37/57/19 35/45/19 30/55/19
f 32/75/21 40/59/21 39/61/21
f 2/54/2 13/76/2 4/77/2
f 51/78/24 56/79/24 14/80/24
f 49/81/13 11/8/13 51/82/13
f 18/83/25 13/84/25 47/85/25
f 2/54/2 1/3/2 53/86/2
f 18/83/12 48/87/12 55/88/12
f 50/89/12 56/79/12 51/78/12
f 52/90/26 14/91/26 50/92/26
f 48/87/27 18/83/27 47/85/27
f 49/93/28 3/94/28 7/95/28
f 49/93/29 51/78/29 3/94/29
f 3/94/30 51/78/30 14/80/30
f 15/11/31 54/10/31 17/96/31
f 24/97/21 26/98/21 40/59/21
f 26/74/12 25/33/12 40/99/12
f 45/100/13 33/40/13 38/39/13
f 14/13/2 52/101/2 53/86/2
f 11/8/2 49/81/2 7/2/2
f 48/102/32 47/103/32 55/104/32
f 54/105/33 53/106/33 52/90/33
f 54/105/34 55/104/34 57/107/34
f 13/76/2 2/54/2 53/86/2
f 47/108/2 13/76/2 57/109/2
f 13/76/2 53/86/2 57/109/2
f 18/83/35 55/88/35 54/10/35
f 16/9/36 18/83/36 54/10/36
f 54/10/37 50/89/37 17/96/37
f 12/110/38 8/111/38 4/112/38
f 18/83/39 12/110/39 4/112/39
f 18/83/40 4/112/40 13/84/40
f 7/2/41 3/12/41 1/3/41
f 8/53/2 12/4/2 6/6/2
f 5/1/2 9/7/2 7/2/2
f 12/4/42 18/14/42 10/5/42
f 9/113/43 23/16/43 15/18/43
f 10/114/44 24/19/44 6/21/44
f 23/16/45 9/113/45 5/23/45
f 24/19/46 10/114/46 16/27/46
f 22/115/11 30/30/11 20/32/11
f 21/116/2 29/34/2 23/36/2
f 30/30/2 22/115/2 24/38/2
f 33/40/13 25/117/13 23/42/13
f 29/34/14 21/116/14 19/44/14
f 27/43/2 19/44/2 20/32/2
f 34/46/15 27/48/15 28/47/15
f 29/49/17 36/50/17 31/52/17
f 4/77/47 8/53/47 2/54/47
f 37/57/20 30/55/20 32/58/20
f 44/63/2 37/118/2 39/64/2
f 43/66/14 36/119/14 34/67/14
f 41/65/2 34/67/2 35/69/2
f 37/118/11 44/63/11 35/69/11
f 19/29/22 1/28/22 2/25/22
f 36/119/2 43/66/2 38/71/2
f 17/73/23 11/8/23 9/7/23
f 11/8/13 17/73/13 51/82/13
f 17/96/12 50/89/12 51/78/12
f 14/91/48 56/120/48 50/92/48
f 32/75/21 24/97/21 40/59/21
f 25/33/12 33/121/12 40/99/12
f 1/3/2 14/13/2 53/86/2
f 47/103/49 57/107/49 55/104/49
f 50/92/50 54/105/50 52/90/50
f 53/106/51 54/105/51 57/107/51
