# Blender v2.77 (sub 0) OBJ File: ''
# www.blender.org
mtllib gravstone_6.mtl
o lapide6_Plane.002
v 1.512422 0.555188 0.320412
v -1.511612 0.555188 0.320412
v 1.769711 5.083137 0.556131
v -1.768902 5.083137 0.556131
v 0.000405 6.181732 0.556131
v -0.879160 5.687364 0.556131
v 0.879970 5.687364 0.556131
v -1.303368 5.192996 0.556131
v 1.304177 5.192996 0.556131
v 2.209578 5.385251 0.556131
v -2.208768 5.385251 0.556131
v 0.000405 6.483844 0.556131
v -1.097828 5.989478 0.556131
v 1.098638 5.989478 0.556131
v -1.627498 5.495110 0.556131
v 1.628308 5.495110 0.556131
v 1.284728 0.786716 0.162989
v -1.283918 0.786716 0.162989
v 1.503272 5.003546 0.162990
v -1.502462 5.003546 0.162990
v 0.000405 6.003509 0.162990
v -0.800193 5.553525 0.162990
v 0.801002 5.553525 0.162990
v -1.186315 5.103542 0.162990
v 1.187125 5.103542 0.162990
v 1.512422 -0.000314 -0.387781
v -1.511612 -0.000314 -0.387781
v 1.769711 5.083138 -0.387780
v -1.768902 5.083138 -0.387780
v 2.209578 5.385251 -0.387780
v -2.208768 5.385251 -0.387780
v 1.098638 5.989478 -0.387780
v -1.097828 5.989478 -0.387780
v -1.627498 5.495111 -0.387780
v 1.628308 5.495111 -0.387780
v 1.098638 5.989477 0.084175
v 0.000405 6.483845 0.084175
v -1.097828 5.989477 0.084175
v 0.558345 7.141844 -0.352722
v -0.453139 6.925377 -0.315128
v 0.453949 6.925377 -0.315128
v 0.453949 6.925378 0.011524
v -0.557536 7.141844 -0.352722
v -0.453139 6.925378 0.011524
v -0.557536 7.141845 0.049118
v -0.557536 7.063840 -0.352722
v 0.558345 7.063840 -0.352722
v 0.558345 7.063840 0.049118
v 0.558345 7.141845 0.049118
v -0.557536 7.063840 0.049118
v 0.299546 7.141844 -0.259526
v -0.298736 7.141844 -0.259526
v -0.298736 7.141845 -0.044078
v 0.299546 7.141845 -0.044078
v 0.170929 8.670102 -0.213209
v -0.170119 8.670102 -0.213209
v -0.170119 8.670102 -0.090394
v 0.170929 8.670102 -0.090394
v 0.220845 8.791316 -0.231185
v -0.220035 8.791316 -0.231185
v -0.220035 8.791316 -0.072419
v 0.220845 8.791316 -0.072419
v 0.198878 8.338002 -0.080329
v -0.198069 8.338002 -0.080329
v -0.198069 8.338002 -0.223274
v 0.198878 8.338002 -0.223274
v -0.217164 8.111102 -0.073453
v -0.217164 8.111102 -0.230151
v 0.217974 8.111102 -0.073453
v 0.217974 8.111102 -0.230151
v -0.523257 8.338002 -0.080329
v -0.523257 8.338002 -0.223274
v -0.542352 8.111102 -0.073453
v -0.542352 8.111102 -0.230151
v 0.508523 8.338002 -0.080329
v 0.508523 8.338002 -0.223274
v 0.527619 8.111102 -0.073453
v 0.527619 8.111102 -0.230151
v 0.602716 8.359406 -0.066845
v 0.602716 8.359405 -0.236758
v 0.625414 8.089698 -0.058671
v 0.625414 8.089697 -0.244932
v -0.641326 8.364526 -0.063620
v -0.641326 8.364525 -0.239984
v -0.664887 8.084578 -0.055135
v -0.664887 8.084578 -0.248468
v 1.512422 0.549438 0.637310
v -1.511612 0.549438 0.637310
v 1.512422 0.351030 0.637310
v -1.511612 0.351030 0.637310
v 1.512422 0.351030 0.973263
v -1.511612 0.351030 0.973263
v 1.512422 0.000000 0.973263
v -1.511612 0.000000 0.973263
vt 0.2778 0.9038
vt 0.2778 0.9415
vt 0.1679 0.8420
vt 0.1406 0.8797
vt 0.1149 0.7803
vt 0.4987 0.7666
vt 0.5537 0.8043
vt 0.4406 0.7803
vt 0.3876 0.8420
vt 0.0019 0.8043
vt 0.0568 0.7666
vt 0.8272 0.1528
vt 0.8362 0.1080
vt 0.7361 0.1080
vt 0.5878 0.1080
vt 0.6011 0.1528
vt 0.6361 0.1080
vt 0.8712 0.1528
vt 0.8845 0.1080
vt 0.5349 0.1080
vt 0.9374 0.1080
vt 0.0889 0.2011
vt 0.1174 0.2300
vt 0.4382 0.2300
vt 0.6451 0.1528
vt 0.4666 0.2011
vt 0.0901 0.7566
vt 0.1296 0.7691
vt 0.5613 0.3565
vt 0.6665 0.3565
vt 0.5613 0.4188
vt 0.5613 0.9857
vt 0.6402 0.9237
vt 0.6665 0.4188
vt 0.9213 0.2676
vt 0.9213 0.1602
vt 0.9875 0.2676
vt 0.9631 0.8428
vt 0.6864 0.8428
vt 0.9430 0.4453
vt 0.6975 0.8750
vt 0.6520 0.8664
vt 0.8611 0.2139
vt 0.8611 0.1602
vt 0.4848 0.2676
vt 0.4848 0.1602
vt 0.5509 0.2676
vt 0.2443 0.0962
vt 0.2662 0.0671
vt 0.4787 0.0962
vt 0.5613 0.4188
vt 0.5613 0.3565
vt 0.9395 0.3054
vt 0.9416 0.2912
vt 0.9167 0.3054
vt 0.6112 0.2139
vt 0.6112 0.1602
vt 0.7361 0.2139
vt 0.5613 0.9857
vt 0.6665 0.4188
vt 0.2717 0.0067
vt 0.2628 0.0395
vt 0.3490 0.0067
vt 0.2385 0.1128
vt 0.0122 0.1128
vt 0.0647 0.0939
vt 0.6845 0.2593
vt 0.6112 0.2676
vt 0.6845 0.2222
vt 0.4567 0.0671
vt 0.2662 0.0671
vt 0.4787 0.0962
vt 0.0647 0.0502
vt 0.4149 0.8797
vt 0.3344 0.9966
vt 0.2778 0.9415
vt 0.2628 0.0395
vt 0.2717 0.0067
vt 0.3579 0.0395
vt 0.7584 0.3385
vt 0.7584 0.2997
vt 0.7313 0.3408
vt 0.2628 0.0579
vt 0.3579 0.0579
vt 0.4787 0.1126
vt 0.2443 0.1126
vt 0.2443 0.1126
vt 0.4787 0.1126
vt 0.1860 0.0502
vt 0.2385 0.0313
vt 0.1860 0.0939
vt 0.6917 0.3442
vt 0.7313 0.3408
vt 0.6917 0.3849
vt 0.0122 0.0313
vt 0.9557 0.4773
vt 0.9577 0.5436
vt 0.9842 0.4773
vt 0.9577 0.5436
vt 0.9557 0.4773
vt 0.9822 0.5436
vt 0.9113 0.3564
vt 0.9113 0.4130
vt 0.8864 0.3564
vt 0.6232 0.2734
vt 0.6249 0.3292
vt 0.6618 0.2734
vt 0.6772 0.3382
vt 0.6772 0.3908
vt 0.9541 0.5677
vt 0.9822 0.5436
vt 0.9541 0.5677
vt 0.9858 0.5677
vt 0.8797 0.3160
vt 0.8157 0.3160
vt 0.8797 0.2930
vt 0.7584 0.3385
vt 0.7313 0.3882
vt 0.9395 0.4017
vt 0.9395 0.3546
vt 0.9167 0.4017
vt 0.9113 0.2924
vt 0.9113 0.3462
vt 0.8864 0.2924
vt 0.7313 0.3882
vt 0.7584 0.3905
vt 0.8742 0.3288
vt 0.7584 0.3905
vt 0.9484 0.2769
vt 0.9543 0.4703
vt 0.9914 0.2769
vt 0.9543 0.4703
vt 0.9484 0.2769
vt 0.9914 0.2769
vt 0.8742 0.4002
vt 0.7616 0.2851
vt 0.7584 0.2997
vt 0.7313 0.3020
vt 0.2628 0.0579
vt 0.3579 0.0395
vt 0.6772 0.3908
vt 0.6917 0.3849
vt 0.6772 0.3382
vt 0.8841 0.2760
vt 0.7584 0.4275
vt 0.9167 0.3503
vt 0.7584 0.4275
vt 0.6684 0.3282
vt 0.6668 0.2744
vt 0.7040 0.2744
vt 0.7610 0.4391
vt 0.7313 0.4252
vt 0.7610 0.4391
vt 0.7313 0.4252
vt 0.6917 0.3442
vt 0.5509 0.1602
vt 0.7616 0.2851
vt 0.7313 0.3020
vt 0.9421 0.4195
vt 0.9141 0.4195
vt 0.8835 0.4336
vt 0.8864 0.4130
vt 0.4655 0.7566
vt 0.2778 0.8815
vt 0.1778 0.8253
vt 0.3778 0.8253
vt 0.7131 0.9856
vt 0.7131 0.9465
vt 0.4260 0.7691
vt 0.9975 0.8664
vt 0.9521 0.8750
vt 0.9106 0.9136
vt 0.7361 0.1602
vt 0.2211 0.9966
vt 0.1406 0.8797
vt 0.4666 0.1756
vt 0.4666 0.2003
vt 0.0889 0.1756
vt 0.9082 0.0051
vt 0.9082 0.0433
vt 0.5641 0.0051
vt 0.4666 0.1317
vt 0.4666 0.1756
vt 0.0889 0.1317
vt 0.6756 0.9465
vt 0.6756 0.9244
vt 0.7131 0.9856
vt 0.7131 0.9465
vt 0.6756 0.9244
vt 0.9082 0.0433
vt 0.9082 0.0793
vt 0.5641 0.0433
vt 0.4149 0.8797
vt 0.8602 0.9870
vt 0.7893 0.9870
vt 0.7877 0.2222
vt 0.7877 0.2593
vt 0.7389 0.9136
vt 0.8611 0.2676
vt 0.0745 0.8180
vt 0.4811 0.8180
vt 0.7361 0.1528
vt 0.5652 0.1528
vt 0.9071 0.1528
vt 0.9875 0.1602
vt 0.7065 0.4453
vt 0.4567 0.0671
vt 0.6665 0.3565
vt 0.9146 0.2912
vt 0.6402 0.9237
vt 0.2443 0.0962
vt 0.3490 0.0067
vt 0.9842 0.4773
vt 0.6601 0.3292
vt 0.9858 0.5677
vt 0.8157 0.2930
vt 0.9167 0.3546
vt 0.8864 0.3462
vt 0.8742 0.4002
vt 0.9856 0.4703
vt 0.9856 0.4703
vt 0.8742 0.3288
vt 0.7282 0.2879
vt 0.3579 0.0579
vt 0.9136 0.2760
vt 0.9395 0.3503
vt 0.7023 0.3282
vt 0.7288 0.4364
vt 0.7288 0.4364
vt 0.7282 0.2879
vt 0.9142 0.4336
vt 0.0889 0.2003
vt 0.5641 0.0433
vt 0.0889 0.1756
vt 0.6756 0.9465
vt 0.5641 0.0793
vn 0.0000 0.0000 1.0000
vn -0.4557 -0.8107 0.3675
vn 0.7108 -0.6099 0.3504
vn -0.7108 -0.6099 0.3504
vn 0.2206 -0.9348 0.2784
vn -0.2206 -0.9348 0.2784
vn 0.5754 -0.0099 0.8178
vn 0.0000 0.5623 0.8270
vn 0.4557 -0.8107 0.3675
vn -0.5754 -0.0099 0.8178
vn 0.5662 -0.8243 0.0000
vn -0.9972 -0.0591 0.0463
vn 0.1857 0.9826 0.0000
vn 0.0000 0.0000 -1.0000
vn 0.6823 0.7310 0.0000
vn -0.1857 0.9826 0.0000
vn 0.0000 -0.2620 0.9651
vn -0.5662 -0.8243 0.0000
vn -0.2138 -0.9769 0.0000
vn -0.4105 0.9119 0.0000
vn 0.9987 -0.0505 -0.0000
vn -0.7985 -0.6020 0.0000
vn 0.0000 1.0000 0.0000
vn -0.8235 0.5673 -0.0000
vn 0.0000 -0.2620 -0.9651
vn 0.0503 0.1117 0.9925
vn 0.7985 -0.6020 0.0000
vn 0.0000 0.0303 -0.9995
vn 1.0000 0.0000 0.0000
vn 0.0000 0.0303 0.9995
vn -0.9965 0.0839 0.0000
vn 0.9965 0.0839 0.0000
vn 0.0000 -0.1467 0.9892
vn -0.9247 -0.3808 0.0000
vn 0.9247 -0.3808 0.0000
vn 0.0000 -1.0000 0.0000
vn 0.1440 0.0179 0.9894
vn -1.0000 0.0000 0.0000
vn 0.0000 -0.1467 -0.9892
vn -0.2216 0.9751 0.0000
vn -0.1456 0.0177 0.9892
vn -0.1456 0.0177 -0.9892
vn -0.6823 0.7310 0.0000
vn 0.1440 0.0179 -0.9894
vn 0.2116 -0.9774 0.0000
vn 0.2192 0.9757 0.0000
vn 0.8311 0.0431 0.5545
vn -0.8311 0.0431 0.5545
vn 0.4105 0.9119 0.0000
vn 0.0000 0.1624 0.9867
vn -0.0503 0.1117 0.9925
vn 0.0000 0.9998 0.0181
vn 0.0000 0.0774 -0.9970
vn 0.8235 0.5673 -0.0000
vn 0.2803 -0.8860 0.3693
vn -0.2803 -0.8860 0.3693
vn -0.9987 -0.0505 -0.0000
vn 0.9972 -0.0591 0.0463
usemtl lapide6
s off
f 5/1/1 12/2/1 6/3/1
f 6/3/1 13/4/1 8/5/1
f 3/6/1 10/7/1 9/8/1
f 12/2/1 5/1/1 7/9/1
f 11/10/1 4/11/1 8/5/1
f 23/12/2 7/13/2 5/14/2
f 8/15/3 24/16/3 6/17/3
f 25/18/4 9/19/4 7/13/4
f 24/16/5 8/15/5 4/20/5
f 9/19/6 25/18/6 3/21/6
f 4/11/7 2/22/7 18/23/7
f 18/23/8 2/22/8 17/24/8
f 6/17/9 22/25/9 5/14/9
f 3/6/10 17/24/10 1/26/10
f 20/27/1 18/23/1 24/28/1
f 30/29/11 10/30/11 28/31/11
f 27/32/12 2/33/12 4/34/12
f 35/35/13 16/36/13 30/37/13
f 29/38/14 28/39/14 27/40/14
f 28/39/14 35/41/14 30/42/14
f 36/43/15 14/44/15 16/36/15
f 31/45/16 11/46/16 34/47/16
f 50/48/17 44/49/17 48/50/17
f 29/51/18 4/34/18 31/52/18
f 78/53/19 82/54/19 77/55/19
f 38/56/20 13/57/20 37/58/20
f 26/59/21 28/31/21 3/60/21
f 44/61/22 50/62/22 40/63/22
f 39/64/23 43/65/23 52/66/23
f 40/67/24 33/68/24 44/69/24
f 41/70/25 40/71/25 47/72/25
f 52/66/23 43/65/23 53/73/23
f 36/74/26 42/75/26 37/76/26
f 48/77/27 42/78/27 47/79/27
f 68/80/28 74/81/28 65/82/28
f 49/83/29 48/77/29 39/84/29
f 39/85/14 47/72/14 43/86/14
f 45/87/1 50/48/1 49/88/1
f 54/89/23 49/90/23 51/91/23
f 57/92/30 64/93/30 58/94/30
f 45/95/23 49/90/23 54/89/23
f 64/96/31 57/97/31 65/98/31
f 58/99/32 63/100/32 55/101/32
f 65/102/23 72/103/23 64/104/23
f 85/105/31 83/106/31 86/107/31
f 61/108/33 57/92/33 62/109/33
f 57/97/34 61/110/34 56/111/34
f 62/112/35 58/99/35 59/113/35
f 59/114/23 60/115/23 62/116/23
f 64/93/30 67/117/30 63/118/30
f 74/119/36 68/120/36 73/121/36
f 76/122/23 66/123/23 75/124/23
f 66/125/28 70/126/28 65/82/28
f 67/117/30 53/127/30 69/128/30
f 53/129/31 67/130/31 52/131/31
f 69/132/32 54/133/32 51/134/32
f 70/126/28 51/135/28 68/80/28
f 85/136/37 73/137/37 71/138/37
f 73/137/30 67/117/30 64/93/30
f 50/62/38 45/139/38 46/140/38
f 59/141/39 55/142/39 60/143/39
f 75/124/40 79/144/40 76/122/40
f 69/128/30 77/145/30 63/118/30
f 77/55/36 69/146/36 78/53/36
f 78/147/28 70/126/28 66/125/28
f 79/148/32 81/149/32 82/150/32
f 77/145/41 81/151/41 75/152/41
f 82/153/42 78/147/42 76/154/42
f 65/82/28 56/155/28 66/125/28
f 15/156/43 13/57/43 38/56/43
f 74/81/44 86/157/44 72/158/44
f 86/159/45 74/119/45 85/160/45
f 83/161/46 71/162/46 72/103/46
f 18/23/1 17/24/1 24/28/1
f 20/27/47 4/11/47 18/23/47
f 19/163/48 17/24/48 3/6/48
f 21/164/1 22/165/1 23/166/1
f 22/165/1 24/28/1 23/166/1
f 93/167/29 26/59/29 91/168/29
f 23/166/1 24/28/1 25/169/1
f 19/163/1 25/169/1 17/24/1
f 31/170/14 34/171/14 29/38/14
f 34/171/14 33/172/14 29/38/14
f 37/58/49 12/173/49 36/43/49
f 51/91/23 39/64/23 52/66/23
f 42/75/50 44/174/50 37/76/50
f 44/174/51 38/175/51 37/76/51
f 53/73/23 45/95/23 54/89/23
f 89/176/1 87/177/1 90/178/1
f 91/179/23 89/180/23 92/181/23
f 93/182/1 91/183/1 94/184/1
f 89/185/29 26/59/29 87/186/29
f 27/32/38 94/187/38 92/188/38
f 2/33/38 27/32/38 88/189/38
f 87/190/52 1/191/52 88/192/52
f 34/47/43 15/156/43 38/56/43
f 14/193/1 7/9/1 9/8/1
f 40/194/53 41/195/53 33/172/53
f 33/68/43 34/47/43 38/56/43
f 36/43/15 16/36/15 35/35/15
f 42/196/54 36/43/54 41/197/54
f 32/198/14 28/39/14 33/172/14
f 32/198/14 35/41/14 28/39/14
f 32/199/15 36/43/15 35/35/15
f 12/2/1 13/4/1 6/3/1
f 13/4/1 15/200/1 8/5/1
f 10/7/1 16/201/1 9/8/1
f 14/193/1 12/2/1 7/9/1
f 15/200/1 11/10/1 8/5/1
f 21/202/2 23/12/2 5/14/2
f 24/16/3 22/25/3 6/17/3
f 23/12/4 25/18/4 7/13/4
f 20/203/55 24/16/55 4/20/55
f 25/18/56 19/204/56 3/21/56
f 2/22/8 1/26/8 17/24/8
f 22/25/9 21/202/9 5/14/9
f 10/30/11 3/60/11 28/31/11
f 29/51/57 27/32/57 4/34/57
f 16/36/13 10/205/13 30/37/13
f 28/39/14 26/206/14 27/40/14
f 11/46/16 15/156/16 34/47/16
f 44/49/17 42/207/17 48/50/17
f 4/34/18 11/208/18 31/52/18
f 82/54/19 81/209/19 77/55/19
f 13/57/20 12/173/20 37/58/20
f 1/210/58 26/59/58 3/60/58
f 50/62/22 46/140/22 40/63/22
f 33/68/24 38/56/24 44/69/24
f 40/71/25 46/211/25 47/72/25
f 43/65/23 45/95/23 53/73/23
f 42/78/27 41/212/27 47/79/27
f 74/81/28 72/158/28 65/82/28
f 48/77/29 47/79/29 39/84/29
f 47/72/14 46/211/14 43/86/14
f 50/48/1 48/50/1 49/88/1
f 49/90/23 39/64/23 51/91/23
f 64/93/30 63/118/30 58/94/30
f 57/97/31 56/111/31 65/98/31
f 63/100/32 66/213/32 55/101/32
f 72/103/23 71/162/23 64/104/23
f 83/106/31 84/214/31 86/107/31
f 57/92/33 58/94/33 62/109/33
f 61/110/34 60/215/34 56/111/34
f 58/99/35 55/101/35 59/113/35
f 60/115/23 61/216/23 62/116/23
f 67/117/30 69/128/30 63/118/30
f 68/120/36 67/217/36 73/121/36
f 66/123/23 63/218/23 75/124/23
f 70/126/28 68/80/28 65/82/28
f 53/127/30 54/219/30 69/128/30
f 67/130/31 68/220/31 52/131/31
f 70/221/32 69/132/32 51/134/32
f 51/135/28 52/222/28 68/80/28
f 83/223/37 85/136/37 71/138/37
f 71/138/30 73/137/30 64/93/30
f 45/139/38 43/224/38 46/140/38
f 55/142/39 56/155/39 60/143/39
f 79/144/40 80/225/40 76/122/40
f 77/145/30 75/152/30 63/118/30
f 69/146/36 70/226/36 78/53/36
f 76/154/28 78/147/28 66/125/28
f 80/227/32 79/148/32 82/150/32
f 81/151/41 79/228/41 75/152/41
f 80/229/42 82/153/42 76/154/42
f 56/155/28 55/142/28 66/125/28
f 86/157/44 84/230/44 72/158/44
f 74/119/45 73/121/45 85/160/45
f 84/231/46 83/161/46 72/103/46
f 17/24/1 25/169/1 24/28/1
f 26/59/29 89/185/29 91/168/29
f 12/173/49 14/44/49 36/43/49
f 87/177/1 88/232/1 90/178/1
f 89/180/23 90/233/23 92/181/23
f 91/183/1 92/234/1 94/184/1
f 26/59/29 1/210/29 87/186/29
f 90/235/38 27/32/38 92/188/38
f 27/32/38 90/235/38 88/189/38
f 1/191/52 2/236/52 88/192/52
f 16/201/1 14/193/1 9/8/1
f 41/195/53 32/198/53 33/172/53
f 36/43/54 32/199/54 41/197/54
f 28/39/14 29/38/14 33/172/14
