# Blender v2.77 (sub 0) OBJ File: ''
# www.blender.org
mtllib gravstone_5.mtl
o lapide1_Plane.003
v 1.043285 1.219718 0.153522
v -1.021474 1.219718 0.153522
v 1.177031 4.509733 0.153524
v -1.378819 4.263216 0.153523
v -1.155220 3.671053 0.153523
v -1.359795 3.766359 0.282927
v -1.283295 3.774504 0.153523
v 1.381605 4.605039 0.282927
v -1.224149 3.656792 0.282927
v -1.082497 1.173214 0.282926
v 1.245959 4.495472 0.282927
v 1.104307 1.173214 0.282926
v -1.597758 3.733658 0.282927
v 1.619568 4.572338 0.282927
v -1.438563 3.605069 0.282927
v -1.272319 0.958815 0.282926
v 1.460372 4.443748 0.282927
v 1.294130 0.958815 0.282926
v -1.597758 3.733657 -0.232349
v 1.619568 4.572337 -0.232349
v -1.438563 3.605069 -0.232349
v -1.272319 0.958815 -0.232351
v 1.460372 4.443748 -0.232349
v 1.294130 0.958815 -0.232351
v -1.380730 0.958815 0.355630
v 1.402540 0.958815 0.355630
v -1.380730 0.958815 -0.305054
v 1.402540 0.958815 -0.305054
v -1.380730 0.700087 0.355630
v 1.402540 0.700087 0.355630
v -1.380730 0.700087 -0.305054
v 1.402540 0.700087 -0.305054
v -1.714936 0.700087 0.482224
v 1.736745 0.700087 0.482224
v -1.714936 0.700087 -0.431649
v 1.736745 0.700087 -0.431649
v -1.790774 -0.000000 0.502305
v 1.812584 -0.000000 0.502305
v -1.790774 -0.000000 -0.451729
v 1.812584 -0.000000 -0.451729
v -1.455319 4.255071 0.282927
v -1.693282 4.222369 0.282927
v -1.693282 4.222369 -0.232349
vt 0.4682 0.2036
vt 0.4780 0.1961
vt 0.4897 0.7322
vt 0.9397 0.3388
vt 0.9701 0.3397
vt 0.9681 0.4049
vt 0.0943 0.6141
vt 0.0820 0.6128
vt 0.1149 0.5974
vt 0.5085 0.1616
vt 0.5007 0.7299
vt 0.1038 0.5952
vt 0.0694 0.5868
vt 0.5222 0.8331
vt 0.5222 0.7589
vt 0.5516 0.8331
vt 0.5225 0.7475
vt 0.5352 0.7216
vt 0.1266 0.1961
vt 0.5617 0.2583
vt 0.5480 0.2491
vt 0.8865 0.2583
vt 0.4024 0.8396
vt 0.4318 0.8396
vt 0.4024 0.9137
vt 0.0210 0.9137
vt 0.0204 0.7589
vt 0.5474 0.2443
vt 0.5474 0.1286
vt 0.5897 0.1446
vt 0.9002 0.3327
vt 0.8865 0.3235
vt 0.9002 0.2491
vt 0.5617 0.3235
vt 0.5480 0.3327
vt 0.2274 0.9470
vt 0.2274 0.9745
vt 0.1571 0.9470
vt 0.2274 0.9470
vt 0.1571 0.9470
vt 0.2274 0.9745
vt 0.0787 0.1201
vt 0.5259 0.1201
vt 0.0787 0.1616
vt 0.5925 0.5089
vt 0.5925 0.5414
vt 0.9423 0.5089
vt 0.9842 0.2443
vt 0.9419 0.2282
vt 0.9419 0.1446
vt 0.5897 0.2282
vt 0.1332 0.9199
vt 0.0318 0.9199
vt 0.1311 0.9943
vt 0.5852 0.8740
vt 0.9496 0.9794
vt 0.6061 0.5414
vt 0.9842 0.1286
vt 0.5409 0.4209
vt 0.5505 0.5089
vt 0.9938 0.4209
vt 0.0339 0.9943
vt 0.0318 0.9199
vt 0.1311 0.9943
vt 0.1364 0.2036
vt 0.0128 0.0076
vt 0.5918 0.0076
vt 0.0250 0.1201
vt 0.9176 0.3383
vt 0.9116 0.3560
vt 0.0438 0.6075
vt 0.5608 0.7423
vt 0.0961 0.1616
vt 0.0285 0.6860
vt 0.0790 0.6926
vt 0.5034 0.9137
vt 0.4318 0.9137
vt 0.5465 0.4049
vt 0.9696 0.9956
vt 0.5532 0.9516
vt 0.5034 0.8396
vt 0.5652 0.8902
vt 0.5465 0.3396
vt 0.5769 0.3396
vt 0.0667 0.6913
vt 0.5866 0.3560
vt 0.5516 0.7589
vt 0.0210 0.8396
vt 0.0204 0.8331
vt 0.1571 0.9745
vt 0.1571 0.9745
vt 0.5259 0.1616
vt 0.9423 0.5414
vt 0.0339 0.9943
vt 0.9287 0.5414
vt 0.9843 0.5089
vt 0.1332 0.9199
vt 0.5796 0.1201
vn -0.8987 0.0365 0.4369
vn 0.1361 0.9907 -0.0000
vn 0.5792 0.7171 0.3876
vn 0.0000 -0.0000 1.0000
vn 0.6284 -0.7779 0.0000
vn 0.0000 1.0000 0.0000
vn -0.6284 -0.7779 -0.0000
vn -0.9980 -0.0627 -0.0000
vn 0.9989 -0.0476 0.0000
vn 1.0000 0.0000 0.0000
vn -1.0000 0.0000 0.0000
vn 0.0000 0.0000 -1.0000
vn -0.9942 0.1077 0.0000
vn 0.0000 0.0287 -0.9996
vn 0.9942 0.1077 0.0000
vn 0.0000 0.0287 0.9996
vn -0.5792 0.7171 0.3876
vn -0.9814 -0.1918 0.0000
vn 0.0000 0.9411 0.3382
vn -0.3066 0.9305 -0.2006
vn -0.1050 0.9936 0.0408
vn 0.8792 0.0501 0.4738
vn -0.1361 0.9907 0.0000
vn 0.8444 0.1651 0.5096
vn -0.0960 0.9950 -0.0271
vn -0.8803 0.0375 0.4730
vn 0.8965 0.0489 0.4403
vn -0.1192 0.9928 -0.0080
usemtl lapide_5
s off
f 1/1/1 12/2/1 3/3/1
f 8/4/2 14/5/2 20/6/2
f 7/7/3 6/8/3 5/9/3
f 12/2/4 18/10/4 11/11/4
f 9/12/4 6/8/4 15/13/4
f 17/14/5 23/15/5 14/16/5
f 8/17/4 11/11/4 17/18/4
f 10/19/4 18/10/4 12/2/4
f 16/20/6 25/21/6 18/22/6
f 15/23/7 13/24/7 21/25/7
f 21/25/8 22/26/8 15/23/8
f 23/15/9 17/14/9 24/27/9
f 35/28/6 33/29/6 29/30/6
f 28/31/6 24/32/6 26/33/6
f 22/34/6 24/32/6 27/35/6
f 27/35/6 25/21/6 22/34/6
f 32/36/10 28/37/10 30/38/10
f 31/39/11 29/40/11 27/41/11
f 29/42/4 30/43/4 25/44/4
f 31/45/12 27/46/12 32/47/12
f 36/48/6 32/49/6 30/50/6
f 35/28/6 31/51/6 36/48/6
f 39/52/13 37/53/13 35/54/13
f 21/55/12 23/56/12 22/57/12
f 33/29/6 34/58/6 29/30/6
f 39/59/14 35/60/14 40/61/14
f 34/62/15 38/63/15 36/64/15
f 5/9/4 2/65/4 3/3/4
f 37/66/16 38/67/16 33/68/16
f 11/69/17 8/4/17 3/70/17
f 6/8/4 13/71/4 15/13/4
f 14/72/4 8/17/4 17/18/4
f 16/73/4 18/10/4 10/19/4
f 31/51/6 32/49/6 36/48/6
f 24/32/6 28/31/6 27/35/6
f 42/74/4 13/71/4 6/8/4
f 18/22/6 25/21/6 26/33/6
f 29/30/6 34/58/6 30/50/6
f 7/7/4 5/9/4 4/75/4
f 43/76/18 19/77/18 13/24/18
f 10/19/19 12/2/19 2/65/19
f 3/70/20 8/4/20 20/6/20
f 5/9/4 3/3/4 4/75/4
f 3/70/21 20/6/21 43/78/21
f 20/79/12 23/56/12 43/80/12
f 42/81/18 43/76/18 13/24/18
f 9/12/22 10/19/22 5/9/22
f 15/13/4 16/73/4 9/12/4
f 23/56/12 21/55/12 43/80/12
f 19/82/12 43/80/12 21/55/12
f 13/24/7 19/77/7 21/25/7
f 42/83/23 41/84/23 43/78/23
f 41/85/24 6/8/24 7/7/24
f 4/86/25 3/70/25 43/78/25
f 12/2/26 11/11/26 3/3/26
f 6/8/3 9/12/3 5/9/3
f 18/10/4 17/18/4 11/11/4
f 23/15/5 20/87/5 14/16/5
f 22/26/8 16/88/8 15/23/8
f 17/14/9 18/89/9 24/27/9
f 31/51/6 35/28/6 29/30/6
f 24/32/6 18/22/6 26/33/6
f 25/21/6 16/20/6 22/34/6
f 28/37/10 26/90/10 30/38/10
f 29/40/11 25/91/11 27/41/11
f 30/43/4 26/92/4 25/44/4
f 27/46/12 28/93/12 32/47/12
f 34/58/6 36/48/6 30/50/6
f 37/53/13 33/94/13 35/54/13
f 23/56/12 24/95/12 22/57/12
f 35/60/14 36/96/14 40/61/14
f 38/63/15 40/97/15 36/64/15
f 2/65/4 1/1/4 3/3/4
f 38/67/16 34/98/16 33/68/16
f 41/85/4 42/74/4 6/8/4
f 12/2/19 1/1/19 2/65/19
f 10/19/27 2/65/27 5/9/27
f 16/73/4 10/19/4 9/12/4
f 41/84/28 4/86/28 43/78/28
f 4/75/24 41/85/24 7/7/24
