# Blender v2.77 (sub 0) OBJ File: ''
# www.blender.org
mtllib gravstone_1.mtl
o lapide5_Cube.003
v 1.366243 0.653480 0.112203
v -1.370166 0.653480 0.112203
v 1.561313 4.649650 0.112204
v -1.565238 4.649650 0.112203
v 1.431621 0.642284 0.253118
v -1.435545 0.642284 0.253118
v 1.636012 4.750561 0.253119
v -1.639938 4.750561 0.253118
v 1.581261 0.652157 0.253118
v -1.585185 0.652157 0.253118
v 1.825751 4.875261 0.253119
v -1.829676 4.875261 0.253118
v -0.783600 5.143085 0.112203
v -0.820950 5.243997 0.253118
v -0.915819 5.368696 0.253118
v 0.779675 5.143085 0.112204
v 0.817025 5.243997 0.253118
v 0.911894 5.368696 0.253118
v -1.174419 4.784223 0.112203
v -1.230444 4.885134 0.253118
v -1.372748 5.009834 0.253118
v 1.170494 4.784223 0.112204
v 1.226519 4.885134 0.253118
v 1.368822 5.009834 0.253119
v -0.392781 5.412231 0.112203
v -0.411456 5.513143 0.253118
v -0.404874 5.637843 0.253118
v 0.388856 5.412231 0.112203
v 0.407531 5.513143 0.253118
v 0.400949 5.637843 0.253118
v 1.825751 4.875261 0.342130
v -1.829676 4.875261 0.342128
v -0.915819 5.368696 0.342129
v 0.911894 5.368696 0.342129
v -1.372748 5.009834 0.342129
v 1.368822 5.009834 0.342129
v -0.458891 5.637843 0.342129
v 0.454966 5.637843 0.342129
v 1.825751 5.217344 0.342130
v -1.829676 5.217344 0.342128
v -0.915819 5.710779 0.342129
v 0.911894 5.710779 0.342129
v -1.372748 5.351917 0.342129
v 1.368822 5.351917 0.342129
v -0.504025 5.889646 0.342129
v 0.522666 5.867075 0.342129
v -0.001963 6.629858 0.253118
v -1.949511 4.875261 0.342128
v -2.126383 5.217344 0.342128
v -0.501577 6.518571 0.253118
v 2.005107 4.875261 0.342130
v 2.142429 5.217344 0.342130
v 1.581261 0.652157 -0.156532
v -1.585185 0.652157 -0.156532
v 1.825751 4.875261 -0.263521
v -1.829676 4.875261 -0.263522
v 1.825751 5.217344 -0.270072
v -1.829676 5.217344 -0.270073
v -0.915819 5.710779 -0.270072
v 0.911894 5.710779 -0.270072
v -1.372748 5.351917 -0.270073
v 1.368822 5.351917 -0.270072
v -0.504025 5.889646 -0.270072
v 0.522666 5.867075 -0.270072
v -1.949511 4.875261 -0.263522
v -2.126383 5.217344 -0.270073
v 2.005107 4.875261 -0.263521
v 2.142429 5.217344 -0.270072
v 0.497652 6.518571 0.253118
v 0.434153 5.858413 0.253118
v -0.438078 5.858413 0.253118
v 0.434153 5.858413 -0.260486
v -0.438078 5.858413 -0.260487
v -0.001963 6.629858 -0.292005
v -0.501577 6.518571 -0.292005
v 0.497652 6.518571 -0.292004
v 1.366243 0.619548 0.260392
v -1.370166 0.619548 0.260391
v 1.431621 0.608352 0.401306
v -1.435545 0.608352 0.401306
v 1.712856 0.618226 0.401306
v -1.723328 0.618226 0.401306
v 1.712856 0.620726 -0.156532
v -1.723328 0.620726 -0.156532
v 1.366243 0.454777 0.260392
v -1.370166 0.454777 0.260391
v 1.431621 0.443582 0.401306
v -1.435545 0.443582 0.401306
v 1.712856 0.453455 0.401306
v -1.723328 0.453455 0.401306
v 1.712856 -0.005009 -0.156532
v 1.366243 0.435731 0.372310
v -1.370166 0.435731 0.372309
v 1.431621 0.424536 0.513224
v -1.435545 0.424536 0.513224
v 1.712856 0.434409 0.513224
v -1.723328 0.434409 0.513224
v -1.723328 -0.005009 -0.156532
v 1.366243 -0.006187 0.372310
v -1.370166 -0.006187 0.372309
v 1.431621 -0.002363 0.513224
v -1.435545 -0.002363 0.513224
v 1.712856 0.000000 0.513224
v -1.723328 -0.007510 0.513224
vt 0.9600 0.3445
vt 0.9562 0.3217
vt 0.9506 0.3473
vt 0.7746 0.6423
vt 0.9565 0.5150
vt 0.7701 0.6351
vt 0.2384 0.2775
vt 0.2243 0.0314
vt 0.2156 0.0308
vt 0.2118 0.2853
vt 0.2035 0.2781
vt 0.0394 0.0316
vt 0.0254 0.2776
vt 0.0481 0.0310
vt 0.9808 0.3961
vt 0.9720 0.3713
vt 0.9626 0.3732
vt 0.6774 0.2562
vt 0.6066 0.2562
vt 0.6747 0.2741
vt 0.1554 0.3219
vt 0.1851 0.3062
vt 0.1796 0.2990
vt 0.9602 0.4920
vt 0.9721 0.4652
vt 0.9508 0.4893
vt 0.0520 0.2854
vt 0.0786 0.3062
vt 0.0842 0.2990
vt 0.0603 0.2781
vt 0.9715 0.4393
vt 0.9808 0.4402
vt 0.9714 0.3971
vt 0.6832 0.2351
vt 0.6832 0.2767
vt 0.7275 0.2351
vt 0.6826 0.2026
vt 0.6420 0.1936
vt 0.4016 0.8986
vt 0.3536 0.9152
vt 0.3776 0.4080
vt 0.1084 0.3219
vt 0.4792 0.2741
vt 0.4342 0.2600
vt 0.4771 0.2810
vt 0.3973 0.2484
vt 0.4321 0.2669
vt 0.6763 0.3759
vt 0.6763 0.3262
vt 0.6463 0.3262
vt 0.4202 0.2960
vt 0.3772 0.2960
vt 0.3733 0.3035
vt 0.5203 0.2870
vt 0.5217 0.2953
vt 0.4674 0.2960
vt 0.4674 0.3032
vt 0.4894 0.1553
vt 0.4568 0.1644
vt 0.4492 0.1828
vt 0.2981 0.1632
vt 0.2739 0.1658
vt 0.3075 0.1808
vt 0.3586 0.1635
vt 0.3315 0.1691
vt 0.3680 0.1811
vt 0.5155 0.1548
vt 0.4818 0.1737
vt 0.4292 0.1614
vt 0.4216 0.1798
vt 0.3408 0.1867
vt 0.4132 0.1548
vt 0.4151 0.1772
vt 0.3952 0.2553
vt 0.3880 0.2455
vt 0.3826 0.2953
vt 0.3772 0.1762
vt 0.3749 0.1548
vt 0.5206 0.2960
vt 0.5061 0.3032
vt 0.5061 0.3451
vt 0.2839 0.1871
vt 0.2561 0.1871
vt 0.2839 0.2228
vt 0.3433 0.2232
vt 0.3249 0.2232
vt 0.3433 0.2589
vt 0.4328 0.1288
vt 0.4237 0.1286
vt 0.4237 0.1544
vt 0.2971 0.2232
vt 0.2633 0.2232
vt 0.2971 0.2589
vt 0.3439 0.1871
vt 0.3177 0.1871
vt 0.3439 0.2228
vt 0.8270 0.6419
vt 0.8184 0.9854
vt 0.8603 0.6419
vt 0.2389 0.1871
vt 0.2561 0.2228
vt 0.5061 0.2960
vt 0.2389 0.2232
vt 0.2633 0.2589
vt 0.9029 0.9854
vt 0.8942 0.6419
vt 0.8609 0.6419
vt 0.3249 0.2589
vt 0.3777 0.1578
vt 0.4544 0.1544
vt 0.4625 0.1442
vt 0.4591 0.1384
vt 0.4464 0.8692
vt 0.4467 0.8392
vt 0.4204 0.8690
vt 0.1080 0.3146
vt 0.2767 0.1795
vt 0.2710 0.1816
vt 0.2399 0.1548
vt 0.2389 0.1599
vt 0.4906 0.1544
vt 0.6832 0.1936
vt 0.7275 0.1936
vt 0.0657 0.9152
vt 0.0417 0.4080
vt 0.6014 0.3800
vt 0.6457 0.3800
vt 0.6457 0.3262
vt 0.2605 0.1199
vt 0.4199 0.1199
vt 0.2605 0.1111
vt 0.7828 0.8419
vt 0.7671 0.8418
vt 0.7946 0.8720
vt 0.4710 0.4691
vt 0.6057 0.9944
vt 0.6444 0.9270
vt 0.5619 0.9843
vt 0.6495 0.9850
vt 0.4864 0.8813
vt 0.7267 0.8832
vt 0.7668 0.8718
vt 0.6864 0.9144
vt 0.5680 0.9264
vt 0.5262 0.9131
vt 0.5621 0.9291
vt 0.6522 0.9279
vt 0.4403 0.1280
vt 0.4412 0.0955
vt 0.4334 0.0953
vt 0.2397 0.1280
vt 0.2565 0.1281
vt 0.2565 0.1192
vt 0.4239 0.1281
vt 0.4239 0.1192
vt 0.2389 0.0955
vt 0.2471 0.0953
vt 0.4199 0.1111
vt 0.0505 0.3847
vt 0.0631 0.3838
vt 0.0631 0.3705
vt 0.7486 0.4713
vt 0.7601 0.4664
vt 0.2979 0.3847
vt 0.3208 0.3839
vt 0.3208 0.3706
vt 0.0272 0.3839
vt 0.0272 0.3706
vt 0.8852 0.4656
vt 0.7966 0.4655
vt 0.8704 0.4680
vt 0.7966 0.4681
vt 0.8703 0.4898
vt 0.2853 0.3838
vt 0.2853 0.3705
vt 0.0560 0.3584
vt 0.2781 0.3584
vt 0.0560 0.3492
vt 0.2781 0.3492
vt 0.2835 0.3606
vt 0.2835 0.3698
vt 0.3064 0.3697
vt 0.3064 0.3605
vt 0.7745 0.1956
vt 0.7701 0.2027
vt 0.0505 0.3606
vt 0.0272 0.3697
vt 0.0505 0.3698
vt 0.0272 0.3605
vt 0.4495 0.1285
vt 0.4495 0.1543
vt 0.2643 0.1286
vt 0.2552 0.1288
vt 0.2643 0.1544
vt 0.3177 0.2228
vt 0.6832 0.3312
vt 0.7275 0.3312
vt 0.6832 0.2773
vt 0.2389 0.1290
vt 0.2389 0.1543
vt 0.8854 0.4081
vt 0.6014 0.2026
vt 0.9627 0.4633
vt 0.2576 0.9923
vt 0.1617 0.9923
vt 0.1137 0.9592
vt 0.3056 0.9592
vt 0.4481 0.4637
vt 0.6558 0.2748
vt 0.6014 0.2748
vt 0.6016 0.3106
vt 0.6107 0.3121
vt 0.6560 0.3106
vt 0.0177 0.8986
vt 0.6107 0.3255
vt 0.6560 0.3215
vt 0.4482 0.4583
vt 0.4483 0.4461
vt 0.9467 0.3254
vt 0.9470 0.5113
vt 0.2274 0.2702
vt 0.0364 0.2703
vt 0.6093 0.2741
vt 0.1558 0.3146
vt 0.7275 0.2767
vt 0.6463 0.3754
vt 0.4202 0.3032
vt 0.5123 0.1694
vt 0.3733 0.2924
vt 0.5206 0.3451
vt 0.4328 0.1537
vt 0.8603 0.9854
vt 0.2389 0.2228
vt 0.2389 0.2589
vt 0.8609 0.9854
vt 0.3800 0.1801
vt 0.4500 0.1502
vt 0.4362 0.8392
vt 0.2673 0.1691
vt 0.4926 0.1506
vt 0.6040 0.3262
vt 0.4327 0.1191
vt 0.2478 0.1191
vt 0.0505 0.3714
vt 0.2979 0.3714
vt 0.7965 0.4899
vt 0.2552 0.1537
vt 0.7249 0.2773
vt 0.7603 0.4514
vn 0.2433 -0.7402 0.6268
vn -0.9048 0.0450 0.4234
vn 0.0000 0.0000 1.0000
vn 0.4407 -0.6704 0.5969
vn -0.5145 -0.5871 0.6250
vn 0.5145 -0.5871 0.6250
vn -0.2433 -0.7402 0.6268
vn -0.0000 -0.8130 0.5822
vn -0.2174 0.9761 0.0000
vn 0.6177 -0.7864 0.0000
vn 0.2825 -0.9593 0.0000
vn 0.9280 -0.3725 0.0000
vn -0.4850 -0.8235 0.2943
vn 0.4850 -0.8235 0.2944
vn -0.6177 -0.7864 0.0000
vn 0.0000 -1.0000 0.0000
vn -0.2825 0.9593 0.0000
vn 0.0000 1.0000 0.0000
vn 0.9071 0.0000 0.4209
vn 0.6177 0.7864 0.0000
vn -0.3984 0.9172 0.0000
vn 0.9983 -0.0578 0.0000
vn 0.3726 0.9280 0.0000
vn -0.9983 -0.0578 0.0000
vn -0.2825 -0.9593 0.0000
vn 0.2825 0.9593 0.0000
vn -0.8883 -0.4593 0.0000
vn 0.8176 0.1231 0.5625
vn 0.0000 -0.0191 -0.9998
vn -0.8289 0.2448 0.5030
vn -0.0974 0.9952 0.0000
vn 0.4280 0.9038 0.0000
vn 0.2174 0.9761 0.0000
vn 0.9954 -0.0957 0.0000
vn -0.0000 0.9748 0.2232
vn 0.0000 -0.0253 -0.9997
vn 0.0081 -0.0363 -0.9993
vn -0.0104 -0.0467 -0.9989
vn 0.0056 -0.0191 -0.9998
vn -0.0056 -0.0191 -0.9998
vn 0.0000 -0.0137 -0.9999
vn 0.0000 0.0189 -0.9998
vn -0.0330 -0.0421 -0.9986
vn 0.0330 -0.0421 -0.9986
vn 0.0685 -0.1577 -0.9851
vn -0.0848 -0.2112 -0.9738
vn 0.2323 0.9726 0.0044
vn 0.0334 0.9742 0.2231
vn -0.0342 0.9742 0.2231
vn 0.2997 0.9300 0.2129
vn -0.2219 0.9751 0.0044
vn -0.2997 0.9300 0.2129
vn 0.0000 0.0000 -1.0000
vn 1.0000 -0.0000 0.0000
vn -0.9071 0.0000 0.4209
vn -0.0000 0.9858 0.1678
vn -0.1893 0.9680 0.1647
vn -0.0346 0.9852 0.1677
vn 0.9048 0.0450 0.4234
vn 0.1893 0.9680 0.1647
vn 0.0338 0.9853 0.1677
vn -0.6177 0.7864 0.0000
vn -0.9954 -0.0957 0.0000
vn -0.4407 -0.6704 0.5969
vn -1.0000 0.0000 0.0000
vn 0.2481 -0.7205 0.6475
vn -0.8953 0.0437 0.4433
vn 0.4723 -0.6858 0.5537
vn -0.5523 -0.6015 0.5772
vn 0.5523 -0.6015 0.5772
vn -0.2481 -0.7205 0.6475
vn -0.4661 -0.8848 0.0000
vn 0.4661 -0.8848 0.0000
vn 0.8450 0.1515 0.5128
vn -0.7102 0.1069 0.6958
vn 0.0000 -0.0477 -0.9989
vn 0.2497 0.9683 0.0000
vn 0.0632 0.9584 0.2784
vn -0.0633 0.9591 0.2758
vn -0.2385 0.9711 0.0000
vn 0.8953 0.0437 0.4433
vn -0.4723 -0.6858 0.5537
usemtl lapide_1
s off
f 20/1/1 8/2/1 19/3/1
f 5/4/2 7/5/2 1/6/2
f 12/7/3 10/8/3 6/9/3
f 21/10/3 12/7/3 20/11/3
f 9/12/3 11/13/3 5/14/3
f 26/15/4 14/16/4 13/17/4
f 70/18/3 71/19/3 30/20/3
f 27/21/3 15/22/3 14/23/3
f 23/24/5 17/25/5 22/26/5
f 24/27/3 18/28/3 17/29/3
f 14/16/6 20/1/6 19/3/6
f 15/22/3 21/10/3 14/23/3
f 7/5/7 23/24/7 22/26/7
f 11/13/3 24/27/3 23/30/3
f 28/31/8 29/32/8 25/33/8
f 74/34/9 75/35/9 47/36/9
f 70/18/3 69/37/3 47/38/3
f 3/39/3 22/40/3 1/41/3
f 18/28/3 30/42/3 17/29/3
f 33/43/10 35/44/10 15/45/10
f 35/44/11 32/46/11 21/47/11
f 68/48/12 52/49/12 51/50/12
f 34/51/13 38/52/13 30/53/13
f 37/54/14 33/43/14 27/55/14
f 36/56/15 34/51/15 24/57/15
f 41/58/3 43/59/3 35/60/3
f 42/61/3 46/62/3 34/63/3
f 39/64/3 44/65/3 31/66/3
f 45/67/3 41/58/3 33/68/3
f 43/59/3 40/69/3 32/70/3
f 44/65/3 42/61/3 36/71/3
f 49/72/3 48/73/3 32/70/3
f 12/74/16 48/75/16 56/76/16
f 51/77/3 52/78/3 31/66/3
f 51/79/16 11/80/16 55/81/16
f 61/82/17 58/83/17 43/84/17
f 68/85/18 57/86/18 52/87/18
f 102/88/19 100/89/19 93/90/19
f 62/91/20 60/92/20 44/93/20
f 63/94/21 59/95/21 45/96/21
f 53/97/22 55/98/22 9/99/22
f 58/83/18 66/100/18 40/101/18
f 31/102/16 11/80/16 51/79/16
f 60/92/23 64/103/23 42/104/23
f 56/105/24 54/106/24 10/107/24
f 31/102/25 36/56/25 11/80/25
f 12/74/16 32/46/16 48/75/16
f 57/86/26 62/91/26 39/108/26
f 49/72/27 66/109/27 48/73/27
f 27/110/28 71/111/28 45/112/28
f 58/113/29 56/114/29 66/115/29
f 30/42/3 27/21/3 29/116/3
f 38/117/30 46/62/30 30/118/30
f 64/119/31 72/120/31 46/62/31
f 45/112/32 71/111/32 73/121/32
f 76/122/33 74/34/33 69/123/33
f 19/124/3 2/125/3 22/40/3
f 76/126/34 69/127/34 70/128/34
f 78/129/35 77/130/35 2/131/35
f 67/132/29 55/133/29 68/134/29
f 56/114/36 55/133/36 54/135/36
f 74/136/37 72/137/37 75/138/37
f 74/136/38 76/139/38 72/137/38
f 58/113/39 61/140/39 56/114/39
f 55/133/40 62/141/40 57/142/40
f 61/140/41 62/141/41 56/114/41
f 61/140/42 72/137/42 62/141/42
f 56/114/41 62/141/41 55/133/41
f 62/141/43 72/137/43 60/143/43
f 73/144/44 61/140/44 59/145/44
f 72/137/42 61/140/42 73/144/42
f 73/144/45 59/145/45 63/146/45
f 60/143/46 72/137/46 64/147/46
f 81/148/47 83/149/47 53/150/47
f 82/151/48 80/152/48 6/153/48
f 79/154/49 81/148/49 5/155/49
f 6/153/50 78/129/50 2/131/50
f 84/156/51 82/151/51 54/157/51
f 1/158/52 77/130/52 5/155/52
f 88/159/19 86/160/19 78/161/19
f 53/162/53 83/163/53 54/135/53
f 87/164/3 89/165/3 81/166/3
f 90/167/3 88/159/3 82/168/3
f 96/169/54 91/170/54 89/171/54
f 89/171/54 91/172/54 81/173/54
f 85/174/55 87/164/55 77/175/55
f 86/160/3 85/174/3 78/161/3
f 93/176/56 92/177/56 86/178/56
f 85/179/57 92/177/57 87/180/57
f 94/181/58 96/182/58 89/183/58
f 8/2/59 6/184/59 2/185/59
f 88/186/60 93/176/60 86/178/60
f 97/187/61 95/188/61 90/189/61
f 104/190/3 102/88/3 97/191/3
f 99/192/55 101/193/55 92/194/55
f 100/89/3 99/192/3 93/90/3
f 59/95/62 61/82/62 41/195/62
f 50/196/63 75/197/63 71/198/63
f 101/193/3 103/199/3 96/200/3
f 103/201/54 91/170/54 96/169/54
f 47/38/3 50/202/3 71/19/3
f 17/25/64 29/32/64 16/203/64
f 28/204/3 25/205/3 13/206/3
f 16/207/3 28/204/3 13/206/3
f 19/124/3 16/207/3 13/206/3
f 19/124/3 22/40/3 16/207/3
f 80/152/50 78/129/50 6/153/50
f 5/155/52 77/130/52 79/154/52
f 54/135/53 83/163/53 84/208/53
f 87/180/57 92/177/57 94/181/57
f 98/209/65 104/210/65 97/211/65
f 95/188/60 93/176/60 88/186/60
f 90/212/65 98/213/65 97/211/65
f 2/125/3 19/124/3 4/214/3
f 70/18/3 47/38/3 71/19/3
f 82/215/65 84/216/65 98/213/65
f 84/217/53 83/163/53 98/218/53
f 8/2/66 4/219/66 19/3/66
f 7/5/67 3/220/67 1/6/67
f 8/221/3 12/7/3 6/9/3
f 12/7/3 8/221/3 20/11/3
f 11/13/3 7/222/3 5/14/3
f 25/33/68 26/15/68 13/17/68
f 71/19/3 27/223/3 30/20/3
f 26/224/3 27/21/3 14/23/3
f 17/25/69 16/203/69 22/26/69
f 23/30/3 24/27/3 17/29/3
f 13/17/70 14/16/70 19/3/70
f 21/10/3 20/11/3 14/23/3
f 3/220/71 7/5/71 22/26/71
f 7/222/3 11/13/3 23/30/3
f 29/32/8 26/15/8 25/33/8
f 75/35/9 50/225/9 47/36/9
f 30/42/3 29/116/3 17/29/3
f 35/44/10 21/47/10 15/45/10
f 32/46/11 12/74/11 21/47/11
f 67/226/12 68/48/12 51/50/12
f 18/227/72 34/51/72 30/53/72
f 33/43/73 15/45/73 27/55/73
f 34/51/15 18/227/15 24/57/15
f 33/68/3 41/58/3 35/60/3
f 46/62/3 38/117/3 34/63/3
f 44/65/3 36/71/3 31/66/3
f 37/228/3 45/67/3 33/68/3
f 35/60/3 43/59/3 32/70/3
f 42/61/3 34/63/3 36/71/3
f 40/69/3 49/72/3 32/70/3
f 48/75/16 65/229/16 56/76/16
f 52/78/3 39/64/3 31/66/3
f 67/230/16 51/79/16 55/81/16
f 58/83/17 40/101/17 43/84/17
f 57/86/18 39/108/18 52/87/18
f 95/231/19 102/88/19 93/90/19
f 60/92/20 42/104/20 44/93/20
f 59/95/21 41/195/21 45/96/21
f 55/98/22 11/232/22 9/99/22
f 66/100/18 49/233/18 40/101/18
f 64/103/23 46/234/23 42/104/23
f 12/235/24 56/105/24 10/107/24
f 36/56/25 24/57/25 11/80/25
f 62/91/26 44/93/26 39/108/26
f 66/109/27 65/236/27 48/73/27
f 37/237/74 27/110/74 45/112/74
f 56/114/29 65/238/29 66/115/29
f 27/21/3 26/224/3 29/116/3
f 46/62/75 70/239/75 30/118/75
f 72/120/31 70/239/31 46/62/31
f 63/240/32 45/112/32 73/121/32
f 74/34/33 47/36/33 69/123/33
f 2/125/3 1/41/3 22/40/3
f 72/241/34 76/126/34 70/128/34
f 77/130/35 1/158/35 2/131/35
f 55/133/29 57/142/29 68/134/29
f 55/133/36 53/162/36 54/135/36
f 72/137/76 73/144/76 75/138/76
f 9/242/77 81/148/77 53/150/77
f 10/243/78 82/151/78 6/153/78
f 81/148/79 9/242/79 5/155/79
f 82/151/80 10/243/80 54/157/80
f 80/244/19 88/159/19 78/161/19
f 79/245/3 87/164/3 81/166/3
f 88/159/3 80/244/3 82/168/3
f 91/172/54 83/246/54 81/173/54
f 87/164/55 79/245/55 77/175/55
f 85/174/3 77/175/3 78/161/3
f 92/177/56 85/179/56 86/178/56
f 87/180/58 94/181/58 89/183/58
f 4/219/81 8/2/81 2/185/81
f 95/188/61 88/186/61 90/189/61
f 102/88/3 95/231/3 97/191/3
f 101/193/55 94/247/55 92/194/55
f 99/192/3 92/194/3 93/90/3
f 61/82/62 43/84/62 41/195/62
f 75/197/63 73/248/63 71/198/63
f 94/247/3 101/193/3 96/200/3
f 29/32/82 28/31/82 16/203/82
f 90/212/65 82/215/65 98/213/65
f 83/163/53 91/249/53 98/218/53
