# Blender v2.77 (sub 0) OBJ File: ''
# www.blender.org
mtllib gravstone_2.mtl
o laide4_Plane
v 1.032379 1.219718 0.154749
v -1.032380 1.219718 0.154749
v 1.166125 4.455354 0.154751
v 0.685350 6.325648 0.284155
v -1.211387 5.821640 0.284155
v -1.166126 4.455354 0.154751
v 0.000000 6.654349 0.284156
v 1.211386 5.821640 0.284155
v -1.370700 5.164237 0.284155
v 1.370700 5.164237 0.284155
v 1.294201 4.558806 0.154751
v -1.370700 4.550660 0.284155
v -1.294200 4.558806 0.154751
v 1.370700 4.550660 0.284155
v -1.235054 4.441093 0.284155
v 1.294201 5.138138 0.154751
v -1.093402 1.173214 0.284154
v -1.294200 5.138138 0.154751
v 1.235054 4.441093 0.284155
v 1.093402 1.173214 0.284154
v 1.143779 5.758852 0.154750
v 0.000000 6.545088 0.154751
v -1.143779 5.758852 0.154750
v 0.647101 6.234731 0.154751
v -0.647100 6.234731 0.154751
v -0.685350 6.325648 0.284155
v 0.804331 6.601095 0.284156
v -1.421691 6.009588 0.284155
v 0.000000 6.986861 0.284156
v 1.421691 6.009588 0.284155
v -1.608663 5.238056 0.284155
v 1.608663 5.238056 0.284155
v -1.608663 4.517959 0.284155
v 1.608663 4.517959 0.284155
v -1.449468 4.389370 0.284155
v -1.283225 0.958815 0.284154
v 1.449466 4.389370 0.284155
v 1.283225 0.958815 0.284154
v -0.804331 6.601095 0.284156
v 0.804331 6.601095 -0.231122
v -1.421691 6.009588 -0.231122
v 0.000000 6.986861 -0.231122
v 1.421691 6.009588 -0.231122
v -1.608663 5.238055 -0.231122
v 1.608663 5.238055 -0.231122
v -1.608663 4.517959 -0.231122
v 1.608663 4.517959 -0.231122
v -1.449468 4.389370 -0.231122
v -1.283225 0.958815 -0.231123
v 1.449466 4.389370 -0.231122
v 1.283225 0.958815 -0.231123
v -0.804331 6.601095 -0.231122
v -1.391635 0.958815 0.356857
v 1.391635 0.958815 0.356857
v -1.391635 0.958815 -0.303826
v 1.391635 0.958815 -0.303826
v -1.391635 0.700087 0.356857
v 1.391635 0.700087 0.356857
v -1.391635 0.700087 -0.303827
v 1.391635 0.700087 -0.303827
v -1.725841 0.700087 0.483452
v 1.725840 0.700087 0.483452
v -1.725841 0.700087 -0.430422
v 1.725840 0.700087 -0.430422
v -1.801679 -0.000000 0.503533
v 1.801679 -0.000000 0.503533
v -1.801679 0.000000 -0.450501
v 1.801679 0.000000 -0.450501
vt 0.4540 0.8417
vt 0.4252 0.8160
vt 0.4470 0.7259
vt 0.2592 0.9756
vt 0.2592 0.9301
vt 0.3531 0.8850
vt 0.0818 0.7223
vt 0.0713 0.7259
vt 0.0818 0.6429
vt 0.2592 0.9151
vt 0.3478 0.8726
vt 0.4159 0.8074
vt 0.4365 0.7223
vt 0.4470 0.6418
vt 0.4365 0.6429
vt 0.4190 0.6287
vt 0.1653 0.8850
vt 0.1705 0.8726
vt 0.1024 0.8074
vt 0.0932 0.8160
vt 0.4006 0.1853
vt 0.4090 0.1790
vt 0.0713 0.6418
vt 0.0994 0.6287
vt 0.1490 0.9228
vt 0.0899 0.6268
vt 0.0605 0.6197
vt 0.0644 0.8417
vt 0.4350 0.1496
vt 0.4284 0.6268
vt 0.3694 0.9228
vt 0.4578 0.6197
vt 0.4796 0.7360
vt 0.1093 0.1790
vt 0.0387 0.7360
vt 0.9038 0.5628
vt 0.9690 0.5628
vt 0.9038 0.5791
vt 0.9038 0.6703
vt 0.9690 0.6703
vt 0.9038 0.7679
vt 0.9690 0.5791
vt 0.9038 0.5791
vt 0.9690 0.6703
vt 0.9690 0.5791
vt 0.5312 0.1468
vt 0.5189 0.1385
vt 0.8220 0.1468
vt 0.9690 0.1286
vt 0.8786 0.0958
vt 0.8760 0.0072
vt 0.9943 0.0958
vt 0.9038 0.6703
vt 0.9038 0.7679
vt 0.9690 0.5628
vt 0.9690 0.1286
vt 0.9038 0.5628
vt 0.9690 0.9868
vt 0.9690 0.8704
vt 0.9038 0.9868
vt 0.9690 0.8704
vt 0.4695 0.2308
vt 0.4695 0.1211
vt 0.5096 0.1363
vt 0.1177 0.1853
vt 0.8512 0.8104
vt 0.8341 0.7191
vt 0.5051 0.8104
vt 0.5312 0.2051
vt 0.8220 0.2051
vt 0.5189 0.2134
vt 0.9782 0.0958
vt 0.9782 0.1286
vt 0.8946 0.0958
vt 0.9782 0.0958
vt 0.8946 0.0958
vt 0.9782 0.1286
vt 0.0685 0.1141
vt 0.4499 0.1141
vt 0.0685 0.1496
vt 0.5284 0.3222
vt 0.5284 0.3500
vt 0.8278 0.3222
vt 0.8837 0.2308
vt 0.8436 0.2156
vt 0.8436 0.1363
vt 0.5096 0.2156
vt 0.9968 0.0072
vt 0.8760 0.0072
vt 0.9943 0.0958
vt 0.5222 0.7191
vt 0.5401 0.3500
vt 0.8837 0.1211
vt 0.4843 0.2469
vt 0.4925 0.3222
vt 0.8720 0.2469
vt 0.9038 0.8704
vt 0.0123 0.0182
vt 0.5061 0.0182
vt 0.0227 0.1141
vt 0.0387 0.6373
vt 0.4796 0.6373
vt 0.0833 0.1496
vt 0.8342 0.2134
vt 0.7647 0.9570
vt 0.5916 0.9570
vt 0.6781 0.9985
vt 0.8311 0.8934
vt 0.5252 0.8934
vt 0.8342 0.1385
vt 0.5051 0.7329
vt 0.9690 0.7679
vt 0.8512 0.7329
vt 0.9038 0.1286
vt 0.9968 0.0072
vt 0.9690 0.7679
vt 0.9038 0.1286
vt 0.9038 0.8704
vt 0.8946 0.1286
vt 0.8946 0.1286
vt 0.4499 0.1496
vt 0.8278 0.3500
vt 0.8786 0.0958
vt 0.8162 0.3500
vt 0.8638 0.3222
vt 0.4957 0.1141
vn 0.0000 -0.0000 1.0000
vn 0.8608 0.0000 0.5089
vn -0.3441 -0.7174 0.6057
vn -0.8252 -0.2000 0.5282
vn -0.5792 0.7171 0.3876
vn 0.3441 -0.7174 0.6057
vn 0.8252 -0.2000 0.5282
vn -0.5636 -0.5883 0.5799
vn -0.8986 0.0371 0.4371
vn -0.8608 -0.0000 0.5089
vn 0.5636 -0.5883 0.5799
vn 0.5793 0.7171 0.3876
vn 0.6284 -0.7779 0.0000
vn 0.9719 0.2355 -0.0000
vn -1.0000 -0.0000 0.0000
vn 1.0000 -0.0000 0.0000
vn 0.0000 1.0000 -0.0000
vn 0.9988 -0.0484 0.0000
vn 0.9942 0.1077 0.0000
vn -0.9719 0.2355 -0.0000
vn -0.9988 -0.0484 0.0000
vn -0.4324 0.9017 0.0000
vn -0.6284 -0.7779 0.0000
vn 0.4324 0.9017 0.0000
vn 0.0000 0.9411 0.3382
vn 0.0000 0.0000 -1.0000
vn -0.9942 0.1077 0.0000
vn 0.0000 0.0287 -0.9996
vn -0.6918 0.7221 0.0000
vn 0.0000 0.0287 0.9996
vn 0.6918 0.7221 0.0000
vn 0.8802 0.0382 0.4731
vn -0.8802 0.0382 0.4731
vn 0.5792 0.7171 0.3876
vn 0.8986 0.0371 0.4371
usemtl lapide_2
s off
f 30/1/1 8/2/1 10/3/1
f 29/4/1 7/5/1 4/6/1
f 18/7/2 9/8/2 13/9/2
f 7/5/3 22/10/3 24/11/3
f 8/2/4 21/12/4 16/13/4
f 14/14/5 11/15/5 3/16/5
f 7/5/6 26/17/6 25/18/6
f 23/19/7 5/20/7 18/7/7
f 8/2/8 4/6/8 21/12/8
f 1/21/9 20/22/9 3/16/9
f 10/3/10 16/13/10 11/15/10
f 25/18/11 26/17/11 23/19/11
f 13/9/12 12/23/12 6/24/12
f 29/4/1 39/25/1 26/17/1
f 15/26/1 12/23/1 35/27/1
f 5/20/1 28/28/1 9/8/1
f 20/22/1 38/29/1 19/30/1
f 30/1/1 27/31/1 8/2/1
f 14/14/1 19/30/1 37/32/1
f 32/33/1 10/3/1 14/14/1
f 17/34/1 38/29/1 20/22/1
f 26/17/1 39/25/1 5/20/1
f 9/8/1 31/35/1 12/23/1
f 37/36/13 50/37/13 34/38/13
f 32/39/14 45/40/14 30/41/14
f 46/42/15 33/43/15 44/44/15
f 34/38/16 47/45/16 32/39/16
f 36/46/17 53/47/17 38/48/17
f 50/37/18 37/36/18 51/49/18
f 62/50/19 66/51/19 64/52/19
f 44/44/20 31/53/20 28/54/20
f 48/55/21 49/56/21 35/57/21
f 42/58/22 52/59/22 29/60/22
f 33/43/23 46/42/23 35/57/23
f 42/58/24 29/60/24 40/61/24
f 63/62/17 61/63/17 57/64/17
f 17/34/25 20/22/25 2/65/25
f 45/66/26 50/67/26 44/68/26
f 49/69/17 51/70/17 55/71/17
f 55/71/17 53/47/17 49/69/17
f 60/72/16 56/73/16 58/74/16
f 59/75/15 57/76/15 55/77/15
f 57/78/1 58/79/1 53/80/1
f 59/81/26 55/82/26 60/83/26
f 64/84/17 60/85/17 58/86/17
f 63/62/17 59/87/17 64/84/17
f 67/88/27 65/89/27 63/90/27
f 48/91/26 50/67/26 49/92/26
f 61/63/17 62/93/17 57/64/17
f 67/94/28 63/95/28 68/96/28
f 39/97/29 52/59/29 28/54/29
f 6/24/1 2/65/1 3/16/1
f 65/98/30 66/99/30 61/100/30
f 12/23/1 33/101/1 35/27/1
f 34/102/1 14/14/1 37/32/1
f 36/103/1 38/29/1 17/34/1
f 59/87/17 60/85/17 64/84/17
f 51/70/17 56/104/17 55/71/17
f 40/105/26 52/106/26 42/107/26
f 43/108/26 45/66/26 40/105/26
f 40/105/26 45/66/26 52/106/26
f 52/106/26 44/68/26 41/109/26
f 56/104/17 51/70/17 54/110/17
f 46/111/26 44/68/26 48/91/26
f 43/112/31 40/61/31 30/41/31
f 50/67/26 48/91/26 44/68/26
f 38/48/17 53/47/17 54/110/17
f 57/64/17 62/93/17 58/86/17
f 16/13/1 25/18/1 18/7/1
f 25/18/1 24/11/1 22/10/1
f 24/11/1 16/13/1 21/12/1
f 25/18/1 16/13/1 24/11/1
f 18/7/1 25/18/1 23/19/1
f 11/15/1 16/13/1 3/16/1
f 6/24/1 3/16/1 18/7/1
f 13/9/1 6/24/1 18/7/1
f 45/66/26 47/113/26 50/67/26
f 15/26/32 17/34/32 6/24/32
f 35/27/1 36/103/1 15/26/1
f 32/33/1 30/1/1 10/3/1
f 27/31/1 29/4/1 4/6/1
f 9/8/2 12/23/2 13/9/2
f 4/6/3 7/5/3 24/11/3
f 10/3/4 8/2/4 16/13/4
f 19/30/5 14/14/5 3/16/5
f 22/10/6 7/5/6 25/18/6
f 5/20/7 9/8/7 18/7/7
f 4/6/8 24/11/8 21/12/8
f 20/22/33 19/30/33 3/16/33
f 14/14/10 10/3/10 11/15/10
f 26/17/11 5/20/11 23/19/11
f 12/23/34 15/26/34 6/24/34
f 7/5/1 29/4/1 26/17/1
f 28/28/1 31/35/1 9/8/1
f 38/29/1 37/32/1 19/30/1
f 27/31/1 4/6/1 8/2/1
f 34/102/1 32/33/1 14/14/1
f 39/25/1 28/28/1 5/20/1
f 31/35/1 33/101/1 12/23/1
f 50/37/13 47/45/13 34/38/13
f 45/40/14 43/112/14 30/41/14
f 33/43/15 31/53/15 44/44/15
f 47/45/16 45/40/16 32/39/16
f 37/36/18 38/114/18 51/49/18
f 66/51/19 68/115/19 64/52/19
f 41/116/20 44/44/20 28/54/20
f 49/56/21 36/117/21 35/57/21
f 52/59/22 39/97/22 29/60/22
f 46/42/23 48/55/23 35/57/23
f 29/60/24 27/118/24 40/61/24
f 59/87/17 63/62/17 57/64/17
f 20/22/25 1/21/25 2/65/25
f 52/106/26 45/66/26 44/68/26
f 53/47/17 36/46/17 49/69/17
f 56/73/16 54/119/16 58/74/16
f 57/76/15 53/120/15 55/77/15
f 58/79/1 54/121/1 53/80/1
f 55/82/26 56/122/26 60/83/26
f 62/93/17 64/84/17 58/86/17
f 65/89/27 61/123/27 63/90/27
f 50/67/26 51/124/26 49/92/26
f 63/95/28 64/125/28 68/96/28
f 52/59/29 41/116/29 28/54/29
f 2/65/1 1/21/1 3/16/1
f 66/99/30 62/126/30 61/100/30
f 51/70/17 38/48/17 54/110/17
f 40/61/31 27/118/31 30/41/31
f 3/16/1 16/13/1 18/7/1
f 17/34/35 2/65/35 6/24/35
f 36/103/1 17/34/1 15/26/1
