mtllib wall_b.mtl
usemtl wall_material

v -0.602324 9.657168 7.208448
v -0.602324 9.657168 8.357951
v 0.589959 9.657168 8.357951
v 1.750023 5.461512 -0.102372
v 1.750023 5.461512 15.667175
v 1.465035 0.730212 15.667175
v -1.762376 5.461512 15.667175
v -1.762376 5.461512 -0.102372
v -1.479297 0.730212 -0.102372
v 0.731235 6.479579 15.667175
v 0.731235 6.479579 -0.102372
v 0.731235 8.524680 6.907176
v -0.743600 6.479579 -0.102372
v -0.743600 6.479579 15.667175
v -0.743600 8.524680 8.659225
v -0.602324 9.657168 0.200400
v -0.602324 9.657168 1.349916
v 0.589947 9.657168 1.349916
v -0.743600 8.524680 1.651188
v -0.743600 8.524680 3.403152
v 0.731235 8.524680 3.403152
v -0.602324 9.657168 3.704424
v -0.602324 9.657168 4.853940
v 0.589959 9.657168 4.853940
v -0.743600 8.524680 5.155211
v -0.743600 8.524680 6.907176
v 0.589959 9.657168 15.365892
v 0.589959 9.657168 14.216388
v -0.602324 9.657168 14.216388
v 0.731235 8.524680 13.915212
v 0.731235 8.524680 12.163152
v -0.743600 8.524680 12.163152
v 0.589959 9.657168 11.861976
v 0.589959 9.657168 10.712363
v -0.602324 9.657168 10.712363
v 0.731235 8.524680 10.411188
v 0.731235 8.524680 8.659225
v 0.589959 9.657168 7.208448
v -0.743600 8.524680 -0.105276
v 0.589947 9.657168 0.200400
v 0.731235 8.524680 1.651188
v 0.731235 8.524680 -0.105276
v 0.589959 9.657168 3.704424
v 0.731235 8.524680 5.155211
v -0.743600 8.524680 13.915212
v -0.743600 8.524680 15.667175
v -0.602324 9.657168 15.365892
v 0.731235 8.524680 15.667175
v -0.743600 8.524680 10.411188
v -0.602324 9.657168 11.861976
v -2.125965 0.546204 -0.102372
v -2.125965 0.546204 15.667175
v -2.125965 0.008460 -0.102372
v -2.125965 0.008460 15.667175
v 2.109807 0.546204 15.667175
v 2.109807 0.546204 -0.102372
v 2.109807 0.008460 15.667175
v 2.109807 0.008460 -0.102372
v -0.705801 6.473652 8.987208
v -1.742877 5.439084 8.987208
v -2.192925 5.586828 8.987208
v -0.705801 6.473652 9.763763
v -0.705801 7.003008 9.763763
v -2.192925 5.586828 9.763763
v -0.705801 7.003008 8.987208
v -1.618629 3.245148 8.987208
v -1.742877 5.439084 9.763763
v -1.618629 3.245148 9.763763
v -0.705801 6.473652 12.644436
v -1.742877 5.439084 12.644436
v -2.192925 5.586828 12.644436
v -0.705801 6.473652 13.420896
v -0.705801 7.003008 13.420896
v -2.192925 5.586828 13.420896
v -0.705801 7.003008 12.644436
v -1.618629 3.245148 12.644436
v -1.742877 5.439084 13.420896
v -1.618629 3.245148 13.420896
v -0.705801 6.473652 5.393880
v -1.742877 5.439084 5.393880
v -2.192925 5.586828 5.393880
v -0.705801 6.473652 6.170352
v -0.705801 7.003008 6.170352
v -2.192925 5.586828 6.170352
v -0.705801 7.003008 5.393880
v -1.618629 3.245148 5.393880
v -1.742877 5.439084 6.170352
v -1.618629 3.245148 6.170352
v -0.705801 6.473652 1.984512
v -1.742877 5.439084 1.984512
v -2.192925 5.586828 1.984512
v -0.705801 6.473652 2.761068
v -0.705801 7.003008 2.761068
v -2.192925 5.586828 2.761068
v -0.705801 7.003008 1.984512
v -1.618629 3.245148 1.984512
v -1.742877 5.439084 2.761068
v -1.618629 3.245148 2.761068
v -0.602324 9.657168 -6.822348
v -0.602324 9.657168 -5.672832
v 0.589959 9.657168 -5.672832
v 1.750023 5.461512 -14.131668
v 1.465047 0.730212 -0.102372
v -1.762376 5.461512 -14.131668
v -1.479297 0.730212 -14.131668
v 0.731235 6.479579 -14.131668
v 0.731235 8.524680 -7.123620
v -0.743600 8.524680 -7.123620
v -0.743600 6.479579 -14.131668
v -0.602324 9.657168 -13.830383
v -0.602324 9.657168 -12.680881
v 0.589947 9.657168 -12.680881
v -0.743600 8.524680 -12.379607
v -0.743600 8.524680 -10.627644
v 0.731235 8.524680 -10.627644
v -0.602324 9.657168 -10.326372
v -0.602324 9.657168 -9.176856
v 0.589959 9.657168 -9.176856
v -0.743600 8.524680 -8.875585
v 0.731235 8.524680 -1.867644
v -0.743600 8.524680 -1.867644
v 0.589959 9.657168 -2.168820
v 0.589959 9.657168 -3.318420
v -0.602324 9.657168 -3.318420
v 0.731235 8.524680 -3.619596
v 0.731235 8.524680 -5.371656
v -0.743600 8.524680 -5.371656
v 0.589959 9.657168 -6.822348
v -0.743600 8.524680 -14.131668
v 0.589947 9.657168 -13.830383
v 0.731235 8.524680 -12.379607
v 0.731235 8.524680 -14.131668
v 0.589959 9.657168 -10.326372
v 0.731235 8.524680 -8.875585
v -0.743600 8.524680 -3.619596
v -0.602324 9.657168 -2.168820
v -2.125965 0.546204 -14.131668
v -2.125965 0.008460 -14.131668
v 2.109807 0.546204 -14.131668
v 2.109807 0.008460 -14.131668
v -0.705801 6.473652 -5.043588
v -1.742877 5.439084 -5.043588
v -2.192925 5.586828 -5.043588
v -0.705801 6.473652 -4.267032
v -0.705801 7.003008 -4.267032
v -2.192925 5.586828 -4.267032
v -0.705801 7.003008 -5.043588
v -1.618629 3.245148 -5.043588
v -1.742877 5.439084 -4.267032
v -1.618629 3.245148 -4.267032
v -0.705801 6.473652 -1.386348
v -1.742877 5.439084 -1.386348
v -2.192925 5.586828 -1.386348
v -0.705801 6.473652 -0.609888
v -0.705801 7.003008 -0.609888
v -2.192925 5.586828 -0.609888
v -0.705801 7.003008 -1.386348
v -1.618629 3.245148 -1.386348
v -1.742877 5.439084 -0.609888
v -1.618629 3.245148 -0.609888
v -0.705801 6.473652 -8.636904
v -1.742877 5.439084 -8.636904
v -2.192925 5.586828 -8.636904
v -0.705801 6.473652 -7.860444
v -0.705801 7.003008 -7.860444
v -2.192925 5.586828 -7.860444
v -0.705801 7.003008 -8.636904
v -1.618629 3.245148 -8.636904
v -1.742877 5.439084 -7.860444
v -1.618629 3.245148 -7.860444
v -0.705801 6.473652 -12.046284
v -1.742877 5.439084 -12.046284
v -2.192925 5.586828 -12.046284
v -0.705801 6.473652 -11.269728
v -0.705801 7.003008 -11.269728
v -2.192925 5.586828 -11.269728
v -0.705801 7.003008 -12.046284
v -1.618629 3.245148 -12.046284
v -1.742877 5.439084 -11.269728
v -1.618629 3.245148 -11.269728
v -1.479297 0.730212 15.667175
v 1.465047 0.730212 -14.131668
vn 0.000000 1.000000 0.000000
vn 0.998192 -0.060100 0.000000
vn -0.998216 -0.059701 -0.000000
vn 1.000000 0.000000 0.000000
vn -1.000000 0.000000 0.000000
vn 0.706857 0.707357 0.000000
vn -0.706857 0.707357 0.000000
vn 0.992307 0.123801 0.000000
vn 0.000000 0.257096 -0.966386
vn -0.992307 0.123801 0.000000
vn 0.000000 0.257096 0.966386
vn 0.000000 0.260612 -0.965444
vn 0.000000 0.257003 -0.966411
vn 0.000000 0.257003 0.966411
vn -0.273704 0.961814 0.000000
vn 0.274404 0.961614 0.000000
vn 0.000000 0.000000 -1.000000
vn 0.000000 0.000000 1.000000
vn -0.689595 0.724195 0.000000
vn 0.998403 0.056500 0.000000
vn -0.971215 -0.238204 -0.000000
vt 0.055600 0.609700
vt 0.055600 0.642800
vt 0.014400 0.642800
vt 0.596700 0.175200
vt 0.150700 0.175200
vt 0.150700 0.043200
vt 0.990500 0.453800
vt 0.544600 0.453800
vt 0.544600 0.321800
vt 0.150700 0.215300
vt 0.596700 0.215300
vt 0.398400 0.272300
vt 0.544600 0.493900
vt 0.990500 0.493900
vt 0.792300 0.550900
vt 0.143700 0.532100
vt 0.143700 0.565400
vt 0.102600 0.565400
vt 0.084400 0.266500
vt 0.034500 0.266500
vt 0.034500 0.225800
vt 0.143900 0.569400
vt 0.143900 0.602700
vt 0.102700 0.602700
vt 0.084900 0.221800
vt 0.035300 0.221800
vt 0.035300 0.180700
vt 0.055000 0.564900
vt 0.055000 0.531200
vt 0.096900 0.531200
vt 0.032700 0.320700
vt 0.082300 0.320700
vt 0.082300 0.361800
vt 0.096900 0.564900
vt 0.034600 0.130800
vt 0.084100 0.130800
vt 0.084100 0.171900
vt 0.054400 0.526300
vt 0.054400 0.491600
vt 0.098200 0.491600
vt 0.014400 0.609700
vt 0.057500 0.603600
vt 0.057500 0.570100
vt 0.099000 0.570100
vt 0.101600 0.525900
vt 0.101600 0.491000
vt 0.143100 0.491000
vt 0.099000 0.603600
vt 0.012900 0.603700
vt 0.012900 0.569800
vt 0.054100 0.569800
vt 0.054100 0.603700
vt 0.143100 0.525900
vt 0.200300 0.272300
vt 0.150700 0.272300
vt 0.249800 0.272300
vt 0.299400 0.272300
vt 0.348900 0.272300
vt 0.497500 0.272300
vt 0.448000 0.272300
vt 0.547100 0.272300
vt 0.596700 0.272300
vt 0.594100 0.550900
vt 0.544500 0.550900
vt 0.643700 0.550900
vt 0.693200 0.550900
vt 0.742800 0.550900
vt 0.891400 0.550900
vt 0.841900 0.550900
vt 0.990500 0.550900
vt 0.940900 0.550900
vt 0.544600 0.303000
vt 0.990500 0.303000
vt 0.544600 0.288100
vt 0.990500 0.288100
vt 0.150700 0.024500
vt 0.596700 0.024500
vt 0.150700 0.009500
vt 0.596700 0.009500
vt 0.380900 0.684700
vt 0.380600 0.640300
vt 0.392100 0.640300
vt 0.392100 0.695700
vt 0.078600 0.674900
vt 0.021100 0.674900
vt 0.021100 0.653200
vt 0.392200 0.575500
vt 0.936700 0.787300
vt 0.936700 0.726100
vt 0.958700 0.726100
vt 0.078600 0.653200
vt 0.145900 0.653200
vt 0.145900 0.674900
vt 0.959800 0.727000
vt 0.959800 0.788200
vt 0.937900 0.788200
vt 0.960400 0.726400
vt 0.960400 0.787600
vt 0.938400 0.787600
vt 0.938200 0.787000
vt 0.938200 0.725800
vt 0.960100 0.725800
vt 0.993400 0.175200
vt 0.596700 0.043200
vt 0.147800 0.453800
vt 0.147800 0.321800
vt 0.993400 0.215300
vt 0.795200 0.272300
vt 0.346000 0.550900
vt 0.147800 0.493900
vt 0.081600 0.317300
vt 0.032100 0.317300
vt 0.032100 0.276300
vt 0.100400 0.608200
vt 0.100400 0.642200
vt 0.059300 0.642200
vt 0.033000 0.371700
vt 0.084400 0.371700
vt 0.084400 0.412600
vt 0.084400 0.225800
vt 0.102600 0.532100
vt 0.098200 0.526300
vt 0.104800 0.641600
vt 0.104800 0.608000
vt 0.145600 0.608000
vt 0.102700 0.569400
vt 0.145600 0.641600
vt 0.646600 0.272300
vt 0.696100 0.272300
vt 0.745700 0.272300
vt 0.894300 0.272300
vt 0.844700 0.272300
vt 0.943800 0.272300
vt 0.993400 0.272300
vt 0.197400 0.550900
vt 0.147800 0.550900
vt 0.246900 0.550900
vt 0.296500 0.550900
vt 0.494600 0.550900
vt 0.445100 0.550900
vt 0.395600 0.550900
vt 0.147800 0.303000
vt 0.147800 0.288000
vt 0.544600 0.288000
vt 0.993400 0.024500
vt 0.993400 0.009500
vt 0.938400 0.785400
vt 0.938400 0.724200
vt 0.960300 0.724200
vt 0.939100 0.786400
vt 0.939100 0.725200
vt 0.961100 0.725200
vt 0.961000 0.726300
vt 0.961000 0.787500
vt 0.939100 0.787500
vt 0.938200 0.786600
vt 0.938200 0.725400
vt 0.960200 0.725400
vt 0.990500 0.321800
vt 0.084900 0.180700
vt 0.032700 0.361800
vt 0.034600 0.171900
vt 0.958700 0.787300
vt 0.937900 0.727000
vt 0.938400 0.726400
vt 0.960100 0.787000
vt 0.993400 0.043200
vt 0.081600 0.276300
vt 0.059300 0.608200
vt 0.033000 0.412600
vt 0.960300 0.785400
vt 0.961100 0.786400
vt 0.939100 0.726300
vt 0.960200 0.786600
f 1/1/1 2/2/1 3/3/1
f 4/4/2 5/5/2 6/6/2
f 7/7/3 8/8/3 9/9/3
f 10/10/4 11/11/4 12/12/4
f 13/13/5 14/14/5 15/15/5
f 10/10/6 5/5/6 4/4/6
f 13/13/7 8/8/7 7/7/7
f 16/16/1 17/17/1 18/18/1
f 19/19/1 20/20/1 21/21/1
f 22/22/1 23/23/1 24/24/1
f 25/25/1 26/26/1 12/27/1
f 27/28/1 28/29/1 29/30/1
f 30/31/1 31/32/1 32/33/1
f 33/30/1 34/34/1 35/28/1
f 36/35/1 37/36/1 15/37/1
f 12/30/8 38/34/8 3/28/8
f 26/38/9 1/39/9 38/40/9
f 15/3/10 2/41/10 1/1/10
f 37/42/11 3/43/11 2/44/11
f 39/45/12 16/46/12 40/47/12
f 19/44/10 17/48/10 16/42/10
f 41/49/11 18/50/11 17/51/11
f 42/22/8 40/23/8 18/24/8
f 21/51/8 43/52/8 24/49/8
f 20/42/9 22/43/9 43/44/9
f 25/47/10 23/53/10 22/45/10
f 44/38/11 24/39/11 23/40/11
f 30/45/8 28/46/8 27/47/8
f 45/49/13 29/50/13 28/51/13
f 46/16/10 47/17/10 29/18/10
f 48/45/11 27/46/11 47/47/11
f 36/22/8 34/23/8 33/24/8
f 49/22/13 35/23/13 34/24/13
f 32/51/10 50/52/10 35/49/10
f 31/44/14 33/48/14 50/42/14
f 30/54/4 48/55/4 10/10/4
f 31/56/4 30/54/4 10/10/4
f 36/57/4 31/56/4 10/10/4
f 37/58/4 36/57/4 10/10/4
f 11/11/4 21/59/4 44/60/4
f 11/11/4 44/60/4 12/12/4
f 11/11/4 41/61/4 21/59/4
f 11/11/4 42/62/4 41/61/4
f 19/63/5 39/64/5 13/13/5
f 20/65/5 19/63/5 13/13/5
f 25/66/5 20/65/5 13/13/5
f 26/67/5 25/66/5 13/13/5
f 14/14/5 32/68/5 49/69/5
f 14/14/5 49/69/5 15/15/5
f 14/14/5 46/70/5 45/71/5
f 14/14/5 45/71/5 32/68/5
f 9/9/15 51/72/15 52/73/15
f 51/72/5 53/74/5 54/75/5
f 6/6/16 55/76/16 56/77/16
f 55/76/4 57/78/4 58/79/4
f 59/80/17 60/81/17 61/82/17
f 62/80/18 63/83/18 64/82/18
f 64/84/19 63/85/19 65/86/19
f 61/82/17 60/81/17 66/87/17
f 67/88/20 68/89/20 66/90/20
f 67/81/18 64/82/18 68/87/18
f 61/91/21 66/92/21 68/93/21
f 69/80/17 70/81/17 71/82/17
f 72/80/18 73/83/18 74/82/18
f 74/84/19 73/85/19 75/86/19
f 71/82/17 70/81/17 76/87/17
f 77/94/20 78/95/20 76/96/20
f 77/81/18 74/82/18 78/87/18
f 71/91/21 76/92/21 78/93/21
f 79/80/17 80/81/17 81/82/17
f 82/80/18 83/83/18 84/82/18
f 84/84/19 83/85/19 85/86/19
f 81/82/17 80/81/17 86/87/17
f 87/97/20 88/98/20 86/99/20
f 87/81/18 84/82/18 88/87/18
f 81/91/21 86/92/21 88/93/21
f 89/80/17 90/81/17 91/82/17
f 92/80/18 93/83/18 94/82/18
f 94/84/19 93/85/19 95/86/19
f 91/82/17 90/81/17 96/87/17
f 97/100/20 98/101/20 96/102/20
f 97/81/18 94/82/18 98/87/18
f 91/91/21 96/92/21 98/93/21
f 99/49/1 100/50/1 101/51/1
f 102/103/2 4/4/2 103/104/2
f 8/8/3 104/105/3 105/106/3
f 11/11/4 106/107/4 107/108/4
f 108/109/5 109/110/5 13/13/5
f 11/11/6 4/4/6 102/103/6
f 109/110/7 104/105/7 8/8/7
f 110/3/1 111/41/1 112/1/1
f 113/111/1 114/112/1 115/113/1
f 116/114/1 117/115/1 118/116/1
f 119/25/1 108/26/1 107/27/1
f 42/117/1 120/118/1 121/119/1
f 122/45/1 123/46/1 124/47/1
f 125/21/1 126/120/1 127/19/1
f 107/18/8 128/121/8 101/16/8
f 108/40/9 99/122/9 128/38/9
f 127/51/10 100/52/10 99/49/10
f 126/47/14 101/53/14 100/45/14
f 129/30/9 110/34/9 130/28/9
f 113/114/10 111/115/10 110/116/10
f 131/16/11 112/17/11 111/18/11
f 132/49/8 130/50/8 112/51/8
f 115/44/8 133/48/8 118/42/8
f 114/123/9 116/124/9 133/125/9
f 119/1/10 117/2/10 116/3/10
f 134/24/11 118/126/11 117/22/11
f 125/125/8 123/127/8 122/123/8
f 135/1/13 124/2/13 123/3/13
f 121/47/10 136/53/10 124/45/10
f 120/16/14 122/17/14 136/18/14
f 120/128/4 42/62/4 11/11/4
f 125/129/4 120/128/4 11/11/4
f 126/130/4 125/129/4 11/11/4
f 106/107/4 115/131/4 134/132/4
f 106/107/4 134/132/4 107/108/4
f 106/107/4 131/133/4 115/131/4
f 106/107/4 132/134/4 131/133/4
f 113/135/5 129/136/5 109/110/5
f 114/137/5 113/135/5 109/110/5
f 119/138/5 114/137/5 109/110/5
f 108/109/5 119/138/5 109/110/5
f 13/13/5 121/139/5 135/140/5
f 13/13/5 135/140/5 127/141/5
f 13/13/5 39/64/5 121/139/5
f 105/106/15 137/142/15 51/72/15
f 137/142/5 138/143/5 53/144/5
f 103/104/16 56/77/16 139/145/16
f 56/77/4 58/79/4 140/146/4
f 141/80/17 142/81/17 143/82/17
f 144/80/18 145/83/18 146/82/18
f 146/84/19 145/85/19 147/86/19
f 143/82/17 142/81/17 148/87/17
f 149/147/20 150/148/20 148/149/20
f 149/81/18 146/82/18 150/87/18
f 143/91/21 148/92/21 150/93/21
f 151/80/17 152/81/17 153/82/17
f 154/80/18 155/83/18 156/82/18
f 156/84/19 155/85/19 157/86/19
f 153/82/17 152/81/17 158/87/17
f 159/150/20 160/151/20 158/152/20
f 159/81/18 156/82/18 160/87/18
f 153/91/21 158/92/21 160/93/21
f 161/80/17 162/81/17 163/82/17
f 164/80/18 165/83/18 166/82/18
f 166/84/19 165/85/19 167/86/19
f 163/82/17 162/81/17 168/87/17
f 169/153/20 170/154/20 168/155/20
f 169/81/18 166/82/18 170/87/18
f 163/91/21 168/92/21 170/93/21
f 171/80/17 172/81/17 173/82/17
f 174/80/18 175/83/18 176/82/18
f 176/84/19 175/85/19 177/86/19
f 173/82/17 172/81/17 178/87/17
f 179/156/20 180/157/20 178/158/20
f 179/81/18 176/82/18 180/87/18
f 173/91/21 178/92/21 180/93/21
f 3/3/1 38/41/1 1/1/1
f 6/6/2 103/104/2 4/4/2
f 9/9/3 181/159/3 7/7/3
f 12/12/4 37/58/4 10/10/4
f 15/15/5 26/67/5 13/13/5
f 4/4/6 11/11/6 10/10/6
f 7/7/7 14/14/7 13/13/7
f 18/18/1 40/121/1 16/16/1
f 21/21/1 41/120/1 19/19/1
f 24/24/1 43/126/1 22/22/1
f 12/27/1 44/160/1 25/25/1
f 29/30/1 47/34/1 27/28/1
f 32/33/1 45/161/1 30/31/1
f 35/28/1 50/29/1 33/30/1
f 15/37/1 49/162/1 36/35/1
f 3/28/8 37/29/8 12/30/8
f 38/40/9 12/122/9 26/38/9
f 1/1/10 26/2/10 15/3/10
f 2/44/11 15/48/11 37/42/11
f 40/47/12 42/53/12 39/45/12
f 16/42/10 39/43/10 19/44/10
f 17/51/11 19/52/11 41/49/11
f 18/24/8 41/126/8 42/22/8
f 24/49/8 44/50/8 21/51/8
f 43/44/9 21/48/9 20/42/9
f 22/45/10 20/46/10 25/47/10
f 23/40/11 25/122/11 44/38/11
f 27/47/8 48/53/8 30/45/8
f 28/51/13 30/52/13 45/49/13
f 29/18/10 45/121/10 46/16/10
f 47/47/11 46/53/11 48/45/11
f 33/24/8 31/126/8 36/22/8
f 34/24/13 36/126/13 49/22/13
f 35/49/10 49/50/10 32/51/10
f 50/42/14 32/43/14 31/44/14
f 52/73/15 181/159/15 9/9/15
f 54/75/5 52/73/5 51/72/5
f 56/77/16 103/104/16 6/6/16
f 58/79/4 56/77/4 55/76/4
f 61/82/17 65/83/17 59/80/17
f 64/82/18 67/81/18 62/80/18
f 65/86/19 61/91/19 64/84/19
f 66/90/20 60/163/20 67/88/20
f 68/93/21 64/84/21 61/91/21
f 71/82/17 75/83/17 69/80/17
f 74/82/18 77/81/18 72/80/18
f 75/86/19 71/91/19 74/84/19
f 76/96/20 70/164/20 77/94/20
f 78/93/21 74/84/21 71/91/21
f 81/82/17 85/83/17 79/80/17
f 84/82/18 87/81/18 82/80/18
f 85/86/19 81/91/19 84/84/19
f 86/99/20 80/165/20 87/97/20
f 88/93/21 84/84/21 81/91/21
f 91/82/17 95/83/17 89/80/17
f 94/82/18 97/81/18 92/80/18
f 95/86/19 91/91/19 94/84/19
f 96/102/20 90/166/20 97/100/20
f 98/93/21 94/84/21 91/91/21
f 101/51/1 128/52/1 99/49/1
f 103/104/2 182/167/2 102/103/2
f 105/106/3 9/9/3 8/8/3
f 107/108/4 126/130/4 11/11/4
f 13/13/5 127/141/5 108/109/5
f 102/103/6 106/107/6 11/11/6
f 8/8/7 13/13/7 109/110/7
f 112/1/1 130/2/1 110/3/1
f 115/113/1 131/168/1 113/111/1
f 118/116/1 133/169/1 116/114/1
f 107/27/1 134/160/1 119/25/1
f 121/119/1 39/170/1 42/117/1
f 124/47/1 136/53/1 122/45/1
f 127/19/1 135/20/1 125/21/1
f 101/16/8 126/17/8 107/18/8
f 128/38/9 107/39/9 108/40/9
f 99/49/10 108/50/10 127/51/10
f 100/45/14 127/46/14 126/47/14
f 130/28/9 132/29/9 129/30/9
f 110/116/10 129/169/10 113/114/10
f 111/18/11 113/121/11 131/16/11
f 112/51/8 131/52/8 132/49/8
f 118/42/8 134/43/8 115/44/8
f 133/125/9 115/127/9 114/123/9
f 116/3/10 114/41/10 119/1/10
f 117/22/11 119/23/11 134/24/11
f 122/123/8 120/124/8 125/125/8
f 123/3/13 125/41/13 135/1/13
f 124/45/10 135/46/10 121/47/10
f 136/18/14 121/121/14 120/16/14
f 51/72/15 9/9/15 105/106/15
f 53/144/5 51/72/5 137/142/5
f 139/145/16 182/167/16 103/104/16
f 140/146/4 139/145/4 56/77/4
f 143/82/17 147/83/17 141/80/17
f 146/82/18 149/81/18 144/80/18
f 147/86/19 143/91/19 146/84/19
f 148/149/20 142/171/20 149/147/20
f 150/93/21 146/84/21 143/91/21
f 153/82/17 157/83/17 151/80/17
f 156/82/18 159/81/18 154/80/18
f 157/86/19 153/91/19 156/84/19
f 158/152/20 152/172/20 159/150/20
f 160/93/21 156/84/21 153/91/21
f 163/82/17 167/83/17 161/80/17
f 166/82/18 169/81/18 164/80/18
f 167/86/19 163/91/19 166/84/19
f 168/155/20 162/173/20 169/153/20
f 170/93/21 166/84/21 163/91/21
f 173/82/17 177/83/17 171/80/17
f 176/82/18 179/81/18 174/80/18
f 177/86/19 173/91/19 176/84/19
f 178/158/20 172/174/20 179/156/20
f 180/93/21 176/84/21 173/91/21
